# Blender v2.93.5 OBJ File: 'uganda.blend'
# www.blender.org
mtllib u_knuckles_brazo.mtl
o Plane.001
v 1.791644 2.740320 -0.055043
v 1.832429 2.896867 -0.055043
v 1.832429 3.056312 -0.138267
v 1.832429 3.079946 -0.544137
v 2.108069 3.056312 -0.138267
v 2.108069 3.178542 -0.327671
v 1.832429 3.178542 -0.327671
v 2.108069 3.079946 -0.544137
v 2.108069 2.896867 -0.055043
v 2.108069 2.876178 -0.758848
v 1.832429 2.876178 -0.758848
v 2.422284 2.820368 -0.203227
v 2.464249 2.884729 -0.322285
v 2.360438 2.725519 -0.593322
v 2.108069 2.740320 -0.055043
v 2.367541 2.736412 -0.126017
v 2.430398 2.832813 -0.458356
v 2.592226 2.461210 -0.204758
v 2.651551 2.492275 -0.239712
v 2.584528 2.457180 -0.500351
v 2.494289 2.409929 -0.204758
v 2.683236 2.516088 -0.319260
v 2.660345 2.496879 -0.410174
v 2.568066 2.683158 -0.129559
v 2.652509 2.662429 -0.555640
v 2.463001 2.563198 -0.654740
v 2.419781 2.605511 -0.042189
v 2.722040 2.670145 -0.328394
v 2.054717 2.706649 -0.657535
v 1.885781 2.706649 -0.657535
v 2.054717 2.640212 -0.147972
v 2.277168 2.597812 -0.098103
v 2.279755 2.447777 -0.159437
v 2.404679 2.372416 -0.310183
v 2.283514 2.439848 -0.335192
v 2.389073 2.504581 -0.597630
v 2.449690 2.395985 -0.457623
v 2.533011 2.447267 -0.596049
v 2.476167 2.396754 -0.551231
v 2.688260 2.521175 -0.518334
v 2.512040 2.430379 -0.103531
v 2.645014 2.488226 -0.187456
v 2.380539 2.363285 -0.312386
v 2.396042 2.384584 -0.201184
v 2.693859 2.490337 -0.339396
v 2.559931 2.312984 -0.732573
v 2.471392 2.234306 -0.662766
v 2.801743 2.428102 -0.611526
v 2.321018 2.224103 -0.117541
v 2.527266 2.286681 0.034561
v 2.810464 2.380070 -0.332817
v 2.296871 2.190928 -0.290747
v 2.734383 2.376781 -0.096160
v 2.864777 2.279510 -0.535486
v 2.660899 2.179397 0.020251
v 2.817092 2.243180 -0.170653
v 2.693596 2.198018 -0.621176
v 2.506307 2.142321 -0.571759
v 2.565846 2.135882 -0.146870
v 2.870951 2.245508 -0.338185
v 2.489527 2.087765 -0.308403
v 2.506621 2.111250 -0.185789
v 2.601765 1.957242 -0.571759
v 2.531753 1.883682 -0.308403
v 2.539185 1.911762 -0.185789
v 2.802000 2.151564 -0.535486
v 2.765664 2.090361 -0.170653
v 2.671931 2.013629 -0.621176
v 2.555757 2.040663 -0.141177
v 2.828460 2.101954 -0.338185
v 2.901273 2.168387 -0.184555
v 2.625214 1.940886 -0.078115
v 2.730503 2.052745 -0.128472
v 2.723902 2.042200 -0.058050
v 2.727911 1.984184 0.053336
v 2.732661 1.950327 -0.112565
v 2.592950 2.073942 0.013330
v 2.688528 2.108806 0.045018
v 2.730974 1.905838 0.028351
v 2.733810 1.885626 -0.070693
v 2.626245 1.956004 -0.103058
v 2.614025 1.975139 -0.010947
v 2.670279 1.889014 -0.065017
v 2.706225 1.817514 -0.016689
v 2.662984 1.900438 -0.010026
v 2.854021 2.074147 -0.309212
v 2.933668 2.079822 -0.187916
v 2.936438 2.149090 -0.309212
v 2.902479 2.017618 -0.270196
v 2.968220 1.941233 -0.213114
v 2.956879 2.067084 -0.270196
vt 0.828666 0.189965
vt 0.839785 0.220532
vt 0.816193 0.206494
vt 0.831323 0.236387
vt 0.806107 0.230495
vt 0.830266 0.255636
vt 0.804037 0.256481
vt 0.837875 0.174179
vt 0.850099 0.208913
vt 0.833026 0.277805
vt 0.810322 0.286796
vt 0.871882 0.232624
vt 0.867634 0.244552
vt 0.865232 0.276515
vt 0.861770 0.199449
vt 0.876344 0.221677
vt 0.866156 0.257863
vt 0.910956 0.234475
vt 0.910262 0.242217
vt 0.903872 0.273748
vt 0.912769 0.222935
vt 0.908534 0.251235
vt 0.907054 0.261069
vt 0.944764 0.493579
vt 0.966366 0.488767
vt 0.948211 0.501469
vt 0.948642 0.535908
vt 0.969126 0.529929
vt 0.966354 0.545799
vt 0.581786 0.949037
vt 0.594404 0.975318
vt 0.571361 0.955300
vt 0.968567 0.510113
vt 0.952034 0.510478
vt 0.950367 0.521163
vt 0.838080 0.293919
vt 0.824042 0.302140
vt 0.869588 0.185742
vt 0.868317 0.334815
vt 0.849851 0.358653
vt 0.884392 0.206726
vt 0.890954 0.325175
vt 0.912769 0.304006
vt 0.602284 0.953398
vt 0.592962 0.939918
vt 0.604901 0.939271
vt 0.579333 0.917277
vt 0.602789 0.911614
vt 0.591528 0.926548
vt 0.962685 0.556169
vt 0.980497 0.549648
vt 0.980061 0.560446
vt 0.982736 0.529309
vt 0.986464 0.474142
vt 0.986213 0.493302
vt 0.618100 0.914630
vt 0.616439 0.941407
vt 0.615339 0.953399
vt 0.618100 0.970813
vt 0.986464 0.510524
vt 0.927470 0.836834
vt 0.907264 0.847031
vt 0.902328 0.833613
vt 0.926988 0.848778
vt 0.909468 0.868054
vt 0.288071 0.960698
vt 0.312135 0.954241
vt 0.304708 0.975996
vt 0.925096 0.909296
vt 0.907330 0.891029
vt 0.923437 0.891238
vt 0.308701 0.911235
vt 0.317132 0.943440
vt 0.302936 0.936419
vt 0.297558 0.946507
vt 0.925428 0.871168
vt 0.927470 0.929441
vt 0.907747 0.914315
vt 0.897818 0.873603
vt 0.888389 0.932225
vt 0.894130 0.905242
vt 0.891035 0.856211
vt 0.886756 0.834444
vt 0.906821 0.942947
vt 0.879786 0.955105
vt 0.893947 0.890242
vt 0.329787 0.908722
vt 0.336343 0.947771
vt 0.331827 0.961102
vt 0.358352 0.922832
vt 0.358352 0.952073
vt 0.353565 0.964187
vt 0.886513 0.869917
vt 0.876197 0.906500
vt 0.337408 0.919460
vt 0.358184 0.912373
vt 0.870551 0.854626
vt 0.339885 0.968396
vt 0.329498 0.969234
vt 0.880651 0.887411
vt 0.890186 0.894666
vt 0.842299 0.898521
vt 0.842207 0.883329
vt 0.861406 0.856585
vt 0.854548 0.908633
vt 0.963396 0.471173
vt 0.941584 0.953949
vt 0.928614 0.944508
vt 0.981347 0.923667
vt 0.965228 0.945721
vt 0.966213 0.946107
vt 0.965621 0.946521
vt 0.868139 0.909561
vt 0.847547 0.921065
vt 0.981347 0.972607
vt 0.970440 0.947924
vt 0.968393 0.943444
vt 0.965990 0.946442
vt 0.965880 0.946534
vt 0.965873 0.946841
vt 0.966465 0.947025
vt 0.965921 0.946634
vt 0.965948 0.946539
vt 0.966065 0.946611
vt 0.855637 0.931091
vt 0.888245 0.892182
vt 0.889508 0.892926
vt 0.890201 0.892066
vt 0.893750 0.890388
vt 0.889383 0.892712
vt 0.889428 0.892737
vt 0.889500 0.892652
vn 0.0000 0.2203 0.9754
vn 0.2706 0.6596 0.7012
vn 0.0000 0.6738 0.7389
vn 0.3085 0.9491 0.0641
vn 0.0000 0.9973 0.0728
vn 0.3200 0.7805 -0.5371
vn 0.0000 0.8291 -0.5591
vn -0.1786 -0.6178 0.7658
vn 0.2030 0.2616 0.9436
vn 0.2985 0.1613 -0.9407
vn 0.0000 0.2082 -0.9781
vn 0.6097 0.4572 0.6475
vn 0.7618 0.6443 0.0676
vn 0.4235 -0.2840 -0.8603
vn 0.0399 -0.2627 0.9641
vn 0.4421 0.1798 0.8788
vn 0.6776 0.5143 -0.5257
vn -0.4319 0.8845 0.1764
vn -0.3808 0.9228 -0.0590
vn -0.6591 0.7334 0.1664
vn -0.6616 0.6399 -0.3910
vn -0.3772 0.9259 -0.0211
vn -0.3109 0.9399 -0.1410
vn -0.0065 0.9818 0.1897
vn 0.0692 0.9059 -0.4178
vn -0.3580 0.6266 -0.6923
vn -0.3996 0.7134 0.5756
vn 0.3773 0.8730 0.3092
vn 0.0588 -0.8219 -0.5666
vn -0.0568 -0.8354 -0.5467
vn -0.2096 -0.9283 0.3073
vn -0.0353 -0.6942 0.7189
vn -0.9995 0.0303 -0.0119
vn 0.0779 0.9969 -0.0147
vn -0.8816 0.4231 0.2095
vn -0.8918 0.3407 -0.2977
vn 0.0056 0.9406 0.3395
vn -0.1227 0.1539 -0.9804
vn -0.7801 -0.1114 -0.6156
vn 0.7392 0.4532 -0.4982
vn -0.0517 0.2639 0.9632
vn 0.6757 0.4019 0.6180
vn -0.9739 -0.1937 -0.1186
vn -0.8481 -0.2364 0.4742
vn 0.9198 0.3549 0.1673
vn -0.1667 0.0617 -0.9841
vn -0.6302 -0.3142 -0.7101
vn 0.6498 0.4870 -0.5836
vn -0.8250 -0.2059 0.5263
vn -0.2474 0.0711 0.9663
vn 0.8147 0.5549 0.1686
vn -0.9362 -0.3407 -0.0865
vn 0.5999 0.5282 0.6009
vn 0.9193 -0.0489 -0.3904
vn 0.2060 0.1113 0.9722
vn 0.8370 0.0997 0.5381
vn 0.3331 -0.2575 -0.9071
vn -0.6755 -0.5199 -0.5229
vn -0.4642 -0.5101 0.7241
vn 0.9659 0.2486 -0.0717
vn -0.8150 -0.5771 -0.0534
vn -0.6279 -0.5538 0.5468
vn -0.2083 -0.8337 -0.5115
vn -0.3749 -0.9260 -0.0444
vn -0.3976 -0.8349 0.3806
vn 0.7811 -0.3848 -0.4917
vn 0.8044 -0.5003 0.3203
vn 0.2877 -0.5276 -0.7993
vn -0.5227 0.0523 0.8509
vn 0.6406 -0.7440 -0.1901
vn 0.3193 0.1164 0.9405
vn 0.1582 -0.5871 0.7939
vn 0.8893 -0.4189 0.1836
vn 0.9757 0.1976 0.0945
vn 0.5248 -0.0696 0.8483
vn 0.6432 -0.2547 -0.7221
vn -0.8935 -0.0982 0.4381
vn 0.4486 0.3280 0.8314
vn 0.5276 -0.3278 0.7836
vn 0.6880 -0.4755 -0.5483
vn -0.7702 -0.0867 -0.6319
vn -0.9451 -0.2104 0.2499
vn -0.5615 -0.6460 -0.5170
vn 0.0384 -0.9865 0.1594
vn -0.7408 -0.4560 0.4932
vn -0.5445 -0.7647 -0.3448
vn 0.2086 -0.0293 0.9776
vn 0.8388 0.1632 -0.5194
vn -0.5299 -0.7463 -0.4027
vn 0.3225 -0.9099 0.2608
vn 0.8914 -0.0480 -0.4507
usemtl Material.001
s 1
f 2/1/1 5/2/2 3/3/3
f 3/3/3 6/4/4 7/5/5
f 7/5/5 8/6/6 4/7/7
f 1/8/8 9/9/9 2/1/1
f 4/7/7 10/10/10 11/11/11
f 9/9/9 12/12/12 5/2/2
f 5/2/2 13/13/13 6/4/4
f 8/6/6 14/14/14 10/10/10
f 15/15/15 16/16/16 9/9/9
f 8/6/6 13/13/13 17/17/17
f 12/12/12 18/18/18 19/19/19
f 17/17/17 20/20/20 14/14/14
f 16/16/16 21/21/21 18/18/18
f 12/12/12 22/22/22 13/13/13
f 17/17/17 22/22/22 23/23/23
f 18/24/18 24/25/24 19/26/19
f 20/27/20 25/28/25 26/29/26
f 21/30/21 27/31/27 18/32/18
f 19/26/19 28/33/28 22/34/22
f 23/35/23 28/33/28 25/28/25
f 11/11/11 29/36/29 30/37/30
f 1/8/8 31/38/31 15/15/15
f 30/37/30 31/39/31 1/40/8
f 15/15/15 31/38/31 32/41/32
f 10/10/10 14/14/14 29/36/29
f 31/39/31 29/36/29 32/42/32
f 21/43/21 14/14/14 20/20/20
f 33/44/33 34/45/34 35/46/35
f 20/47/20 36/48/36 37/49/37
f 35/46/35 37/49/37 36/48/36
f 21/30/21 37/49/37 34/45/34
f 29/36/29 14/14/14 32/42/32
f 36/50/36 38/51/38 39/52/39
f 28/33/28 40/53/40 25/28/25
f 24/25/24 41/54/41 42/55/42
f 35/46/35 39/56/39 43/57/43
f 35/46/35 44/58/44 33/44/33
f 25/28/25 38/51/38 26/29/26
f 33/44/33 41/59/41 27/31/27
f 28/33/28 42/55/42 45/60/45
f 39/61/39 46/62/46 47/63/47
f 38/64/38 48/65/48 46/62/46
f 41/66/41 49/67/49 50/68/50
f 42/69/42 51/70/51 45/71/45
f 39/72/39 52/73/52 43/74/43
f 44/75/44 52/73/52 49/67/49
f 40/76/40 51/70/51 48/65/48
f 41/77/41 53/78/53 42/69/42
f 51/70/51 54/79/54 48/65/48
f 53/78/53 55/80/55 56/81/56
f 47/63/47 57/82/57 58/83/58
f 48/65/48 57/82/57 46/62/46
f 50/84/50 59/85/59 55/80/55
f 51/70/51 56/81/56 60/86/60
f 47/87/47 61/88/61 52/73/52
f 52/73/52 62/89/62 49/67/49
f 61/88/61 63/90/63 64/91/64
f 61/88/61 65/92/65 62/89/62
f 60/86/60 66/93/66 54/79/54
f 55/80/55 67/94/67 56/81/56
f 58/95/58 68/96/68 63/90/63
f 57/82/57 66/93/66 68/97/68
f 62/89/62 69/98/69 59/99/59
f 70/100/70 71/101/71 56/81/56
f 65/102/65 64/103/64 67/94/67
f 63/104/63 68/97/68 70/100/70
f 66/93/66 70/100/70 68/97/68
f 64/103/64 63/104/63 70/100/70
f 70/100/70 67/94/67 64/103/64
f 72/105/72 65/102/65 67/94/67
f 2/1/1 9/9/9 5/2/2
f 3/3/3 5/2/2 6/4/4
f 7/5/5 6/4/4 8/6/6
f 1/8/8 15/15/15 9/9/9
f 4/7/7 8/6/6 10/10/10
f 9/9/9 16/16/16 12/12/12
f 5/2/2 12/12/12 13/13/13
f 8/6/6 17/17/17 14/14/14
f 15/15/15 32/41/32 16/16/16
f 8/6/6 6/4/4 13/13/13
f 12/12/12 16/16/16 18/18/18
f 17/17/17 23/23/23 20/20/20
f 16/16/16 32/41/32 21/21/21
f 12/12/12 19/19/19 22/22/22
f 17/17/17 13/13/13 22/22/22
f 18/24/18 27/106/27 24/25/24
f 20/27/20 23/35/23 25/28/25
f 21/30/21 33/44/33 27/31/27
f 19/26/19 24/25/24 28/33/28
f 23/35/23 22/34/22 28/33/28
f 11/11/11 10/10/10 29/36/29
f 30/37/30 29/36/29 31/39/31
f 21/43/21 32/42/32 14/14/14
f 33/44/33 21/30/21 34/45/34
f 20/27/20 26/29/26 36/50/36
f 35/46/35 34/45/34 37/49/37
f 21/30/21 20/47/20 37/49/37
f 36/50/36 26/29/26 38/51/38
f 28/33/28 45/60/45 40/53/40
f 24/25/24 27/106/27 41/54/41
f 35/46/35 36/48/36 39/56/39
f 35/46/35 43/57/43 44/58/44
f 25/28/25 40/53/40 38/51/38
f 33/44/33 44/58/44 41/59/41
f 28/33/28 24/25/24 42/55/42
f 39/61/39 38/64/38 46/62/46
f 38/64/38 40/76/40 48/65/48
f 41/66/41 44/75/44 49/67/49
f 42/69/42 53/78/53 51/70/51
f 39/72/39 47/87/47 52/73/52
f 44/75/44 43/74/43 52/73/52
f 40/76/40 45/71/45 51/70/51
f 41/77/41 50/84/50 53/78/53
f 51/70/51 60/86/60 54/79/54
f 53/78/53 50/84/50 55/80/55
f 47/63/47 46/62/46 57/82/57
f 48/65/48 54/79/54 57/82/57
f 50/68/50 49/67/49 62/89/62
f 51/70/51 53/78/53 56/81/56
f 47/87/47 58/95/58 61/88/61
f 52/73/52 61/88/61 62/89/62
f 61/88/61 58/95/58 63/90/63
f 61/88/61 64/91/64 65/92/65
f 60/86/60 70/100/70 66/93/66
f 73/107/73 67/108/67 55/109/55
f 58/83/58 57/82/57 68/97/68
f 57/82/57 54/79/54 66/93/66
f 65/92/65 69/98/69 62/89/62
f 56/81/56 67/94/67 70/100/70
f 74/110/74 75/111/75 76/112/76
f 73/113/73 69/114/69 72/105/72
f 59/115/59 73/107/73 77/116/77
f 73/107/73 78/117/78 74/110/74
f 55/109/55 77/116/77 78/117/78
f 76/112/76 79/118/79 80/119/80
f 77/116/77 75/111/75 78/117/78
f 73/107/73 76/112/76 81/120/81
f 73/107/73 82/121/82 77/116/77
f 83/122/83 80/119/80 84/123/84
f 75/111/75 85/124/85 79/118/79
f 76/112/76 83/122/83 81/120/81
f 81/120/81 85/124/85 82/121/82
f 85/124/85 83/122/83 84/123/84
f 80/119/80 79/118/79 84/123/84
f 79/118/79 85/124/85 84/123/84
f 50/68/50 62/89/62 59/99/59
f 73/113/73 72/105/72 67/94/67
f 65/102/65 72/105/72 69/114/69
f 74/110/74 78/117/78 75/111/75
f 59/125/59 69/114/69 73/113/73
f 73/107/73 55/109/55 78/117/78
f 55/109/55 59/115/59 77/116/77
f 76/112/76 75/111/75 79/118/79
f 77/116/77 82/121/82 75/111/75
f 73/107/73 74/110/74 76/112/76
f 73/107/73 81/120/81 82/121/82
f 75/111/75 82/121/82 85/124/85
f 76/112/76 80/119/80 83/122/83
f 81/120/81 83/122/83 85/124/85
f 86/126/86 87/127/87 71/101/71
f 70/100/70 88/128/88 86/126/86
f 60/129/60 71/101/71 88/128/88
f 87/127/87 89/130/89 90/131/90
f 86/126/86 91/132/91 89/130/89
f 88/128/88 87/127/87 91/132/91
f 89/130/89 91/132/91 90/131/90
f 91/132/91 87/127/87 90/131/90
f 70/100/70 86/126/86 71/101/71
f 86/126/86 89/130/89 87/127/87
f 70/100/70 60/129/60 88/128/88
f 60/129/60 56/81/56 71/101/71
f 86/126/86 88/128/88 91/132/91
f 88/128/88 71/101/71 87/127/87
