# Blender v2.93.5 OBJ File: 'qiqiobj.blend'
# www.blender.org
mtllib qiqi_muslo_der.mtl
o 七七_mesh_七七.004
v 1.329886 5.906912 -0.483579
v 1.188540 5.295480 -0.456443
v 1.037257 5.295485 -0.699231
v 1.153250 5.899163 -0.727325
v 0.161208 5.724919 0.327537
v 0.186782 5.295467 0.296645
v 0.413508 5.295465 0.447846
v 0.405927 5.679208 0.507740
v 1.288368 5.925000 0.102519
v 1.156046 5.295471 0.105875
v 1.233935 5.295475 -0.170757
v 1.376759 5.963891 -0.179268
v 0.135013 5.699245 -0.601013
v 0.123967 5.295482 -0.527486
v 0.029809 5.295477 -0.247103
v 0.019459 5.714946 -0.298738
v 0.363584 5.295485 -0.757181
v 0.393401 5.632106 -0.815345
v 0.739406 5.295486 -0.814655
v 0.797866 5.605532 -0.854778
v 0.061607 5.295472 0.064843
v 0.036775 5.730274 0.050402
v 0.972401 5.295467 0.333876
v 1.092131 5.933680 0.378356
v 0.685333 5.295465 0.428804
v 0.713895 5.825944 0.488352
v 0.029809 5.295477 -0.247103
v 0.019459 5.714946 -0.298738
v 0.452568 4.059746 0.305681
v 0.632220 4.055727 0.294012
v 0.638050 4.329113 0.318749
v 0.442643 4.332719 0.330956
v 0.123967 5.295482 -0.527486
v 0.363584 5.295485 -0.757181
v 0.319127 4.796936 -0.676871
v 0.114180 4.802675 -0.449226
v 0.244938 3.912931 -0.537938
v 0.270815 4.195434 -0.582728
v 0.531087 4.183080 -0.676176
v 0.495484 3.907310 -0.662567
v 0.186782 5.295467 0.296645
v 0.061607 5.295472 0.064843
v 0.092856 4.813842 0.077994
v 0.227781 4.817250 0.259357
v 1.156046 5.295471 0.105875
v 0.972401 5.295467 0.333876
v 0.876694 4.817688 0.297528
v 1.043445 4.813831 0.099261
v 1.037257 5.295485 -0.699231
v 0.927571 4.796715 -0.666146
v 0.643101 4.794698 -0.759631
v 0.739406 5.295486 -0.814655
v 0.065193 3.985137 -0.082006
v 0.134104 4.302209 0.104589
v 0.072570 4.266018 -0.118047
v 0.853923 3.952372 -0.403139
v 0.906753 4.228412 -0.420098
v 0.978111 4.263417 -0.159134
v 0.928250 3.985717 -0.147883
v 0.685333 5.295465 0.428804
v 0.653377 4.819190 0.375912
v 0.758457 4.039788 0.237883
v 0.722954 3.918694 -0.602649
v 0.100897 3.937832 -0.317608
v 0.065193 3.985137 -0.082006
v 0.284611 4.049594 0.230940
v 0.151778 4.023889 0.119162
v 0.896947 4.011634 0.081752
v 1.188540 5.295480 -0.456443
v 1.061721 4.802374 -0.440781
v 0.265046 4.322280 0.239892
v 0.939918 4.295302 0.076747
v 0.116470 4.227084 -0.362590
v 0.072570 4.266018 -0.118047
v 0.048103 4.808424 -0.187837
v 0.423175 4.819933 0.377874
v 0.413508 5.295465 0.447846
v 0.795965 4.318106 0.249061
v 0.779945 4.193574 -0.616268
v 0.029809 5.295477 -0.247103
v 0.048103 4.808424 -0.187837
v 1.233935 5.295475 -0.170757
v 1.108754 4.807951 -0.170499
v 0.029809 5.295477 -0.247103
v 0.208237 6.929626 -0.868417
v 0.163850 6.670590 0.298569
v 0.055840 6.646907 -0.395819
v 0.069614 6.640051 0.010846
v 0.122867 6.747626 -0.762910
v 1.157815 6.682410 -0.857543
v 1.118935 6.963063 -0.833867
v 1.416923 6.724869 -0.568844
v 0.756495 6.730579 0.650719
v 1.105260 6.769117 0.484465
v 1.364208 6.773021 0.183050
v 1.464363 6.753421 -0.214650
v 0.753641 7.143731 -0.944142
v 0.762802 6.891915 -0.969468
v 0.114815 6.641954 -0.725877
v 0.422746 6.820044 -0.945663
v 0.776431 6.635159 -0.988973
v 0.403499 6.624535 -0.953885
v 0.431718 7.013769 -0.942409
v 0.381734 6.706190 0.544255
v 0.787992 6.226637 -0.994923
v 0.801721 5.580377 -0.937219
v 0.377231 5.607851 -0.884440
v 0.390189 6.214222 -0.950966
v -0.014438 5.715195 -0.310958
v 0.017939 6.214503 -0.344162
v 0.103406 6.209023 -0.681523
v 0.089811 5.675744 -0.638462
v -0.009994 5.729459 0.056964
v 0.047109 6.225758 0.057052
v 0.376407 6.254132 0.583837
v 0.134922 6.242239 0.359269
v 0.110073 5.723537 0.362081
v 0.380407 5.673232 0.561993
v 0.765292 6.263940 0.648407
v 0.772198 5.648288 0.588779
v 1.138232 6.278147 0.488439
v 1.157542 5.667778 0.434793
v 1.402023 5.737117 0.166510
v 1.416551 6.280974 0.197234
v 1.524547 6.271373 -0.193227
v 1.459638 5.832002 -0.006222
v 1.496297 5.938499 -0.166573
v 1.469167 6.259822 -0.573090
v 1.477382 5.824412 -0.344874
v 1.198199 6.244079 -0.864739
v 1.448465 5.731815 -0.547490
v 1.217307 5.621172 -0.819259
v 1.217307 5.621172 -0.819259
v 1.448465 5.731815 -0.547490
v 1.390718 5.735271 -0.520938
v 1.193502 5.646076 -0.748306
v 1.477382 5.824412 -0.344874
v 1.496297 5.938499 -0.166573
v 1.428071 5.943883 -0.171884
v 1.417536 5.826716 -0.338156
v 1.459638 5.832002 -0.006222
v 1.402023 5.737117 0.166510
v 1.347415 5.745749 0.135018
v 1.402997 5.840602 -0.029665
v 1.157542 5.667778 0.434793
v 1.122322 5.677367 0.382271
v 0.772198 5.648288 0.588779
v 0.767195 5.655965 0.525128
v 0.380407 5.673232 0.561993
v 0.110073 5.723537 0.362081
v 0.161208 5.724919 0.327537
v 0.405927 5.679208 0.507740
v 0.019459 5.714946 -0.298738
v 0.036775 5.730274 0.050402
v -0.009994 5.729459 0.056964
v -0.014438 5.715195 -0.310958
v 0.089811 5.675744 -0.638462
v 0.135013 5.699245 -0.601013
v 0.393401 5.632106 -0.815345
v 0.377231 5.607851 -0.884440
v 0.801721 5.580377 -0.937219
v 0.797866 5.605532 -0.854778
v 0.110073 5.723537 0.362081
v 0.161208 5.724919 0.327537
v 0.134922 6.242239 0.359269
v 0.110073 5.723537 0.362081
v 0.163850 6.670590 0.298569
v 0.797866 5.605532 -0.854778
v 1.193502 5.646076 -0.748306
v 1.153250 5.899163 -0.727325
v 1.390718 5.735271 -0.520938
v 1.329886 5.906912 -0.483579
v 1.417536 5.826716 -0.338156
v 1.428071 5.943883 -0.171884
v 1.376759 5.963891 -0.179268
v 1.402997 5.840602 -0.029665
v 1.347415 5.745749 0.135018
v 1.288368 5.925000 0.102519
v 1.122322 5.677367 0.382271
v 1.092131 5.933680 0.378356
v 0.767195 5.655965 0.525128
v 0.713895 5.825944 0.488352
v 0.405927 5.679208 0.507740
v 0.014438 5.715195 -0.310958
vt 0.780885 0.729060
vt 0.000000 0.000000
vt 0.806315 0.725003
vt 0.788776 0.620475
vt 0.785946 0.606920
vt 0.805646 0.606920
vt 0.809513 0.620076
vt 0.673469 0.615978
vt 0.674656 0.606920
vt 0.693022 0.606920
vt 0.690158 0.614911
vt 0.749588 0.620664
vt 0.749120 0.606920
vt 0.767511 0.606920
vt 0.768448 0.621801
vt 0.873026 0.615472
vt 0.874700 0.606920
vt 0.896139 0.606920
vt 0.899258 0.615773
vt 0.852354 0.606920
vt 0.850520 0.613944
vt 0.827481 0.606920
vt 0.828015 0.613298
vt 0.657180 0.606920
vt 0.654021 0.616121
vt 0.729136 0.606920
vt 0.727820 0.620729
vt 0.709963 0.606920
vt 0.705367 0.618065
vt 0.634489 0.606920
vt 0.626850 0.615912
vt 0.711273 0.579031
vt 0.725250 0.579031
vt 0.720867 0.584166
vt 0.706833 0.584166
vt 0.874700 0.606566
vt 0.852354 0.606566
vt 0.849565 0.594729
vt 0.870775 0.594729
vt 0.840661 0.579031
vt 0.842803 0.584166
vt 0.822731 0.584166
vt 0.821383 0.579031
vt 0.674656 0.606566
vt 0.657180 0.606566
vt 0.666033 0.594729
vt 0.681829 0.594729
vt 0.749120 0.606566
vt 0.729136 0.606566
vt 0.729870 0.594729
vt 0.748000 0.594729
vt 0.805646 0.606566
vt 0.805323 0.594729
vt 0.826265 0.594729
vt 0.827481 0.606566
vt 0.672250 0.579031
vt 0.680476 0.584166
vt 0.665460 0.584166
vt 0.786469 0.579031
vt 0.787026 0.584166
vt 0.767222 0.584166
vt 0.767675 0.579031
vt 0.709963 0.606566
vt 0.713575 0.594729
vt 0.785946 0.606566
vt 0.786728 0.594729
vt 0.693121 0.584166
vt 0.699620 0.579031
vt 0.749545 0.584166
vt 0.749895 0.579031
vt 0.862108 0.584166
vt 0.882179 0.584166
vt 0.888642 0.594729
vt 0.697660 0.594729
vt 0.693022 0.606566
vt 0.733260 0.584166
vt 0.804110 0.584166
vt 0.634489 0.606566
vt 0.651155 0.594729
vt 0.767511 0.606566
vt 0.803058 0.579031
vt 0.767399 0.594729
vt 0.896139 0.606566
vt 0.859058 0.579031
vt 0.879340 0.579031
vt 0.686536 0.579031
vt 0.735619 0.579031
vt 0.779463 0.724303
vt 0.723100 0.722173
vt 0.720713 0.719969
vt 0.695183 0.719122
vt 0.751732 0.723439
vt 0.777485 0.719549
vt 0.749105 0.719695
vt 0.754725 0.727158
vt 0.735612 0.725905
vt 0.775668 0.712015
vt 0.775696 0.700282
vt 0.746948 0.700766
vt 0.747186 0.711887
vt 0.694534 0.701085
vt 0.693791 0.710727
vt 0.719149 0.711345
vt 0.720469 0.701411
vt 0.665942 0.700662
vt 0.664612 0.710118
vt 0.971899 0.710744
vt 0.995749 0.709680
vt 0.995749 0.699149
vt 0.969541 0.699355
vt 0.944027 0.711748
vt 0.942058 0.699962
vt 0.914843 0.712064
vt 0.914310 0.700696
vt 0.888959 0.701897
vt 0.887595 0.711635
vt 0.859959 0.710924
vt 0.874995 0.702686
vt 0.861363 0.704066
vt 0.832994 0.711494
vt 0.845764 0.702778
vt 0.806008 0.711917
vt 0.829849 0.702139
vt 0.804462 0.701226
vt 0.805978 0.719834
vt 0.833461 0.720084
vt 0.858530 0.720373
vt 0.887317 0.720947
vt 0.914674 0.721295
vt 0.943387 0.720959
vt 0.972581 0.720077
vt 0.995749 0.718293
vt 0.664491 0.718223
vt 0.642163 0.709919
vt 0.642163 0.700245
vt 0.642163 0.717919
vt 0.804462 0.701226
vt 0.829849 0.702139
vt 0.830264 0.701049
vt 0.806531 0.700029
vt 0.845764 0.702778
vt 0.861363 0.704066
vt 0.860942 0.702470
vt 0.845755 0.701693
vt 0.874995 0.702686
vt 0.888959 0.701897
vt 0.888230 0.700844
vt 0.873953 0.701619
vt 0.914310 0.700696
vt 0.913520 0.699530
vt 0.942058 0.699962
vt 0.941305 0.698803
vt 0.969541 0.699355
vt 0.995749 0.699149
vt 0.995749 0.698077
vt 0.969037 0.698242
vt 0.694498 0.700030
vt 0.666695 0.699556
vt 0.665942 0.700662
vt 0.694534 0.701085
vt 0.720469 0.701411
vt 0.720085 0.700275
vt 0.745637 0.699620
vt 0.746948 0.700766
vt 0.775696 0.700282
vt 0.775976 0.698696
vt 0.642163 0.700245
vt 0.642163 0.699243
vt 0.775976 0.698696
vt 0.806531 0.700029
vt 0.812867 0.695413
vt 0.830264 0.701049
vt 0.837092 0.698133
vt 0.845755 0.701693
vt 0.860942 0.702470
vt 0.860411 0.701319
vt 0.873953 0.701619
vt 0.888230 0.700844
vt 0.881707 0.697677
vt 0.913520 0.699530
vt 0.909423 0.694947
vt 0.941305 0.698803
vt 0.942785 0.695364
vt 0.969037 0.698242
vn 0.3245 0.6651 -0.6726
vn 0.0667 0.5797 0.8121
vn 0.8338 0.5298 -0.1551
vn 0.9219 -0.2090 -0.3263
vn 0.9126 -0.2333 -0.3357
vn 0.6289 -0.1926 -0.7532
vn 0.7038 -0.1675 -0.6904
vn -0.7749 -0.0881 0.6260
vn -0.7326 -0.0914 0.6745
vn -0.2546 -0.1326 0.9579
vn -0.2184 -0.1556 0.9634
vn 0.8882 -0.1934 0.4167
vn 0.8714 -0.1969 0.4494
vn 0.9717 -0.2291 0.0579
vn 0.9750 -0.2073 0.0795
vn -0.8265 -0.0755 -0.5579
vn -0.8494 -0.0613 -0.5242
vn -0.9931 -0.0444 -0.1082
vn -0.9857 -0.0445 -0.1628
vn -0.4456 -0.1060 -0.8889
vn -0.4059 -0.1093 -0.9074
vn 0.1149 -0.1478 -0.9823
vn 0.2163 -0.1366 -0.9667
vn -0.9569 -0.0580 0.2847
vn -0.9704 -0.0361 0.2386
vn 0.5672 -0.1641 0.8070
vn 0.6252 -0.1704 0.7616
vn 0.1905 -0.1279 0.9733
vn 0.2369 -0.1286 0.9630
vn -0.1357 -0.6281 0.7662
vn 0.1519 -0.6488 0.7456
vn 0.2272 -0.1135 0.9672
vn -0.2062 -0.1054 0.9728
vn -0.5196 -0.0916 -0.8495
vn -0.8860 -0.0671 -0.4587
vn -0.4914 -0.7134 -0.4996
vn -0.6036 -0.0865 -0.7926
vn -0.0619 -0.1105 -0.9919
vn -0.0864 -0.6950 -0.7138
vn -0.9569 -0.0581 0.2846
vn -0.9242 -0.0499 0.3786
vn -0.6699 -0.0920 0.7367
vn 0.8713 -0.1969 0.4494
vn 0.5673 -0.1641 0.8070
vn 0.5612 -0.1630 0.8115
vn 0.8697 -0.2055 0.4488
vn 0.6138 -0.2015 -0.7633
vn 0.0423 -0.1319 -0.9904
vn -0.5471 0.0032 0.8037
vn -0.8645 -0.0325 0.5015
vn -0.9993 -0.0043 0.0358
vn 0.6388 -0.7450 -0.1921
vn 0.9011 -0.2277 -0.3689
vn 0.9765 -0.2145 -0.0221
vn 0.6918 -0.7206 0.0463
vn 0.1727 -0.1166 0.9780
vn 0.9105 -0.2445 -0.3335
vn -0.5852 -0.0746 0.8075
vn -0.3486 -0.6362 0.6882
vn 0.8872 -0.1747 0.4271
vn 0.6071 -0.7019 0.3725
vn -0.9259 -0.0307 -0.3766
vn -0.9994 -0.0044 0.0358
vn -0.9982 -0.0462 -0.0393
vn -0.2580 -0.1138 0.9594
vn -0.2545 -0.1326 0.9579
vn 0.5896 -0.1422 0.7951
vn 0.5868 -0.1934 -0.7863
vn 0.4175 -0.7318 -0.5387
vn 0.9710 -0.2369 0.0324
vn -0.7003 -0.6950 -0.1631
vn -0.1947 -0.8269 0.5275
vn -0.5668 -0.6333 0.5269
vn 0.3629 -0.6843 0.6324
vn 0.1362 0.0890 -0.9867
vn -0.6396 -0.2126 -0.7388
vn -0.8647 -0.0304 -0.5013
vn -0.9933 0.0541 -0.1024
vn -0.2824 0.0053 -0.9593
vn 0.1178 0.0550 -0.9915
vn -0.3782 0.0436 -0.9247
vn -0.1621 0.0387 -0.9860
vn -0.4150 -0.1865 -0.8905
vn 0.0968 -0.0362 -0.9947
vn 0.0792 -0.0871 -0.9931
vn -0.4039 -0.0790 -0.9114
vn -0.4074 -0.0526 -0.9117
vn -0.9905 0.0567 -0.1249
vn -0.9939 0.0628 -0.0902
vn -0.8628 -0.0123 -0.5054
vn -0.8306 -0.0237 -0.5563
vn -0.9812 0.0933 0.1690
vn -0.9809 0.0903 0.1721
vn -0.4434 0.0210 0.8961
vn -0.8479 0.0842 0.5234
vn -0.8011 0.0175 0.5983
vn -0.3506 -0.0584 0.9347
vn 0.1333 -0.0337 0.9905
vn 0.1642 -0.0882 0.9825
vn 0.5765 -0.0030 0.8171
vn 0.5700 -0.0542 0.8198
vn 0.8436 -0.0440 0.5352
vn 0.8708 0.0335 0.4905
vn 0.9981 0.0282 0.0545
vn 0.9636 -0.0435 0.2638
vn 0.9972 -0.0628 0.0408
vn 0.9057 0.0186 -0.4236
vn 0.9939 -0.0361 -0.1044
vn 0.5438 0.0019 -0.8392
vn 0.8851 -0.0416 -0.4636
vn 0.5301 -0.0521 -0.8464
vn 0.6430 0.3889 -0.6597
vn 0.6177 0.7026 -0.3532
vn 0.6718 0.7408 -0.0026
vn 0.6017 0.7349 0.3128
vn 0.3924 0.7165 0.5768
vn 0.0438 0.6218 0.7820
vn -0.4224 0.6878 0.5904
vn -0.3899 0.2293 0.8918
vn -0.9813 0.0819 0.1740
vn -0.8011 0.0174 0.5983
vn -0.8385 0.1171 0.5321
vn 0.5560 -0.7976 -0.2338
vn -0.1209 -0.4572 -0.8811
vn 0.3464 -0.8533 -0.3898
vn -0.0008 0.0006 1.0000
vn 0.5293 -0.8458 -0.0669
vn 0.5547 -0.8288 -0.0735
vn 0.4378 -0.8714 -0.2212
vn 0.4379 -0.8952 -0.0824
vn 0.0153 -0.9437 0.3305
vn 0.1013 -0.9253 0.3655
vn 0.1124 -0.9224 0.3694
vn 0.0191 -0.9429 0.3326
vn 0.0077 -0.8714 0.4906
vn -0.0609 -0.9977 -0.0285
vn -0.0624 -0.9979 -0.0162
vn 0.0334 -0.8676 0.4962
vn 0.0843 -0.8621 -0.4996
vn 0.0615 -0.9343 -0.3513
vn 0.0564 -0.9307 -0.3614
vn 0.0698 -0.8539 -0.5157
vn 0.0183 -0.9822 -0.1867
vn 0.0167 -0.9810 -0.1932
vn -0.0295 -0.9926 -0.1178
vn -0.0271 -0.9925 -0.1193
vn -0.0660 -0.9880 -0.1394
vn -0.0297 -0.9961 -0.0834
vn -0.0336 -0.9955 -0.0884
vn -0.0653 -0.9883 -0.1378
vn -0.0204 -0.9990 0.0410
vn 0.0182 -0.9998 0.0071
vn 0.0173 -0.9998 0.0101
vn -0.0013 -0.9986 0.0521
vn 0.1989 -0.9252 0.3231
vn 0.2116 -0.9283 0.3058
vn 0.0218 -0.9445 0.3277
vn 0.0098 -0.9449 0.3271
vn -0.0087 -0.9554 0.2950
vn -0.0071 -0.9571 0.2897
vn -0.2482 -0.1198 0.9613
vn -0.4820 -0.1488 0.8635
vn -0.5626 -0.2049 0.8009
vn -0.7949 -0.3279 0.5105
vn -0.8067 -0.4123 0.4233
vn -0.8713 -0.3754 0.3160
vn -0.4364 -0.8772 -0.2002
vn -0.4523 -0.8794 -0.1483
vn -0.7528 -0.5189 -0.4051
vn -0.7164 -0.3466 -0.6055
vn -0.7733 -0.3474 -0.5304
vn -0.5844 -0.1236 -0.8020
vn -0.6048 -0.1177 -0.7876
vn -0.1418 -0.2010 -0.9693
vn -0.0903 -0.2390 -0.9668
vn 0.0344 -0.2024 -0.9787
usemtl eye_white.001
s 3
f 97/1/1 167/2/2 91/3/3
usemtl skin.001
s 1
f 1/4/4 2/5/5 3/6/6
f 3/6/6 4/7/7 1/4/4
f 5/8/8 6/9/9 7/10/10
f 7/10/10 8/11/11 5/8/8
f 9/12/12 10/13/13 11/14/14
f 11/14/14 12/15/15 9/12/12
f 13/16/16 14/17/17 15/18/18
f 15/18/18 16/19/19 13/16/16
f 17/20/20 14/17/17 13/16/16
f 13/16/16 18/21/21 17/20/20
f 19/22/22 17/20/20 18/21/21
f 18/21/21 20/23/23 19/22/22
f 21/24/24 6/9/9 5/8/8
f 5/8/8 22/25/25 21/24/24
f 23/26/26 10/13/13 9/12/12
f 9/12/12 24/27/27 23/26/26
f 7/10/10 25/28/28 26/29/29
f 26/29/29 8/11/11 7/10/10
f 11/14/14 2/5/5 1/4/4
f 1/4/4 12/15/15 11/14/14
f 27/30/18 21/24/24 22/25/25
f 22/25/25 28/31/19 27/30/18
f 3/6/6 19/22/22 20/23/23
f 20/23/23 4/7/7 3/6/6
f 25/28/28 23/26/26 24/27/27
f 24/27/27 26/29/29 25/28/28
usemtl shoe.001
s 2
f 29/32/30 30/33/31 31/34/32
f 31/34/32 32/35/33 29/32/30
f 33/36/17 34/37/20 35/38/34
f 35/38/34 36/39/35 33/36/17
f 37/40/36 38/41/37 39/42/38
f 39/42/38 40/43/39 37/40/36
f 41/44/9 42/45/40 43/46/41
f 43/46/41 44/47/42 41/44/9
f 45/48/43 46/49/44 47/50/45
f 47/50/45 48/51/46 45/48/43
f 49/52/6 50/53/47 51/54/48
f 51/54/48 52/55/22 49/52/6
f 53/56/49 54/57/50 55/58/51
f 56/59/52 57/60/53 58/61/54
f 58/61/54 59/62/55 56/59/52
f 60/63/28 61/64/56 47/50/45
f 47/50/45 46/49/44 60/63/28
f 50/53/47 49/52/6 69/65/5
f 69/65/5 70/66/57 50/53/47
f 29/32/30 32/35/33 71/67/58
f 71/67/58 66/68/59 29/32/30
f 59/62/55 58/61/54 72/69/60
f 72/69/60 68/70/61 59/62/55
f 36/39/35 73/71/62 74/72/63
f 74/72/63 75/73/64 36/39/35
f 76/74/65 61/64/56 60/63/28
f 60/63/28 77/75/66 76/74/65
f 36/39/35 35/38/34 38/41/37
f 38/41/37 73/71/62 36/39/35
f 51/54/48 35/38/34 34/37/20
f 34/37/20 52/55/22 51/54/48
f 44/47/42 43/46/41 54/57/50
f 54/57/50 71/67/58 44/47/42
f 48/51/46 47/50/45 78/76/67
f 78/76/67 72/69/60 48/51/46
f 51/54/48 50/53/47 79/77/68
f 79/77/68 39/42/38 51/54/48
f 43/46/41 42/45/40 80/78/18
f 80/78/18 81/79/64 43/46/41
f 82/80/14 70/66/57 69/65/5
f 47/50/45 61/64/56 31/34/32
f 31/34/32 78/76/67 47/50/45
f 63/81/69 79/77/68 57/60/53
f 57/60/53 56/59/52 63/81/69
f 44/47/42 76/74/65 77/75/66
f 77/75/66 41/44/9 44/47/42
f 48/51/46 83/82/70 82/80/14
f 82/80/14 45/48/43 48/51/46
f 84/83/18 33/36/17 36/39/35
f 36/39/35 75/73/64 84/83/18
f 32/35/33 31/34/32 61/64/56
f 61/64/56 76/74/65 32/35/33
f 39/42/38 38/41/37 35/38/34
f 35/38/34 51/54/48 39/42/38
f 55/58/51 54/57/50 43/46/41
f 58/61/54 57/60/53 70/66/57
f 70/66/57 83/82/70 58/61/54
f 71/67/58 32/35/33 76/74/65
f 76/74/65 44/47/42 71/67/58
f 72/69/60 58/61/54 83/82/70
f 83/82/70 48/51/46 72/69/60
f 74/72/63 73/71/62 64/84/71
f 64/84/71 65/85/72 74/72/63
f 73/71/62 38/41/37 37/40/36
f 37/40/36 64/84/71 73/71/62
f 71/67/58 54/57/50 67/86/73
f 67/86/73 66/68/59 71/67/58
f 72/69/60 78/76/67 62/87/74
f 62/87/74 68/70/61 72/69/60
f 39/42/38 79/77/68 63/81/69
f 63/81/69 40/43/39 39/42/38
f 78/76/67 31/34/32 30/33/31
f 30/33/31 62/87/74 78/76/67
f 57/60/53 79/77/68 50/53/47
f 50/53/47 70/66/57 57/60/53
f 55/58/51 43/46/41 81/79/64
f 53/56/49 67/86/73 54/57/50
f 83/82/70 70/66/57 82/80/14
f 30/33/31 66/68/59 59/62/55
f 64/84/71 37/40/36 56/59/52
f 37/40/36 40/43/39 56/59/52
f 40/43/39 63/81/69 56/59/52
f 56/59/52 59/62/55 64/84/71
f 59/62/55 68/70/61 62/87/74
f 59/62/55 67/86/73 64/84/71
f 62/87/74 30/33/31 59/62/55
f 30/33/31 29/32/30 66/68/59
f 67/86/73 53/56/49 65/85/72
f 65/85/72 64/84/71 67/86/73
f 67/86/73 59/62/55 66/68/59
s 3
f 91/3/3 98/88/75 97/1/1
f 89/89/76 99/90/77 87/91/78
f 100/92/79 98/88/75 101/93/80
f 101/93/80 102/94/81 100/92/79
f 98/88/75 100/92/79 103/95/82
f 103/95/82 97/1/1 98/88/75
f 103/95/82 100/92/79 85/96/83
f 100/92/79 89/89/76 85/96/83
f 105/97/84 106/98/85 107/99/86
f 107/99/86 108/100/87 105/97/84
f 109/101/88 110/102/89 111/103/90
f 111/103/90 112/104/91 109/101/88
f 109/101/88 113/105/92 114/106/93
f 114/106/93 110/102/89 109/101/88
f 115/107/94 116/108/95 117/109/96
f 117/109/96 118/110/97 115/107/94
f 119/111/98 115/107/94 118/110/97
f 118/110/97 120/112/99 119/111/98
f 121/113/100 119/111/98 120/112/99
f 120/112/99 122/114/101 121/113/100
f 123/115/102 124/116/103 121/113/100
f 121/113/100 122/114/101 123/115/102
f 125/117/104 124/116/103 126/118/105
f 126/118/105 127/119/106 125/117/104
f 128/120/107 125/117/104 127/119/106
f 127/119/106 129/121/108 128/120/107
f 130/122/109 128/120/107 131/123/110
f 131/123/110 132/124/111 130/122/109
f 102/94/81 101/93/80 105/97/84
f 105/97/84 108/100/87 102/94/81
f 90/125/112 92/126/113 128/120/107
f 128/120/107 130/122/109 90/125/112
f 92/126/113 96/127/114 125/117/104
f 125/117/104 128/120/107 92/126/113
f 96/127/114 95/128/115 124/116/103
f 124/116/103 125/117/104 96/127/114
f 95/128/115 94/129/116 121/113/100
f 121/113/100 124/116/103 95/128/115
f 94/129/116 93/130/117 119/111/98
f 119/111/98 121/113/100 94/129/116
f 93/130/117 104/131/118 115/107/94
f 115/107/94 119/111/98 93/130/117
f 104/131/118 86/132/119 116/108/95
f 116/108/95 115/107/94 104/131/118
f 110/102/89 114/106/93 88/133/120
f 88/133/120 87/91/78 110/102/89
f 87/91/78 99/90/77 111/103/90
f 111/103/90 110/102/89 87/91/78
f 99/90/77 89/89/76 100/92/79
f 100/92/79 102/94/81 99/90/77
f 108/100/87 111/103/90 99/90/77
f 99/90/77 102/94/81 108/100/87
f 107/99/86 112/104/91 111/103/90
f 111/103/90 108/100/87 107/99/86
f 101/93/80 98/88/75 91/3/3
f 91/3/3 90/125/112 101/93/80
f 130/122/109 105/97/84 101/93/80
f 101/93/80 90/125/112 130/122/109
f 132/124/111 106/98/85 105/97/84
f 105/97/84 130/122/109 132/124/111
f 165/134/95 114/106/93 113/105/92
f 113/105/92 166/135/121 165/134/95
f 167/136/122 88/133/120 114/106/93
f 114/106/93 165/134/95 167/136/122
f 128/120/107 129/121/108 131/123/110
f 124/116/103 123/115/102 126/118/105
f 89/89/123 85/96/124 103/95/125
f 91/3/3 167/2/2 90/125/112
f 104/131/118 93/130/117 94/129/116
f 94/129/116 95/128/115 167/136/2
f 95/128/115 96/127/114 167/136/2
f 96/127/114 92/126/113 90/125/112
f 96/127/114 90/125/112 167/136/2
f 104/131/118 94/129/116 167/136/2
f 86/132/119 104/131/118 167/136/2
f 97/1/126 86/132/119 167/136/2
f 88/133/127 87/91/128 97/1/129
f 87/91/128 89/89/123 103/95/125
f 103/95/125 97/1/129 87/91/128
f 97/1/129 167/136/130 88/133/127
s 4
f 133/137/131 134/138/132 135/139/133
f 135/139/133 136/140/134 133/137/131
f 137/141/135 138/142/136 139/143/137
f 139/143/137 140/144/138 137/141/135
f 141/145/139 142/146/140 143/147/141
f 143/147/141 144/148/142 141/145/139
f 142/146/140 145/149/143 146/150/144
f 146/150/144 143/147/141 142/146/140
f 145/149/143 147/151/145 148/152/146
f 148/152/146 146/150/144 145/149/143
f 149/153/147 150/154/148 151/155/149
f 151/155/149 152/156/150 149/153/147
f 153/157/151 154/158/152 155/159/153
f 155/159/153 156/160/154 153/157/151
f 156/160/154 157/161/155 158/162/156
f 158/162/156 153/157/151 156/160/154
f 147/151/145 149/153/147 152/156/150
f 152/156/150 148/152/146 147/151/145
f 159/163/157 158/162/156 157/161/155
f 157/161/155 160/164/158 159/163/157
f 161/165/159 162/166/160 159/163/157
f 159/163/157 160/164/158 161/165/159
f 136/140/134 162/166/160 161/165/159
f 161/165/159 133/137/131 136/140/134
f 163/167/148 155/159/153 154/158/152
f 154/158/152 164/168/149 163/167/148
f 134/138/132 137/141/135 140/144/138
f 140/144/138 135/139/133 134/138/132
f 138/142/136 141/145/139 144/148/142
f 144/148/142 139/143/137 138/142/136
s 5
f 168/169/161 169/170/162 170/171/163
f 170/171/163 169/170/162 171/172/164
f 171/172/164 172/173/165 170/171/163
f 172/173/165 173/174/166 174/175/167
f 174/175/167 175/176/168 172/173/165
f 176/177/169 177/178/170 178/179/171
f 178/179/171 177/178/170 179/180/172
f 179/180/172 180/181/173 178/179/171
f 180/181/173 179/180/172 181/182/174
f 181/182/174 182/183/175 180/181/173
f 182/183/175 181/182/174 183/184/176
f 172/173/165 171/172/164 173/174/166
f 175/176/168 174/175/167 176/177/169
f 176/177/169 178/179/171 175/176/168
