# Blender v2.93.5 OBJ File: 'padoru2.blend'
# www.blender.org
mtllib pierna_der.mtl
o Body_jinsters_padoru.002
v 0.009505 0.075905 -0.000000
v 0.023102 0.073207 0.021773
v 0.010856 0.072410 -0.000000
v 0.036587 0.005286 0.005339
v 0.044117 0.005380 0.005341
v 0.040521 0.006533 0.007006
v 0.059637 0.077971 0.022467
v 0.043655 0.086648 0.034218
v 0.041936 0.075313 0.030571
v 0.041339 0.075135 -0.031941
v 0.017738 0.081532 -0.025720
v 0.042693 0.094751 -0.038536
v 0.020729 0.091910 0.039517
v 0.034500 0.001108 -0.005481
v 0.047238 0.002880 0.000381
v 0.033901 0.002880 0.000381
v 0.068000 0.079626 -0.000000
v 0.063087 0.096893 0.025658
v 0.072180 0.104254 -0.000047
v 0.040664 0.056398 0.024838
v 0.019891 0.072998 -0.023233
v 0.019313 0.079894 0.023912
v 0.063627 0.102283 -0.025255
v 0.045831 0.010256 0.006638
v 0.040413 0.011162 0.009225
v 0.048152 0.008406 -0.007294
v 0.049866 0.008987 0.000380
v 0.043846 0.000000 -0.010138
v 0.040598 0.009331 -0.012082
v 0.040520 0.000000 -0.011470
v 0.037321 0.000000 -0.010138
v 0.035253 0.010140 0.006343
v 0.033143 0.008418 -0.007142
v 0.025716 0.055830 0.017838
v 0.040463 0.046177 0.021516
v 0.031441 0.008981 0.000361
v 0.062241 0.055180 -0.000000
v 0.055679 0.053051 -0.016126
v 0.056099 0.055612 -0.016636
v 0.055333 0.055917 0.018094
v 0.053750 0.047663 0.016174
v 0.060106 0.077933 -0.021251
v 0.040879 0.053075 -0.025372
v 0.040864 0.056020 -0.026277
v 0.016716 0.055185 -0.000000
v 0.027146 0.047843 0.015786
v 0.023707 0.055583 -0.019015
v 0.024274 0.053056 -0.018415
v 0.046755 0.001019 -0.005481
vt 0.965067 0.360135
vt 0.987560 0.368869
vt 0.985043 0.360135
vt 0.865106 0.281404
vt 0.882672 0.281088
vt 0.874234 0.276919
vt 0.910669 0.360135
vt 0.938029 0.380672
vt 0.937418 0.360135
vt 0.807441 0.360025
vt 0.772683 0.378125
vt 0.807441 0.396540
vt 0.860550 0.305962
vt 0.890103 0.292689
vt 0.858988 0.293086
vt 0.885025 0.360135
vt 0.910669 0.394925
vt 0.965067 0.356442
vt 0.935367 0.328815
vt 0.937418 0.356442
vt 0.759688 0.368869
vt 0.778757 0.360025
vt 0.761995 0.360025
vt 0.970610 0.374669
vt 0.869975 0.360025
vt 0.841497 0.404309
vt 0.875884 0.404941
vt 0.897133 0.259704
vt 0.890391 0.267394
vt 0.899652 0.267394
vt 0.878391 0.256903
vt 0.866243 0.267394
vt 0.878741 0.267394
vt 0.889448 0.259108
vt 0.858752 0.252924
vt 0.850836 0.267394
vt 0.874753 0.318673
vt 0.882478 0.315774
vt 0.867254 0.315961
vt 0.890391 0.267394
vt 0.889448 0.259108
vt 0.878391 0.256903
vt 0.866243 0.267394
vt 0.867998 0.254737
vt 0.954745 0.325202
vt 0.933836 0.310362
vt 0.933577 0.325202
vt 0.878741 0.267394
vt 0.857050 0.325202
vt 0.837111 0.321731
vt 0.837499 0.325202
vt 0.912885 0.325202
vt 0.914630 0.313737
vt 0.891337 0.325202
vt 0.841497 0.360025
vt 0.815299 0.321731
vt 0.815354 0.325202
vt 0.977516 0.325202
vt 0.953218 0.313783
vt 0.791929 0.325202
vt 0.857096 0.328815
vt 0.841497 0.356332
vt 0.869975 0.356332
vt 0.885221 0.356442
vt 0.911123 0.328815
vt 0.891425 0.328815
vt 0.784326 0.328815
vt 0.761995 0.356332
vt 0.778757 0.356332
vt 0.910669 0.356442
vt 0.792214 0.321731
vt 0.769711 0.325202
vt 0.807274 0.328815
vt 0.933726 0.257263
vt 0.911835 0.252342
vt 0.838827 0.252005
vt 0.827544 0.253643
vt 0.814042 0.256062
vt 0.954863 0.252187
vt 0.944131 0.255289
vt 0.788910 0.252505
vt 0.985043 0.356442
vt 0.960864 0.328815
vt 0.807441 0.356332
vt 0.835922 0.328815
vt 0.858752 0.252924
vt 0.867998 0.254737
vt 0.852544 0.252360
vt 0.889140 0.305653
vt 0.880553 0.404803
vt 0.970415 0.389267
vt 0.769756 0.328815
vt 0.923094 0.255583
vt 0.800249 0.253969
vt 0.977568 0.328815
vn -0.5972 -0.3942 0.6985
vn -0.9228 -0.3820 0.0507
vn -0.9401 -0.3344 0.0668
vn -0.3721 -0.6214 0.6895
vn 0.3490 -0.6443 0.6805
vn -0.0019 -0.5570 0.8305
vn 0.7322 -0.2635 0.6280
vn 0.1559 -0.4163 0.8958
vn 0.0315 -0.3074 0.9511
vn 0.0940 -0.3095 -0.9463
vn -0.5784 -0.3458 -0.7388
vn 0.2654 -0.2926 -0.9187
vn -0.6549 -0.7554 -0.0222
vn 0.6023 -0.7209 0.3428
vn -0.6109 -0.7247 0.3189
vn 0.9776 -0.2103 -0.0006
vn 0.8142 -0.2190 0.5377
vn -0.0092 -0.2996 0.9540
vn -0.6628 -0.3323 -0.6710
vn -0.4307 -0.5965 0.6773
vn 0.8089 -0.1999 -0.5529
vn 0.9854 -0.1673 -0.0315
vn 0.5756 -0.3559 0.7362
vn -0.0261 -0.3715 0.9281
vn 0.8312 -0.2223 -0.5095
vn 0.9246 -0.3333 0.1844
vn 0.4534 -0.7412 -0.4951
vn 0.0039 -0.1800 -0.9837
vn -0.0068 -0.6555 -0.7552
vn -0.4678 -0.7390 -0.4849
vn -0.5996 -0.3301 0.7290
vn -0.8330 -0.2405 -0.4982
vn -0.6588 -0.2810 0.6979
vn -0.0133 -0.3215 0.9468
vn -0.9266 -0.3305 0.1791
vn 0.9691 -0.2466 0.0110
vn 0.7521 -0.2530 -0.6086
vn 0.7487 -0.2527 -0.6129
vn 0.7015 -0.2775 0.6565
vn 0.6863 -0.2908 0.6666
vn 0.7621 -0.2435 -0.5999
vn 0.0810 -0.2918 -0.9531
vn 0.0809 -0.2934 -0.9525
vn -0.9483 -0.3125 0.0565
vn -0.6642 -0.2983 0.6855
vn -0.6825 -0.3124 -0.6608
vn -0.6895 -0.3058 -0.6565
vn 0.6503 -0.7595 -0.0169
vn -0.0399 -0.7899 0.6119
usemtl Padoru_Tex
s 1
f 2/1/1 1/2/2 3/3/3
f 4/4/4 5/5/5 6/6/6
f 7/7/7 8/8/8 9/9/9
f 10/10/10 11/11/11 12/12/12
f 14/13/13 15/14/14 16/15/15
f 16/15/15 5/5/5 4/4/4
f 17/16/16 18/17/17 7/7/7
f 2/18/1 20/19/18 9/20/9
f 1/21/2 21/22/19 3/23/3
f 9/9/9 22/24/20 2/1/1
f 17/25/16 23/26/21 19/27/22
f 6/28/6 24/29/23 25/30/24
f 15/31/14 26/32/25 27/33/26
f 5/34/5 27/33/26 24/29/23
f 28/35/27 29/36/28 26/32/25
f 30/37/29 28/38/27 31/39/30
f 6/28/6 32/40/31 4/41/4
f 16/42/15 33/43/32 14/44/13
f 34/45/33 35/46/34 20/47/18
f 4/41/4 36/48/35 16/42/15
f 37/49/36 38/50/37 39/51/38
f 40/52/39 41/53/40 37/54/36
f 12/12/12 42/55/41 10/10/10
f 20/47/18 41/53/40 40/52/39
f 39/51/38 43/56/42 44/57/43
f 45/58/44 46/59/45 34/45/33
f 43/56/42 47/60/46 44/57/43
f 37/61/36 42/62/41 17/63/16
f 17/64/16 40/65/39 37/66/36
f 47/67/46 3/68/3 21/69/19
f 9/20/9 40/65/39 7/70/7
f 47/60/46 48/71/47 45/72/44
f 21/69/19 44/73/43 47/67/46
f 28/38/27 14/13/13 31/39/30
f 25/74/24 41/53/40 35/46/34
f 41/53/40 27/75/26 37/54/36
f 38/50/37 27/76/26 26/77/25
f 38/50/37 29/78/28 43/56/42
f 46/59/45 25/74/24 35/46/34
f 46/59/45 36/79/35 32/80/31
f 48/71/47 36/81/35 45/72/44
f 29/78/28 48/71/47 43/56/42
f 3/82/3 34/83/33 2/18/1
f 10/84/10 39/85/38 44/73/43
f 33/43/32 31/86/30 14/44/13
f 49/87/48 28/35/27 26/32/25
f 31/86/30 29/36/28 30/88/29
f 2/1/1 22/24/20 1/2/2
f 7/7/7 18/17/17 8/8/8
f 10/10/10 21/22/19 11/11/11
f 14/13/13 49/89/48 15/14/14
f 16/15/15 15/14/14 5/5/5
f 17/16/16 19/90/22 18/17/17
f 2/18/1 34/83/33 20/19/18
f 1/21/2 11/11/11 21/22/19
f 22/24/20 8/8/8 13/91/49
f 9/9/9 8/8/8 22/24/20
f 17/25/16 42/55/41 23/26/21
f 6/28/6 5/34/5 24/29/23
f 15/31/14 49/87/48 26/32/25
f 5/34/5 15/31/14 27/33/26
f 28/35/27 30/88/29 29/36/28
f 6/28/6 25/30/24 32/40/31
f 16/42/15 36/48/35 33/43/32
f 34/45/33 46/59/45 35/46/34
f 4/41/4 32/40/31 36/48/35
f 12/12/12 23/26/21 42/55/41
f 20/47/18 35/46/34 41/53/40
f 39/51/38 38/50/37 43/56/42
f 43/56/42 48/71/47 47/60/46
f 37/61/36 39/85/38 42/62/41
f 17/64/16 7/70/7 40/65/39
f 47/67/46 45/92/44 3/68/3
f 9/20/9 20/19/18 40/65/39
f 21/69/19 10/84/10 44/73/43
f 28/38/27 49/89/48 14/13/13
f 25/74/24 24/93/23 41/53/40
f 41/53/40 24/93/23 27/75/26
f 38/50/37 37/49/36 27/76/26
f 38/50/37 26/77/25 29/78/28
f 46/59/45 32/80/31 25/74/24
f 46/59/45 45/58/44 36/79/35
f 48/71/47 33/94/32 36/81/35
f 29/78/28 33/94/32 48/71/47
f 3/82/3 45/95/44 34/83/33
f 10/84/10 42/62/41 39/85/38
f 31/86/30 33/43/32 29/36/28
