# Blender v2.93.5 OBJ File: 'qiqiobj.blend'
# www.blender.org
mtllib qiqi_muslo_izq.mtl
o 七七_mesh_七七.005
v -1.329886 5.906912 -0.483579
v -1.153250 5.899163 -0.727325
v -1.037257 5.295485 -0.699231
v -1.188540 5.295480 -0.456443
v -0.161208 5.724919 0.327537
v -0.405927 5.679208 0.507740
v -0.413508 5.295465 0.447846
v -0.186782 5.295468 0.296645
v -1.288368 5.925000 0.102519
v -1.376759 5.963891 -0.179268
v -1.233935 5.295475 -0.170757
v -1.156046 5.295471 0.105875
v -0.135013 5.699245 -0.601013
v -0.019459 5.714946 -0.298738
v -0.029809 5.295477 -0.247103
v -0.123967 5.295481 -0.527486
v -0.363584 5.295485 -0.757181
v -0.393401 5.632106 -0.815345
v -0.739406 5.295486 -0.814655
v -0.797866 5.605532 -0.854778
v -0.061607 5.295472 0.064843
v -0.036775 5.730274 0.050402
v -0.972401 5.295467 0.333876
v -1.092131 5.933680 0.378356
v -0.685333 5.295465 0.428804
v -0.713895 5.825944 0.488352
v -0.029809 5.295477 -0.247103
v -0.019459 5.714946 -0.298738
v -0.632255 4.055727 0.294012
v -0.452568 4.059746 0.305681
v -0.442643 4.332719 0.330958
v -0.638056 4.329115 0.318754
v -0.363584 5.295485 -0.757181
v -0.123967 5.295481 -0.527486
v -0.114180 4.802675 -0.449226
v -0.319127 4.796936 -0.676871
v -0.739406 5.295486 -0.814655
v -0.643101 4.794698 -0.759631
v -0.092856 4.813842 0.077994
v -0.061607 5.295472 0.064843
v -0.186782 5.295468 0.296645
v -0.227781 4.817250 0.259357
v -0.972401 5.295467 0.333876
v -1.156046 5.295471 0.105875
v -1.043445 4.813830 0.099261
v -0.876681 4.817688 0.297528
v -0.927571 4.796715 -0.666146
v -1.037257 5.295485 -0.699231
v -0.048103 4.808424 -0.187837
v -0.029809 5.295477 -0.247103
v -1.233935 5.295475 -0.170757
v -1.061721 4.802374 -0.440781
v -1.108754 4.807951 -0.170499
v -0.653377 4.819190 0.375912
v -0.685333 5.295465 0.428804
v -0.723543 3.918694 -0.602649
v -0.855920 3.952372 -0.403139
v -0.907198 4.228384 -0.420096
v -0.780103 4.193554 -0.616267
v -0.284611 4.049594 0.230940
v -0.265047 4.322280 0.239892
v -0.898564 4.011634 0.081752
v -0.940200 4.295313 0.076747
v -0.978543 4.263419 -0.159134
v -0.930683 3.985717 -0.147883
v -0.100897 3.937832 -0.317608
v -0.116470 4.227084 -0.362590
v -0.072570 4.266017 -0.118047
v -0.065193 3.985137 -0.082006
v -0.423175 4.819933 0.377874
v -0.413508 5.295465 0.447846
v -0.270815 4.195434 -0.582728
v -0.531087 4.183080 -0.676176
v -0.151778 4.023889 0.119162
v -0.134104 4.302209 0.104589
v -0.796057 4.318113 0.249062
v -0.065193 3.985137 -0.082006
v -1.188540 5.295480 -0.456443
v -0.048103 4.808424 -0.187837
v -0.029809 5.295477 -0.247103
v -0.244938 3.912931 -0.537938
v -0.495484 3.907310 -0.662567
v -0.758999 4.039788 0.237883
v -0.072570 4.266017 -0.118047
v -0.208237 6.929626 -0.868417
v -0.163850 6.670590 0.298569
v -0.069614 6.640051 0.010846
v -0.055840 6.646907 -0.395827
v -0.122867 6.747626 -0.762910
v -1.157815 6.682410 -0.857543
v -1.416923 6.724869 -0.568844
v -1.118935 6.963063 -0.833867
v -1.105260 6.769117 0.484465
v -0.756495 6.730579 0.650719
v -1.364208 6.773021 0.183050
v -1.464363 6.753421 -0.214650
v -0.753641 7.143731 -0.944142
v -0.762802 6.891915 -0.969468
v -0.114815 6.641954 -0.725877
v -0.422746 6.820044 -0.945663
v -0.403499 6.624535 -0.953885
v -0.776431 6.635159 -0.988973
v -0.431718 7.013769 -0.942409
v -0.381734 6.706190 0.544255
v -0.787992 6.226637 -0.994923
v -0.390189 6.214222 -0.950966
v -0.377231 5.607851 -0.884440
v -0.801721 5.580377 -0.937219
v 0.014438 5.715195 -0.310958
v -0.089811 5.675744 -0.638462
v -0.103406 6.209023 -0.681523
v -0.017939 6.214503 -0.344162
v -0.047109 6.225758 0.057052
v 0.009994 5.729459 0.056964
v -0.376407 6.254132 0.583837
v -0.380407 5.673232 0.561993
v -0.110073 5.723537 0.362081
v -0.134922 6.242239 0.359269
v -0.765292 6.263940 0.648407
v -0.772198 5.648288 0.588779
v -1.138232 6.278147 0.488439
v -1.157542 5.667778 0.434793
v -1.402023 5.737117 0.166510
v -1.416551 6.280974 0.197234
v -1.524547 6.271373 -0.193227
v -1.496297 5.938499 -0.166573
v -1.459638 5.832002 -0.006222
v -1.469167 6.259822 -0.573090
v -1.477382 5.824412 -0.344874
v -1.198199 6.244079 -0.864739
v -1.217307 5.621172 -0.819259
v -1.448465 5.731815 -0.547490
v -1.217307 5.621172 -0.819259
v -1.193502 5.646076 -0.748306
v -1.390718 5.735271 -0.520938
v -1.448465 5.731815 -0.547490
v -1.477382 5.824412 -0.344874
v -1.417536 5.826716 -0.338156
v -1.428071 5.943883 -0.171884
v -1.496297 5.938499 -0.166573
v -1.459638 5.832002 -0.006222
v -1.402997 5.840602 -0.029665
v -1.347415 5.745749 0.135018
v -1.402023 5.737117 0.166510
v -1.122322 5.677367 0.382271
v -1.157542 5.667778 0.434793
v -0.767195 5.655965 0.525128
v -0.772198 5.648288 0.588779
v -0.380407 5.673232 0.561993
v -0.405927 5.679208 0.507740
v -0.161208 5.724919 0.327537
v -0.110073 5.723537 0.362081
v -0.019459 5.714946 -0.298738
v 0.014438 5.715195 -0.310958
v 0.009994 5.729459 0.056964
v -0.036775 5.730274 0.050402
v -0.135013 5.699245 -0.601013
v -0.089811 5.675744 -0.638462
v -0.393401 5.632106 -0.815345
v -0.377231 5.607851 -0.884440
v -0.801721 5.580377 -0.937219
v -0.797866 5.605532 -0.854778
v -0.110073 5.723537 0.362081
v -0.161208 5.724919 0.327537
v -0.134922 6.242239 0.359269
v -0.110073 5.723537 0.362081
v -0.163850 6.670590 0.298569
v -0.797866 5.605532 -0.854778
v -1.153250 5.899163 -0.727325
v -1.193502 5.646076 -0.748306
v -1.329886 5.906912 -0.483579
v -1.390718 5.735271 -0.520938
v -1.376759 5.963891 -0.179268
v -1.428071 5.943883 -0.171884
v -1.417536 5.826716 -0.338156
v -1.402997 5.840602 -0.029665
v -1.288368 5.925000 0.102519
v -1.347415 5.745749 0.135018
v -1.092131 5.933680 0.378356
v -1.122322 5.677367 0.382271
v -0.713895 5.825944 0.488352
v -0.767195 5.655965 0.525128
v -0.405927 5.679208 0.507740
vt 0.788776 0.620475
vt 0.809513 0.620076
vt 0.805646 0.606920
vt 0.785946 0.606920
vt 0.673469 0.615978
vt 0.690158 0.614911
vt 0.693022 0.606920
vt 0.674656 0.606920
vt 0.749588 0.620664
vt 0.768448 0.621801
vt 0.767511 0.606920
vt 0.749120 0.606920
vt 0.873026 0.615472
vt 0.899258 0.615773
vt 0.896139 0.606920
vt 0.874700 0.606920
vt 0.852354 0.606920
vt 0.850520 0.613944
vt 0.827481 0.606920
vt 0.828015 0.613298
vt 0.657180 0.606920
vt 0.654021 0.616121
vt 0.729136 0.606920
vt 0.727820 0.620729
vt 0.709963 0.606920
vt 0.705367 0.618065
vt 0.634489 0.606920
vt 0.626850 0.615912
vt 0.456622 0.636713
vt 0.467363 0.636713
vt 0.470542 0.640987
vt 0.459467 0.640987
vt 0.353874 0.657675
vt 0.335798 0.657675
vt 0.339138 0.649712
vt 0.356037 0.649712
vt 0.373730 0.657675
vt 0.374739 0.649712
vt 0.501747 0.649712
vt 0.508226 0.657675
vt 0.494843 0.657675
vt 0.489538 0.649712
vt 0.453265 0.657675
vt 0.437281 0.657675
vt 0.437698 0.649712
vt 0.452082 0.649712
vt 0.391601 0.649712
vt 0.391066 0.657675
vt 0.514481 0.649712
vt 0.525250 0.657675
vt 0.422404 0.657675
vt 0.406603 0.649712
vt 0.422169 0.649712
vt 0.464886 0.649712
vt 0.468302 0.657675
vt 0.392898 0.636713
vt 0.408383 0.636713
vt 0.406640 0.640987
vt 0.392559 0.640987
vt 0.477787 0.636713
vt 0.481408 0.640987
vt 0.436362 0.636713
vt 0.436645 0.640987
vt 0.422602 0.640987
vt 0.423005 0.636713
vt 0.344325 0.636713
vt 0.344982 0.640987
vt 0.331053 0.640991
vt 0.334217 0.636713
vt 0.477282 0.649712
vt 0.481108 0.657675
vt 0.360453 0.640987
vt 0.377070 0.640987
vt 0.486985 0.636713
vt 0.491260 0.640987
vt 0.449601 0.640987
vt 0.498293 0.636713
vt 0.407376 0.657675
vt 0.324318 0.649678
vt 0.318077 0.657675
vt 0.360006 0.636713
vt 0.377473 0.636713
vt 0.447893 0.636713
vt 0.502939 0.640987
vt 0.780885 0.729060
vt 0.779463 0.724303
vt 0.806315 0.725003
vt 0.723100 0.722173
vt 0.695183 0.719122
vt 0.720713 0.719969
vt 0.751732 0.723439
vt 0.749105 0.719695
vt 0.777485 0.719549
vt 0.754725 0.727158
vt 0.735612 0.725905
vt 0.775668 0.712015
vt 0.747186 0.711887
vt 0.746948 0.700766
vt 0.775696 0.700282
vt 0.694534 0.701085
vt 0.720469 0.701411
vt 0.719149 0.711345
vt 0.693791 0.710727
vt 0.664612 0.710118
vt 0.665942 0.700662
vt 0.971899 0.710744
vt 0.969541 0.699355
vt 0.995749 0.699149
vt 0.995749 0.709680
vt 0.944027 0.711748
vt 0.942058 0.699962
vt 0.914843 0.712064
vt 0.914310 0.700696
vt 0.888959 0.701897
vt 0.887595 0.711635
vt 0.859959 0.710924
vt 0.861363 0.704066
vt 0.874995 0.702686
vt 0.832994 0.711494
vt 0.845764 0.702778
vt 0.806008 0.711917
vt 0.804462 0.701226
vt 0.829849 0.702139
vt 0.805978 0.719834
vt 0.833461 0.720084
vt 0.858530 0.720373
vt 0.887317 0.720947
vt 0.914674 0.721295
vt 0.943387 0.720959
vt 0.972581 0.720077
vt 0.995749 0.718293
vt 0.664491 0.718223
vt 0.642163 0.709919
vt 0.642163 0.700245
vt 0.642163 0.717919
vt 0.804462 0.701226
vt 0.806531 0.700029
vt 0.830264 0.701049
vt 0.829849 0.702139
vt 0.845764 0.702778
vt 0.845755 0.701693
vt 0.860942 0.702470
vt 0.861363 0.704066
vt 0.874995 0.702686
vt 0.873953 0.701619
vt 0.888230 0.700844
vt 0.888959 0.701897
vt 0.913520 0.699530
vt 0.914310 0.700696
vt 0.941305 0.698803
vt 0.942058 0.699962
vt 0.969541 0.699355
vt 0.969037 0.698242
vt 0.995749 0.698077
vt 0.995749 0.699149
vt 0.694498 0.700030
vt 0.694534 0.701085
vt 0.665942 0.700662
vt 0.666695 0.699556
vt 0.720085 0.700275
vt 0.720469 0.701411
vt 0.745637 0.699620
vt 0.746948 0.700766
vt 0.775696 0.700282
vt 0.775976 0.698696
vt 0.642163 0.700245
vt 0.642163 0.699243
vt 0.775976 0.698696
vt 0.812867 0.695413
vt 0.806531 0.700029
vt 0.837092 0.698133
vt 0.830264 0.701049
vt 0.860411 0.701319
vt 0.860942 0.702470
vt 0.845755 0.701693
vt 0.873953 0.701619
vt 0.881707 0.697677
vt 0.888230 0.700844
vt 0.909423 0.694947
vt 0.913520 0.699530
vt 0.942785 0.695364
vt 0.941305 0.698803
vt 0.969037 0.698242
vn -0.9226 -0.2174 -0.3187
vn -0.6997 -0.1761 -0.6924
vn -0.6255 -0.1771 -0.7598
vn -0.9146 -0.2296 -0.3329
vn 0.7821 -0.1037 0.6145
vn 0.2348 -0.1414 0.9617
vn 0.2668 -0.1375 0.9539
vn 0.7360 -0.0867 0.6715
vn -0.8924 -0.1859 0.4111
vn -0.9738 -0.2145 0.0753
vn -0.9720 -0.2281 0.0569
vn -0.8739 -0.2042 0.4410
vn 0.8203 -0.0896 -0.5648
vn 0.9868 -0.0542 -0.1527
vn 0.9927 -0.0407 -0.1135
vn 0.8453 -0.0718 -0.5295
vn 0.4433 -0.1111 -0.8895
vn 0.4080 -0.1349 -0.9030
vn -0.1058 -0.1305 -0.9858
vn -0.2574 -0.1821 -0.9490
vn 0.9557 -0.0371 0.2920
vn 0.9686 -0.0618 0.2408
vn -0.5630 -0.1644 0.8100
vn -0.6202 -0.1591 0.7681
vn -0.1989 -0.1270 0.9718
vn -0.2419 -0.1224 0.9626
vn 0.9868 -0.0542 -0.1528
vn -0.2399 0.0216 0.9706
vn 0.1826 -0.0048 0.9832
vn 0.2036 -0.0882 0.9751
vn -0.2288 -0.1026 0.9681
vn 0.4433 -0.1112 -0.8895
vn 0.8824 -0.0639 -0.4662
vn 0.5190 -0.0911 -0.8499
vn -0.0253 -0.1344 -0.9906
vn 0.9183 -0.0653 0.3906
vn 0.9557 -0.0371 0.2921
vn 0.6686 -0.1032 0.7364
vn -0.5629 -0.1644 0.8100
vn -0.8739 -0.2043 0.4410
vn -0.8730 -0.2087 0.4407
vn -0.5567 -0.1702 0.8131
vn -0.6135 -0.2132 -0.7604
vn 0.9975 -0.0479 -0.0520
vn -0.9720 -0.2280 0.0569
vn -0.9105 -0.2502 -0.3292
vn -0.9695 -0.2428 0.0341
vn -0.1765 -0.1334 0.9752
vn -0.5742 -0.1577 -0.8034
vn -0.9040 -0.1579 -0.3973
vn -0.9035 -0.2203 -0.3677
vn -0.5839 -0.1812 -0.7913
vn 0.5375 -0.0015 0.8433
vn 0.5951 -0.0510 0.8020
vn -0.9009 -0.1019 0.4219
vn -0.8920 -0.1620 0.4220
vn -0.9799 -0.1976 -0.0284
vn -0.9889 -0.1380 -0.0559
vn 0.9359 -0.0243 -0.3515
vn 0.9206 -0.0249 -0.3897
vn 0.9993 -0.0043 0.0358
vn 0.9947 0.0098 0.1028
vn 0.2679 -0.1250 0.9553
vn 0.2667 -0.1375 0.9539
vn 0.6079 -0.0680 -0.7911
vn 0.0678 -0.0897 -0.9937
vn 0.8088 0.0041 0.5881
vn 0.8609 -0.0207 0.5084
vn -0.5830 -0.1318 0.8017
vn 0.9946 0.0098 0.1029
vn 0.6655 -0.0488 -0.7448
vn 0.1060 -0.0835 -0.9909
vn -0.6039 -0.0268 0.7966
vn -0.1082 0.9260 -0.3617
vn -0.1361 0.0890 -0.9867
vn -0.5821 0.7176 -0.3825
vn 0.8408 0.2899 -0.4573
vn 0.7937 0.6055 0.0584
vn 0.8647 -0.0304 -0.5014
vn 0.2824 0.0053 -0.9593
vn 0.3782 0.0436 -0.9247
vn -0.1178 0.0550 -0.9915
vn 0.4221 0.7203 -0.5505
vn 0.7422 0.6682 -0.0507
vn -0.0971 -0.0358 -0.9946
vn 0.4074 -0.0526 -0.9118
vn 0.4039 -0.0790 -0.9114
vn -0.0794 -0.0871 -0.9930
vn 0.9905 0.0567 -0.1249
vn 0.8306 -0.0237 -0.5563
vn 0.8627 -0.0124 -0.5056
vn 0.9940 0.0628 -0.0900
vn 0.9809 0.0903 0.1721
vn 0.9812 0.0933 0.1689
vn 0.4433 0.0210 0.8961
vn 0.3506 -0.0584 0.9347
vn 0.8011 0.0175 0.5983
vn 0.8479 0.0842 0.5234
vn -0.1334 -0.0336 0.9905
vn -0.1639 -0.0882 0.9825
vn -0.5765 -0.0030 0.8171
vn -0.5702 -0.0542 0.8197
vn -0.8435 -0.0440 0.5353
vn -0.8708 0.0335 0.4905
vn -0.9981 0.0282 0.0541
vn -0.9972 -0.0628 0.0408
vn -0.9636 -0.0435 0.2638
vn -0.9056 0.0186 -0.4236
vn -0.9939 -0.0361 -0.1044
vn -0.5438 0.0019 -0.8392
vn -0.5301 -0.0521 -0.8464
vn -0.8851 -0.0416 -0.4636
vn -0.5396 0.1028 -0.8356
vn -0.7310 0.6298 -0.2625
vn -0.6755 0.7373 0.0017
vn -0.6039 0.7330 0.3131
vn -0.3936 0.7154 0.5772
vn -0.0437 0.6223 0.7815
vn 0.4287 0.6847 0.5895
vn 0.6965 0.3382 0.6329
vn 0.7378 0.6668 0.1050
vn 0.8011 0.0174 0.5983
vn 0.6414 0.6807 0.3538
vn -0.0153 -0.9436 0.3306
vn -0.0191 -0.9429 0.3324
vn -0.1124 -0.9224 0.3694
vn -0.1013 -0.9253 0.3654
vn -0.0077 -0.8714 0.4906
vn -0.0334 -0.8676 0.4962
vn 0.0624 -0.9979 -0.0162
vn 0.0609 -0.9977 -0.0285
vn -0.0843 -0.8621 -0.4996
vn -0.0698 -0.8539 -0.5157
vn -0.0564 -0.9307 -0.3614
vn -0.0615 -0.9342 -0.3514
vn -0.0167 -0.9810 -0.1935
vn -0.0183 -0.9822 -0.1867
vn 0.0271 -0.9925 -0.1192
vn 0.0295 -0.9926 -0.1176
vn 0.0661 -0.9880 -0.1394
vn 0.0653 -0.9883 -0.1377
vn 0.0336 -0.9955 -0.0884
vn 0.0297 -0.9961 -0.0834
vn 0.0204 -0.9990 0.0406
vn 0.0013 -0.9986 0.0521
vn -0.0173 -0.9998 0.0101
vn -0.0182 -0.9998 0.0071
vn -0.2116 -0.9283 0.3058
vn -0.1989 -0.9253 0.3230
vn -0.0218 -0.9445 0.3277
vn -0.0098 -0.9449 0.3271
vn 0.0087 -0.9555 0.2950
vn 0.0071 -0.9571 0.2897
vn 0.2482 -0.1198 0.9613
vn 0.5626 -0.2049 0.8009
vn 0.4819 -0.1488 0.8635
vn 0.8067 -0.4123 0.4234
vn 0.7949 -0.3279 0.5105
vn 0.4524 -0.8794 -0.1486
vn 0.4364 -0.8771 -0.2003
vn 0.8713 -0.3754 0.3160
vn 0.7528 -0.5189 -0.4050
vn 0.7733 -0.3474 -0.5304
vn 0.7164 -0.3466 -0.6054
vn 0.6048 -0.1177 -0.7876
vn 0.5844 -0.1236 -0.8020
vn 0.0903 -0.2390 -0.9668
vn 0.1418 -0.2009 -0.9693
vn -0.0344 -0.2024 -0.9787
vn 0.0297 -0.9904 0.1354
vn -0.0101 -0.9892 0.1459
vn -0.0433 -0.9922 0.1166
vn 0.0206 -0.9895 0.1429
vn 0.0030 -0.9957 0.0925
vn -0.0023 -0.9914 0.1308
vn -0.0301 -0.9931 0.1135
vn 0.0000 0.0000 0.9352
vn 0.2046 -0.6671 0.7164
vn -0.0490 -0.9871 0.1525
vn -0.0085 -0.9968 0.0790
vn 0.0439 -0.9983 0.0389
vn 0.1372 -0.9895 0.0464
vn 0.1178 -0.9895 0.0839
usemtl skin.001
s 1
f 1/1/1 2/2/2 3/3/3
f 3/3/3 4/4/4 1/1/1
f 5/5/5 6/6/6 7/7/7
f 7/7/7 8/8/8 5/5/5
f 9/9/9 10/10/10 11/11/11
f 11/11/11 12/12/12 9/9/9
f 13/13/13 14/14/14 15/15/15
f 15/15/15 16/16/16 13/13/13
f 16/16/16 17/17/17 18/18/18
f 18/18/18 13/13/13 16/16/16
f 17/17/17 19/19/19 20/20/20
f 20/20/20 18/18/18 17/17/17
f 8/8/8 21/21/21 22/22/22
f 22/22/22 5/5/5 8/8/8
f 12/12/12 23/23/23 24/24/24
f 24/24/24 9/9/9 12/12/12
f 25/25/25 7/7/7 6/6/6
f 6/6/6 26/26/26 25/25/25
f 4/4/4 11/11/11 10/10/10
f 10/10/10 1/1/1 4/4/4
f 21/21/21 27/27/15 28/28/27
f 28/28/27 22/22/22 21/21/21
f 19/19/19 3/3/3 2/2/2
f 2/2/2 20/20/20 19/19/19
f 23/23/23 25/25/25 26/26/26
f 26/26/26 24/24/24 23/23/23
usemtl shoe.001
s 2
f 29/29/28 30/30/29 31/31/30
f 31/31/30 32/32/31 29/29/28
f 33/33/32 34/34/16 35/35/33
f 35/35/33 36/36/34 33/33/32
f 37/37/19 33/33/32 36/36/34
f 36/36/34 38/38/35 37/37/19
f 39/39/36 40/40/37 41/41/8
f 41/41/8 42/42/38 39/39/36
f 43/43/39 44/44/40 45/45/41
f 45/45/41 46/46/42 43/43/39
f 37/37/19 38/38/35 47/47/43
f 47/47/43 48/48/3 37/37/19
f 49/49/44 50/50/15 40/40/37
f 40/40/37 39/39/36 49/49/44
f 51/51/45 52/52/46 53/53/47
f 43/43/39 46/46/42 54/54/48
f 54/54/48 55/55/25 43/43/39
f 56/56/49 57/57/50 58/58/51
f 58/58/51 59/59/52 56/56/49
f 60/60/53 61/61/54 31/31/30
f 31/31/30 30/30/29 60/60/53
f 62/62/55 63/63/56 64/64/57
f 64/64/57 65/65/58 62/62/55
f 66/66/59 67/67/60 68/68/61
f 68/68/61 69/69/62 66/66/59
f 54/54/48 70/70/63 71/71/64
f 71/71/64 55/55/25 54/54/48
f 36/36/34 35/35/33 67/67/60
f 67/67/60 72/72/65 36/36/34
f 38/38/35 36/36/34 72/72/65
f 72/72/65 73/73/66 38/38/35
f 74/74/67 75/75/68 61/61/54
f 61/61/54 60/60/53 74/74/67
f 46/46/42 45/45/41 63/63/56
f 63/63/56 76/76/69 46/46/42
f 47/47/43 38/38/35 73/73/66
f 73/73/66 59/59/52 47/47/43
f 77/77/70 75/75/68 74/74/67
f 53/53/47 52/52/46 58/58/51
f 58/58/51 64/64/57 53/53/47
f 54/54/48 46/46/42 76/76/69
f 76/76/69 32/32/31 54/54/48
f 47/47/43 52/52/46 78/78/4
f 78/78/4 48/48/3 47/47/43
f 70/70/63 42/42/38 41/41/8
f 41/41/8 71/71/64 70/70/63
f 53/53/47 45/45/41 44/44/40
f 44/44/40 51/51/45 53/53/47
f 79/79/44 35/35/33 34/34/16
f 34/34/16 80/80/15 79/79/44
f 32/32/31 31/31/30 70/70/63
f 70/70/63 54/54/48 32/32/31
f 59/59/52 58/58/51 52/52/46
f 52/52/46 47/47/43 59/59/52
f 31/31/30 61/61/54 42/42/38
f 42/42/38 70/70/63 31/31/30
f 64/64/57 63/63/56 45/45/41
f 45/45/41 53/53/47 64/64/57
f 68/68/61 67/67/60 35/35/33
f 35/35/33 79/79/44 68/68/61
f 72/72/65 67/67/60 66/66/59
f 66/66/59 81/81/71 72/72/65
f 73/73/66 72/72/65 81/81/71
f 81/81/71 82/82/72 73/73/66
f 61/61/54 75/75/68 39/39/36
f 39/39/36 42/42/38 61/61/54
f 76/76/69 63/63/56 62/62/55
f 62/62/55 83/83/73 76/76/69
f 59/59/52 73/73/66 82/82/72
f 82/82/72 56/56/49 59/59/52
f 39/39/36 84/84/61 49/49/44
f 64/64/57 58/58/51 57/57/50
f 57/57/50 65/65/58 64/64/57
f 32/32/31 76/76/69 83/83/73
f 83/83/73 29/29/28 32/32/31
f 75/75/68 84/84/61 39/39/36
f 77/77/70 84/84/61 75/75/68
f 51/51/45 78/78/4 52/52/46
s 3
f 97/85/74 98/86/75 92/87/76
f 89/88/77 88/89/78 99/90/79
f 100/91/80 101/92/81 102/93/82
f 102/93/82 98/86/75 100/91/80
f 98/86/75 97/85/74 103/94/83
f 103/94/83 100/91/80 98/86/75
f 103/94/83 85/95/84 100/91/80
f 100/91/80 85/95/84 89/88/77
f 105/96/85 106/97/86 107/98/87
f 107/98/87 108/99/88 105/96/85
f 109/100/89 110/101/90 111/102/91
f 111/102/91 112/103/92 109/100/89
f 109/100/89 112/103/92 113/104/93
f 113/104/93 114/105/94 109/100/89
f 115/106/95 116/107/96 117/108/97
f 117/108/97 118/109/98 115/106/95
f 119/110/99 120/111/100 116/107/96
f 116/107/96 115/106/95 119/110/99
f 121/112/101 122/113/102 120/111/100
f 120/111/100 119/110/99 121/112/101
f 123/114/103 122/113/102 121/112/101
f 121/112/101 124/115/104 123/114/103
f 125/116/105 126/117/106 127/118/107
f 127/118/107 124/115/104 125/116/105
f 128/119/108 129/120/109 126/117/106
f 126/117/106 125/116/105 128/119/108
f 130/121/110 131/122/111 132/123/112
f 132/123/112 128/119/108 130/121/110
f 101/92/81 106/97/86 105/96/85
f 105/96/85 102/93/82 101/92/81
f 90/124/113 130/121/110 128/119/108
f 128/119/108 91/125/114 90/124/113
f 91/125/114 128/119/108 125/116/105
f 125/116/105 96/126/115 91/125/114
f 96/126/115 125/116/105 124/115/104
f 124/115/104 95/127/116 96/126/115
f 95/127/116 124/115/104 121/112/101
f 121/112/101 93/128/117 95/127/116
f 93/128/117 121/112/101 119/110/99
f 119/110/99 94/129/118 93/128/117
f 94/129/118 119/110/99 115/106/95
f 115/106/95 104/130/119 94/129/118
f 104/130/119 115/106/95 118/109/98
f 118/109/98 86/131/120 104/130/119
f 112/103/92 88/89/78 87/132/121
f 87/132/121 113/104/93 112/103/92
f 88/89/78 112/103/92 111/102/91
f 111/102/91 99/90/79 88/89/78
f 99/90/79 101/92/81 100/91/80
f 100/91/80 89/88/77 99/90/79
f 106/97/86 101/92/81 99/90/79
f 99/90/79 111/102/91 106/97/86
f 107/98/87 106/97/86 111/102/91
f 111/102/91 110/101/90 107/98/87
f 102/93/82 90/124/113 92/87/76
f 92/87/76 98/86/75 102/93/82
f 130/121/110 90/124/113 102/93/82
f 102/93/82 105/96/85 130/121/110
f 131/122/111 130/121/110 105/96/85
f 105/96/85 108/99/88 131/122/111
f 165/133/98 166/134/122 114/105/94
f 114/105/94 113/104/93 165/133/98
f 167/135/123 165/133/98 113/104/93
f 113/104/93 87/132/121 167/135/123
f 128/119/108 132/123/112 129/120/109
f 124/115/104 127/118/107 123/114/103
f 89/88/77 85/95/84 103/94/83
f 97/85/74 92/87/76 91/125/114
f 91/125/114 92/87/76 90/124/113
f 103/94/83 97/85/74 88/89/78
f 97/85/74 91/125/114 88/89/78
f 91/125/114 96/126/115 88/89/78
f 96/126/115 95/127/116 87/132/121
f 88/89/78 96/126/115 87/132/121
f 95/127/116 93/128/117 87/132/121
f 93/128/117 94/129/118 104/130/119
f 167/135/123 93/128/117 104/130/119
f 167/135/123 87/132/121 93/128/117
f 88/89/78 89/88/77 103/94/83
s 4
f 133/136/124 134/137/125 135/138/126
f 135/138/126 136/139/127 133/136/124
f 137/140/128 138/141/129 139/142/130
f 139/142/130 140/143/131 137/140/128
f 141/144/132 142/145/133 143/146/134
f 143/146/134 144/147/135 141/144/132
f 144/147/135 143/146/134 145/148/136
f 145/148/136 146/149/137 144/147/135
f 146/149/137 145/148/136 147/150/138
f 147/150/138 148/151/139 146/149/137
f 149/152/140 150/153/141 151/154/142
f 151/154/142 152/155/143 149/152/140
f 153/156/144 154/157/145 155/158/146
f 155/158/146 156/159/147 153/156/144
f 154/157/145 153/156/144 157/160/148
f 157/160/148 158/161/149 154/157/145
f 148/151/139 147/150/138 150/153/141
f 150/153/141 149/152/140 148/151/139
f 159/162/150 160/163/151 158/161/149
f 158/161/149 157/160/148 159/162/150
f 161/164/152 160/163/151 159/162/150
f 159/162/150 162/165/153 161/164/152
f 134/137/125 133/136/124 161/164/152
f 161/164/152 162/165/153 134/137/125
f 163/166/143 164/167/142 156/159/147
f 156/159/147 155/158/146 163/166/143
f 136/139/127 135/138/126 138/141/129
f 138/141/129 137/140/128 136/139/127
f 140/143/131 139/142/130 142/145/133
f 142/145/133 141/144/132 140/143/131
s 5
f 168/168/154 169/169/155 170/170/156
f 169/169/155 171/171/157 172/172/158
f 172/172/158 170/170/156 169/169/155
f 171/171/157 173/173/159 174/174/160
f 174/174/160 175/175/161 171/171/157
f 176/176/162 177/177/163 178/178/164
f 177/177/163 179/179/165 180/180/166
f 180/180/166 178/178/164 177/177/163
f 179/179/165 181/181/167 182/182/168
f 182/182/168 180/180/166 179/179/165
f 181/181/167 183/183/169 182/182/168
f 171/171/157 175/175/161 172/172/158
f 173/173/159 177/177/163 176/176/162
f 176/176/162 174/174/160 173/173/159
s 6
f 65/65/170 66/66/171 60/60/172
f 56/56/173 82/82/174 57/57/175
f 82/82/174 81/81/176 57/57/175
f 66/66/171 69/69/177 77/77/178
f 77/77/178 74/74/179 66/66/171
f 74/74/179 60/60/172 66/66/171
f 60/60/172 30/30/180 29/29/181
f 29/29/181 83/83/182 65/65/170
f 83/83/182 62/62/183 65/65/170
f 65/65/170 57/57/175 66/66/171
f 29/29/181 65/65/170 60/60/172
f 81/81/176 66/66/171 57/57/175
