# Blender v2.93.5 OBJ File: ''
# www.blender.org
mtllib qiqi_muslo_der.mtl
o 七七_mesh_七七.005
v -0.001413 1.618211 -0.772040
v -0.591204 1.145069 0.470671
v 0.363881 1.437543 -0.661765
v 0.574831 0.381392 -0.311477
v 0.433486 -0.230041 -0.284341
v 0.282202 -0.230035 -0.527129
v 0.398196 0.373643 -0.555223
v -0.593846 0.199398 0.499639
v -0.568272 -0.230053 0.468747
v -0.341546 -0.230055 0.619948
v -0.349127 0.153687 0.679842
v 0.533314 0.399480 0.274621
v 0.400992 -0.230049 0.277977
v 0.478881 -0.230045 0.001345
v 0.621705 0.438371 -0.007166
v -0.620041 0.173725 -0.428911
v -0.631087 -0.230038 -0.355384
v -0.725245 -0.230043 -0.075001
v -0.735595 0.189425 -0.126636
v -0.391470 -0.230035 -0.585079
v -0.361653 0.106586 -0.643243
v -0.015648 -0.230034 -0.642553
v 0.042812 0.080012 -0.682676
v -0.693447 -0.230048 0.236945
v -0.718279 0.204754 0.222504
v 0.217347 -0.230054 0.505978
v 0.337077 0.408160 0.550458
v -0.069721 -0.230055 0.600906
v -0.041159 0.300424 0.660454
v -0.725245 -0.230043 -0.075001
v -0.735595 0.189425 -0.126636
v -0.302486 -1.465775 0.477783
v -0.122835 -1.469793 0.466114
v -0.117004 -1.196407 0.490851
v -0.312411 -1.192802 0.503058
v -0.631087 -0.230038 -0.355384
v -0.391470 -0.230035 -0.585079
v -0.435927 -0.728584 -0.504769
v -0.640875 -0.722845 -0.277124
v -0.510116 -1.612589 -0.365836
v -0.484239 -1.330086 -0.410626
v -0.223967 -1.342440 -0.504074
v -0.259570 -1.618210 -0.490465
v -0.568272 -0.230053 0.468747
v -0.693447 -0.230048 0.236945
v -0.662198 -0.711679 0.250096
v -0.527273 -0.708271 0.431459
v 0.400992 -0.230049 0.277977
v 0.217347 -0.230054 0.505978
v 0.121640 -0.707832 0.469630
v 0.288391 -0.711690 0.271363
v 0.282202 -0.230035 -0.527129
v 0.172517 -0.728805 -0.494044
v -0.111953 -0.730822 -0.587529
v -0.015648 -0.230034 -0.642553
v -0.689861 -1.540383 0.090096
v -0.620950 -1.223311 0.276691
v -0.682484 -1.259502 0.054055
v 0.098869 -1.573148 -0.231037
v 0.151699 -1.297108 -0.247996
v 0.223057 -1.262104 0.012968
v 0.173196 -1.539803 0.024219
v -0.069721 -0.230055 0.600906
v -0.101677 -0.706330 0.548014
v 0.433486 -0.230041 -0.284341
v 0.306666 -0.723146 -0.268679
v -0.490008 -1.203241 0.411994
v -0.470443 -1.475927 0.403042
v 0.184864 -1.230218 0.248849
v 0.141893 -1.513886 0.253854
v -0.638584 -1.298436 -0.190488
v -0.682484 -1.259502 0.054055
v -0.706951 -0.717096 -0.015735
v -0.331879 -0.705588 0.549976
v -0.341546 -0.230055 0.619948
v 0.040911 -1.207414 0.421163
v 0.024891 -1.331946 -0.444166
v -0.725245 -0.230043 -0.075001
v -0.706951 -0.717096 -0.015735
v 0.478881 -0.230045 0.001345
v -0.032100 -1.606826 -0.430547
v 0.353700 -0.717569 0.001603
v -0.725245 -0.230043 -0.075001
v -0.654157 -1.587688 -0.145506
v -0.689861 -1.540383 0.090096
v -0.603276 -1.501631 0.291264
v 0.003403 -1.485733 0.409985
v 0.007748 1.366395 -0.797366
v -0.632187 1.222106 -0.590808
v -0.640239 1.116434 -0.553775
v -0.699214 1.121387 -0.223717
v -0.332308 1.294524 -0.773561
v 0.021377 1.109639 -0.816871
v -0.351555 1.099015 -0.781783
v -0.323336 1.488249 -0.770307
v -0.546817 1.404106 -0.696315
v 0.032938 0.701117 -0.822821
v 0.046667 0.054857 -0.765117
v -0.377823 0.082331 -0.712338
v -0.364865 0.688702 -0.778864
v -0.769492 0.189675 -0.138856
v -0.737116 0.688982 -0.172060
v -0.651648 0.683503 -0.509421
v -0.665244 0.150224 -0.466360
v -0.765049 0.203938 0.229066
v -0.707945 0.700238 0.229154
v -0.378647 0.728611 0.755939
v -0.620132 0.716719 0.531371
v -0.644982 0.198017 0.534183
v -0.374647 0.147712 0.734095
v 0.010238 0.738419 0.820509
v 0.017144 0.122767 0.760881
v 0.383178 0.752627 0.660541
v 0.402488 0.142258 0.606895
v 0.646968 0.211596 0.338612
v 0.661497 0.755454 0.369336
v 0.769493 0.745852 -0.021125
v 0.704584 0.306482 0.165880
v 0.741243 0.412979 0.005529
v 0.714113 0.734302 -0.400988
v 0.722327 0.298892 -0.172772
v 0.443145 0.718559 -0.692637
v 0.693411 0.206295 -0.375388
v 0.462252 0.095652 -0.647157
v 0.402761 1.156890 -0.685441
v 0.661869 1.199349 -0.396742
v 0.709309 1.227901 -0.042548
v 0.609154 1.247501 0.355152
v 0.350206 1.243596 0.656567
v 0.001441 1.205058 0.822821
v -0.373320 1.180670 0.716357
v -0.591204 1.145069 0.470671
v -0.685440 1.114531 0.182948
v -0.620132 0.716719 0.531371
v -0.644982 0.198017 0.534183
v 0.462252 0.095652 -0.647157
v 0.693411 0.206295 -0.375388
v 0.635664 0.209751 -0.348836
v 0.438447 0.120556 -0.576204
v 0.722327 0.298892 -0.172772
v 0.741243 0.412979 0.005529
v 0.673017 0.418363 0.000218
v 0.662482 0.301196 -0.166054
v 0.704584 0.306482 0.165880
v 0.646968 0.211596 0.338612
v 0.592360 0.220229 0.307120
v 0.647943 0.315082 0.142437
v 0.402488 0.142258 0.606895
v 0.367267 0.151847 0.554373
v 0.017144 0.122767 0.760881
v 0.012141 0.130444 0.697230
v -0.374647 0.147712 0.734095
v -0.644982 0.198017 0.534183
v -0.593846 0.199398 0.499639
v -0.349127 0.153687 0.679842
v -0.735595 0.189425 -0.126636
v -0.718279 0.204754 0.222504
v -0.765049 0.203938 0.229066
v -0.769492 0.189675 -0.138856
v -0.665244 0.150224 -0.466360
v -0.620041 0.173725 -0.428911
v -0.361653 0.106586 -0.643243
v -0.377823 0.082331 -0.712338
v 0.046667 0.054857 -0.765117
v 0.042812 0.080012 -0.682676
v -0.644982 0.198017 0.534183
v -0.593846 0.199398 0.499639
v 0.042812 0.080012 -0.682676
v 0.438447 0.120556 -0.576204
v 0.398196 0.373643 -0.555223
v 0.635664 0.209751 -0.348836
v 0.574831 0.381392 -0.311477
v 0.662482 0.301196 -0.166054
v 0.673017 0.418363 0.000218
v 0.621705 0.438371 -0.007166
v 0.647943 0.315082 0.142437
v 0.592360 0.220229 0.307120
v 0.533314 0.399480 0.274621
v 0.367267 0.151847 0.554373
v 0.337077 0.408160 0.550458
v 0.012141 0.130444 0.697230
v -0.041159 0.300424 0.660454
v -0.349127 0.153687 0.679842
vt 0.780885 0.729060
vt 0.000000 0.000000
vt 0.806315 0.725003
vt 0.788776 0.620475
vt 0.785946 0.606920
vt 0.805646 0.606920
vt 0.809513 0.620076
vt 0.673469 0.615978
vt 0.674656 0.606920
vt 0.693022 0.606920
vt 0.690158 0.614911
vt 0.749588 0.620664
vt 0.749120 0.606920
vt 0.767511 0.606920
vt 0.768448 0.621801
vt 0.873026 0.615472
vt 0.874700 0.606920
vt 0.896139 0.606920
vt 0.899258 0.615773
vt 0.852354 0.606920
vt 0.850520 0.613944
vt 0.827481 0.606920
vt 0.828015 0.613298
vt 0.657180 0.606920
vt 0.654021 0.616121
vt 0.729136 0.606920
vt 0.727820 0.620729
vt 0.709963 0.606920
vt 0.705367 0.618065
vt 0.634489 0.606920
vt 0.626850 0.615912
vt 0.711273 0.579031
vt 0.725250 0.579031
vt 0.720867 0.584166
vt 0.706833 0.584166
vt 0.874700 0.606566
vt 0.852354 0.606566
vt 0.849565 0.594729
vt 0.870775 0.594729
vt 0.840661 0.579031
vt 0.842803 0.584166
vt 0.822731 0.584166
vt 0.821383 0.579031
vt 0.674656 0.606566
vt 0.657180 0.606566
vt 0.666033 0.594729
vt 0.681829 0.594729
vt 0.749120 0.606566
vt 0.729136 0.606566
vt 0.729870 0.594729
vt 0.748000 0.594729
vt 0.805646 0.606566
vt 0.805323 0.594729
vt 0.826265 0.594729
vt 0.827481 0.606566
vt 0.672250 0.579031
vt 0.680476 0.584166
vt 0.665460 0.584166
vt 0.786469 0.579031
vt 0.787026 0.584166
vt 0.767222 0.584166
vt 0.767675 0.579031
vt 0.709963 0.606566
vt 0.713575 0.594729
vt 0.785946 0.606566
vt 0.786728 0.594729
vt 0.693121 0.584166
vt 0.699620 0.579031
vt 0.749545 0.584166
vt 0.749895 0.579031
vt 0.862108 0.584166
vt 0.882179 0.584166
vt 0.888642 0.594729
vt 0.697660 0.594729
vt 0.693022 0.606566
vt 0.733260 0.584166
vt 0.804110 0.584166
vt 0.634489 0.606566
vt 0.651155 0.594729
vt 0.767511 0.606566
vt 0.803058 0.579031
vt 0.767399 0.594729
vt 0.896139 0.606566
vt 0.859058 0.579031
vt 0.879340 0.579031
vt 0.686536 0.579031
vt 0.735619 0.579031
vt 0.779463 0.724303
vt 0.723100 0.722173
vt 0.720713 0.719969
vt 0.695183 0.719122
vt 0.751732 0.723439
vt 0.777485 0.719549
vt 0.749105 0.719695
vt 0.754725 0.727158
vt 0.735612 0.725905
vt 0.775668 0.712015
vt 0.775696 0.700282
vt 0.746948 0.700766
vt 0.747186 0.711887
vt 0.694534 0.701085
vt 0.693791 0.710727
vt 0.719149 0.711345
vt 0.720469 0.701411
vt 0.665942 0.700662
vt 0.664612 0.710118
vt 0.971899 0.710744
vt 0.995749 0.709680
vt 0.995749 0.699149
vt 0.969541 0.699355
vt 0.944027 0.711748
vt 0.942058 0.699962
vt 0.914843 0.712064
vt 0.914310 0.700696
vt 0.888959 0.701897
vt 0.887595 0.711635
vt 0.859959 0.710924
vt 0.874995 0.702686
vt 0.861363 0.704066
vt 0.832994 0.711494
vt 0.845764 0.702778
vt 0.806008 0.711917
vt 0.829849 0.702139
vt 0.804462 0.701226
vt 0.805978 0.719834
vt 0.833461 0.720084
vt 0.858530 0.720373
vt 0.887317 0.720947
vt 0.914674 0.721295
vt 0.943387 0.720959
vt 0.972581 0.720077
vt 0.995749 0.718293
vt 0.664491 0.718223
vt 0.642163 0.709919
vt 0.642163 0.700245
vt 0.642163 0.717919
vt 0.804462 0.701226
vt 0.829849 0.702139
vt 0.830264 0.701049
vt 0.806531 0.700029
vt 0.845764 0.702778
vt 0.861363 0.704066
vt 0.860942 0.702470
vt 0.845755 0.701693
vt 0.874995 0.702686
vt 0.888959 0.701897
vt 0.888230 0.700844
vt 0.873953 0.701619
vt 0.914310 0.700696
vt 0.913520 0.699530
vt 0.942058 0.699962
vt 0.941305 0.698803
vt 0.969541 0.699355
vt 0.995749 0.699149
vt 0.995749 0.698077
vt 0.969037 0.698242
vt 0.694498 0.700030
vt 0.666695 0.699556
vt 0.665942 0.700662
vt 0.694534 0.701085
vt 0.720469 0.701411
vt 0.720085 0.700275
vt 0.745637 0.699620
vt 0.746948 0.700766
vt 0.775696 0.700282
vt 0.775976 0.698696
vt 0.642163 0.700245
vt 0.642163 0.699243
vt 0.775976 0.698696
vt 0.806531 0.700029
vt 0.812867 0.695413
vt 0.830264 0.701049
vt 0.837092 0.698133
vt 0.845755 0.701693
vt 0.860942 0.702470
vt 0.860411 0.701319
vt 0.873953 0.701619
vt 0.888230 0.700844
vt 0.881707 0.697677
vt 0.913520 0.699530
vt 0.909423 0.694947
vt 0.941305 0.698803
vt 0.942785 0.695364
vt 0.969037 0.698242
vn 0.3245 0.6651 -0.6726
vn 0.0667 0.5797 0.8121
vn 0.8338 0.5298 -0.1551
vn 0.9219 -0.2090 -0.3263
vn 0.9126 -0.2333 -0.3357
vn 0.6289 -0.1926 -0.7532
vn 0.7038 -0.1675 -0.6904
vn -0.7749 -0.0881 0.6260
vn -0.7326 -0.0914 0.6745
vn -0.2546 -0.1326 0.9579
vn -0.2184 -0.1556 0.9634
vn 0.8882 -0.1934 0.4167
vn 0.8714 -0.1969 0.4494
vn 0.9717 -0.2291 0.0579
vn 0.9750 -0.2073 0.0797
vn -0.8265 -0.0755 -0.5579
vn -0.8494 -0.0613 -0.5242
vn -0.9931 -0.0444 -0.1082
vn -0.9857 -0.0445 -0.1628
vn -0.4456 -0.1060 -0.8889
vn -0.4059 -0.1093 -0.9074
vn 0.1149 -0.1478 -0.9823
vn 0.2162 -0.1366 -0.9667
vn -0.9569 -0.0580 0.2847
vn -0.9704 -0.0361 0.2387
vn 0.5672 -0.1641 0.8070
vn 0.6252 -0.1704 0.7616
vn 0.1905 -0.1279 0.9733
vn 0.2369 -0.1286 0.9630
vn -0.1356 -0.6281 0.7662
vn 0.1519 -0.6488 0.7456
vn 0.2272 -0.1135 0.9672
vn -0.2062 -0.1054 0.9728
vn -0.5196 -0.0916 -0.8495
vn -0.8860 -0.0671 -0.4587
vn -0.4914 -0.7134 -0.4996
vn -0.6036 -0.0865 -0.7926
vn -0.0616 -0.1100 -0.9920
vn -0.0864 -0.6950 -0.7138
vn -0.9569 -0.0581 0.2846
vn -0.9242 -0.0499 0.3787
vn -0.6699 -0.0920 0.7367
vn 0.8713 -0.1969 0.4494
vn 0.5673 -0.1641 0.8070
vn 0.5611 -0.1630 0.8115
vn 0.8697 -0.2055 0.4488
vn 0.6138 -0.2015 -0.7633
vn 0.0422 -0.1317 -0.9904
vn -0.5627 0.0033 0.8266
vn -0.8645 -0.0325 0.5015
vn -0.9993 -0.0043 0.0358
vn 0.6388 -0.7450 -0.1921
vn 0.9011 -0.2277 -0.3689
vn 0.9765 -0.2145 -0.0221
vn 0.6918 -0.7206 0.0463
vn 0.1727 -0.1166 0.9781
vn 0.9105 -0.2445 -0.3335
vn -0.5851 -0.0746 0.8075
vn -0.3486 -0.6362 0.6882
vn 0.8872 -0.1747 0.4271
vn 0.6071 -0.7019 0.3725
vn -0.9259 -0.0307 -0.3766
vn -0.9994 -0.0044 0.0358
vn -0.9982 -0.0462 -0.0393
vn -0.2581 -0.1138 0.9594
vn -0.2545 -0.1326 0.9579
vn 0.5896 -0.1422 0.7951
vn 0.5868 -0.1934 -0.7863
vn 0.4175 -0.7318 -0.5387
vn 0.9710 -0.2369 0.0324
vn -0.7003 -0.6950 -0.1631
vn -0.1947 -0.8269 0.5275
vn -0.5668 -0.6333 0.5270
vn 0.3629 -0.6843 0.6324
vn 0.1362 0.0890 -0.9867
vn -0.6396 -0.2126 -0.7388
vn -0.8647 -0.0304 -0.5014
vn -0.9933 0.0541 -0.1024
vn -0.2824 0.0053 -0.9593
vn 0.1178 0.0550 -0.9915
vn -0.3782 0.0436 -0.9247
vn -0.1621 0.0387 -0.9860
vn -0.4150 -0.1864 -0.8905
vn 0.0968 -0.0362 -0.9947
vn 0.0792 -0.0871 -0.9931
vn -0.4039 -0.0790 -0.9114
vn -0.4074 -0.0526 -0.9117
vn -0.9905 0.0567 -0.1249
vn -0.9939 0.0628 -0.0904
vn -0.8628 -0.0123 -0.5054
vn -0.8306 -0.0237 -0.5563
vn -0.9812 0.0933 0.1690
vn -0.9809 0.0903 0.1721
vn -0.4434 0.0210 0.8961
vn -0.8479 0.0842 0.5234
vn -0.8011 0.0175 0.5983
vn -0.3506 -0.0584 0.9347
vn 0.1334 -0.0336 0.9905
vn 0.1642 -0.0882 0.9825
vn 0.5765 -0.0030 0.8171
vn 0.5700 -0.0542 0.8198
vn 0.8436 -0.0440 0.5352
vn 0.8708 0.0335 0.4905
vn 0.9981 0.0282 0.0545
vn 0.9636 -0.0435 0.2638
vn 0.9972 -0.0628 0.0408
vn 0.9056 0.0186 -0.4236
vn 0.9938 -0.0362 -0.1048
vn 0.5438 0.0019 -0.8392
vn 0.8851 -0.0416 -0.4636
vn 0.5300 -0.0521 -0.8464
vn 0.6430 0.3890 -0.6597
vn 0.6177 0.7026 -0.3532
vn 0.6717 0.7408 -0.0026
vn 0.6017 0.7349 0.3128
vn 0.3924 0.7165 0.5768
vn 0.0438 0.6218 0.7820
vn -0.4224 0.6878 0.5904
vn -0.3899 0.2293 0.8918
vn -0.9813 0.0819 0.1740
vn -0.8011 0.0174 0.5983
vn -0.8385 0.1171 0.5321
vn 0.5560 -0.7976 -0.2338
vn -0.1209 -0.4571 -0.8811
vn 0.3464 -0.8533 -0.3898
vn -0.0008 0.0006 1.0000
vn 0.5293 -0.8458 -0.0669
vn 0.5547 -0.8288 -0.0735
vn 0.4379 -0.8714 -0.2212
vn 0.4379 -0.8952 -0.0824
vn 0.0153 -0.9437 0.3305
vn 0.1013 -0.9253 0.3656
vn 0.1124 -0.9224 0.3694
vn 0.0191 -0.9429 0.3326
vn 0.0077 -0.8714 0.4906
vn -0.0609 -0.9977 -0.0285
vn -0.0624 -0.9979 -0.0162
vn 0.0334 -0.8676 0.4962
vn 0.0843 -0.8621 -0.4996
vn 0.0615 -0.9343 -0.3513
vn 0.0564 -0.9307 -0.3613
vn 0.0698 -0.8539 -0.5157
vn 0.0183 -0.9822 -0.1868
vn 0.0167 -0.9810 -0.1932
vn -0.0295 -0.9926 -0.1179
vn -0.0271 -0.9925 -0.1195
vn -0.0660 -0.9880 -0.1396
vn -0.0297 -0.9961 -0.0834
vn -0.0336 -0.9955 -0.0884
vn -0.0653 -0.9883 -0.1380
vn -0.0204 -0.9990 0.0410
vn 0.0182 -0.9998 0.0071
vn 0.0173 -0.9998 0.0101
vn -0.0013 -0.9986 0.0521
vn 0.1989 -0.9252 0.3231
vn 0.2116 -0.9283 0.3058
vn 0.0218 -0.9445 0.3277
vn 0.0098 -0.9449 0.3272
vn -0.0087 -0.9555 0.2950
vn -0.0071 -0.9571 0.2897
vn -0.2481 -0.1198 0.9613
vn -0.4819 -0.1488 0.8635
vn -0.5626 -0.2049 0.8010
vn -0.7949 -0.3279 0.5105
vn -0.8067 -0.4123 0.4233
vn -0.8713 -0.3754 0.3160
vn -0.4364 -0.8771 -0.2003
vn -0.4523 -0.8794 -0.1483
vn -0.7528 -0.5189 -0.4051
vn -0.7164 -0.3466 -0.6055
vn -0.7733 -0.3474 -0.5304
vn -0.5844 -0.1236 -0.8020
vn -0.6048 -0.1177 -0.7876
vn -0.1418 -0.2010 -0.9693
vn -0.0903 -0.2390 -0.9668
vn 0.0344 -0.2023 -0.9787
usemtl eye_white.003
s 1
f 1/1/1 2/2/2 3/3/3
usemtl skin.003
f 4/4/4 5/5/5 6/6/6
f 6/6/6 7/7/7 4/4/4
f 8/8/8 9/9/9 10/10/10
f 10/10/10 11/11/11 8/8/8
f 12/12/12 13/13/13 14/14/14
f 14/14/14 15/15/15 12/12/12
f 16/16/16 17/17/17 18/18/18
f 18/18/18 19/19/19 16/16/16
f 20/20/20 17/17/17 16/16/16
f 16/16/16 21/21/21 20/20/20
f 22/22/22 20/20/20 21/21/21
f 21/21/21 23/23/23 22/22/22
f 24/24/24 9/9/9 8/8/8
f 8/8/8 25/25/25 24/24/24
f 26/26/26 13/13/13 12/12/12
f 12/12/12 27/27/27 26/26/26
f 10/10/10 28/28/28 29/29/29
f 29/29/29 11/11/11 10/10/10
f 14/14/14 5/5/5 4/4/4
f 4/4/4 15/15/15 14/14/14
f 30/30/18 24/24/24 25/25/25
f 25/25/25 31/31/19 30/30/18
f 6/6/6 22/22/22 23/23/23
f 23/23/23 7/7/7 6/6/6
f 28/28/28 26/26/26 27/27/27
f 27/27/27 29/29/29 28/28/28
usemtl shoe.003
f 32/32/30 33/33/31 34/34/32
f 34/34/32 35/35/33 32/32/30
f 36/36/17 37/37/20 38/38/34
f 38/38/34 39/39/35 36/36/17
f 40/40/36 41/41/37 42/42/38
f 42/42/38 43/43/39 40/40/36
f 44/44/9 45/45/40 46/46/41
f 46/46/41 47/47/42 44/44/9
f 48/48/43 49/49/44 50/50/45
f 50/50/45 51/51/46 48/48/43
f 52/52/6 53/53/47 54/54/48
f 54/54/48 55/55/22 52/52/6
f 56/56/49 57/57/50 58/58/51
f 59/59/52 60/60/53 61/61/54
f 61/61/54 62/62/55 59/59/52
f 63/63/28 64/64/56 50/50/45
f 50/50/45 49/49/44 63/63/28
f 53/53/47 52/52/6 65/65/5
f 65/65/5 66/66/57 53/53/47
f 32/32/30 35/35/33 67/67/58
f 67/67/58 68/68/59 32/32/30
f 62/62/55 61/61/54 69/69/60
f 69/69/60 70/70/61 62/62/55
f 39/39/35 71/71/62 72/72/63
f 72/72/63 73/73/64 39/39/35
f 74/74/65 64/64/56 63/63/28
f 63/63/28 75/75/66 74/74/65
f 39/39/35 38/38/34 41/41/37
f 41/41/37 71/71/62 39/39/35
f 54/54/48 38/38/34 37/37/20
f 37/37/20 55/55/22 54/54/48
f 47/47/42 46/46/41 57/57/50
f 57/57/50 67/67/58 47/47/42
f 51/51/46 50/50/45 76/76/67
f 76/76/67 69/69/60 51/51/46
f 54/54/48 53/53/47 77/77/68
f 77/77/68 42/42/38 54/54/48
f 46/46/41 45/45/40 78/78/18
f 78/78/18 79/79/64 46/46/41
f 80/80/14 66/66/57 65/65/5
f 50/50/45 64/64/56 34/34/32
f 34/34/32 76/76/67 50/50/45
f 81/81/69 77/77/68 60/60/53
f 60/60/53 59/59/52 81/81/69
f 47/47/42 74/74/65 75/75/66
f 75/75/66 44/44/9 47/47/42
f 51/51/46 82/82/70 80/80/14
f 80/80/14 48/48/43 51/51/46
f 83/83/18 36/36/17 39/39/35
f 39/39/35 73/73/64 83/83/18
f 35/35/33 34/34/32 64/64/56
f 64/64/56 74/74/65 35/35/33
f 42/42/38 41/41/37 38/38/34
f 38/38/34 54/54/48 42/42/38
f 58/58/51 57/57/50 46/46/41
f 61/61/54 60/60/53 66/66/57
f 66/66/57 82/82/70 61/61/54
f 67/67/58 35/35/33 74/74/65
f 74/74/65 47/47/42 67/67/58
f 69/69/60 61/61/54 82/82/70
f 82/82/70 51/51/46 69/69/60
f 72/72/63 71/71/62 84/84/71
f 84/84/71 85/85/72 72/72/63
f 71/71/62 41/41/37 40/40/36
f 40/40/36 84/84/71 71/71/62
f 67/67/58 57/57/50 86/86/73
f 86/86/73 68/68/59 67/67/58
f 69/69/60 76/76/67 87/87/74
f 87/87/74 70/70/61 69/69/60
f 42/42/38 77/77/68 81/81/69
f 81/81/69 43/43/39 42/42/38
f 76/76/67 34/34/32 33/33/31
f 33/33/31 87/87/74 76/76/67
f 60/60/53 77/77/68 53/53/47
f 53/53/47 66/66/57 60/60/53
f 58/58/51 46/46/41 79/79/64
f 56/56/49 86/86/73 57/57/50
f 82/82/70 66/66/57 80/80/14
f 33/33/31 68/68/59 62/62/55
f 84/84/71 40/40/36 59/59/52
f 40/40/36 43/43/39 59/59/52
f 43/43/39 81/81/69 59/59/52
f 59/59/52 62/62/55 84/84/71
f 62/62/55 70/70/61 87/87/74
f 62/62/55 86/86/73 84/84/71
f 87/87/74 33/33/31 62/62/55
f 33/33/31 32/32/30 68/68/59
f 86/86/73 56/56/49 85/85/72
f 85/85/72 84/84/71 86/86/73
f 86/86/73 62/62/55 68/68/59
f 3/3/3 88/88/75 1/1/1
f 89/89/76 90/90/77 91/91/78
f 92/92/79 88/88/75 93/93/80
f 93/93/80 94/94/81 92/92/79
f 88/88/75 92/92/79 95/95/82
f 95/95/82 1/1/1 88/88/75
f 95/95/82 92/92/79 96/96/83
f 92/92/79 89/89/76 96/96/83
f 97/97/84 98/98/85 99/99/86
f 99/99/86 100/100/87 97/97/84
f 101/101/88 102/102/89 103/103/90
f 103/103/90 104/104/91 101/101/88
f 101/101/88 105/105/92 106/106/93
f 106/106/93 102/102/89 101/101/88
f 107/107/94 108/108/95 109/109/96
f 109/109/96 110/110/97 107/107/94
f 111/111/98 107/107/94 110/110/97
f 110/110/97 112/112/99 111/111/98
f 113/113/100 111/111/98 112/112/99
f 112/112/99 114/114/101 113/113/100
f 115/115/102 116/116/103 113/113/100
f 113/113/100 114/114/101 115/115/102
f 117/117/104 116/116/103 118/118/105
f 118/118/105 119/119/106 117/117/104
f 120/120/107 117/117/104 119/119/106
f 119/119/106 121/121/108 120/120/107
f 122/122/109 120/120/107 123/123/110
f 123/123/110 124/124/111 122/122/109
f 94/94/81 93/93/80 97/97/84
f 97/97/84 100/100/87 94/94/81
f 125/125/112 126/126/113 120/120/107
f 120/120/107 122/122/109 125/125/112
f 126/126/113 127/127/114 117/117/104
f 117/117/104 120/120/107 126/126/113
f 127/127/114 128/128/115 116/116/103
f 116/116/103 117/117/104 127/127/114
f 128/128/115 129/129/116 113/113/100
f 113/113/100 116/116/103 128/128/115
f 129/129/116 130/130/117 111/111/98
f 111/111/98 113/113/100 129/129/116
f 130/130/117 131/131/118 107/107/94
f 107/107/94 111/111/98 130/130/117
f 131/131/118 132/132/119 108/108/95
f 108/108/95 107/107/94 131/131/118
f 102/102/89 106/106/93 133/133/120
f 133/133/120 91/91/78 102/102/89
f 91/91/78 90/90/77 103/103/90
f 103/103/90 102/102/89 91/91/78
f 90/90/77 89/89/76 92/92/79
f 92/92/79 94/94/81 90/90/77
f 100/100/87 103/103/90 90/90/77
f 90/90/77 94/94/81 100/100/87
f 99/99/86 104/104/91 103/103/90
f 103/103/90 100/100/87 99/99/86
f 93/93/80 88/88/75 3/3/3
f 3/3/3 125/125/112 93/93/80
f 122/122/109 97/97/84 93/93/80
f 93/93/80 125/125/112 122/122/109
f 124/124/111 98/98/85 97/97/84
f 97/97/84 122/122/109 124/124/111
f 134/134/95 106/106/93 105/105/92
f 105/105/92 135/135/121 134/134/95
f 2/136/122 133/133/120 106/106/93
f 106/106/93 134/134/95 2/136/122
f 120/120/107 121/121/108 123/123/110
f 116/116/103 115/115/102 118/118/105
f 89/89/123 96/96/124 95/95/125
f 3/3/3 2/2/2 125/125/112
f 131/131/118 130/130/117 129/129/116
f 129/129/116 128/128/115 2/136/2
f 128/128/115 127/127/114 2/136/2
f 127/127/114 126/126/113 125/125/112
f 127/127/114 125/125/112 2/136/2
f 131/131/118 129/129/116 2/136/2
f 132/132/119 131/131/118 2/136/2
f 1/1/126 132/132/119 2/136/2
f 133/133/127 91/91/128 1/1/129
f 91/91/128 89/89/123 95/95/125
f 95/95/125 1/1/129 91/91/128
f 1/1/129 2/136/130 133/133/127
f 136/137/131 137/138/132 138/139/133
f 138/139/133 139/140/134 136/137/131
f 140/141/135 141/142/136 142/143/137
f 142/143/137 143/144/138 140/141/135
f 144/145/139 145/146/140 146/147/141
f 146/147/141 147/148/142 144/145/139
f 145/146/140 148/149/143 149/150/144
f 149/150/144 146/147/141 145/146/140
f 148/149/143 150/151/145 151/152/146
f 151/152/146 149/150/144 148/149/143
f 152/153/147 153/154/148 154/155/149
f 154/155/149 155/156/150 152/153/147
f 156/157/151 157/158/152 158/159/153
f 158/159/153 159/160/154 156/157/151
f 159/160/154 160/161/155 161/162/156
f 161/162/156 156/157/151 159/160/154
f 150/151/145 152/153/147 155/156/150
f 155/156/150 151/152/146 150/151/145
f 162/163/157 161/162/156 160/161/155
f 160/161/155 163/164/158 162/163/157
f 164/165/159 165/166/160 162/163/157
f 162/163/157 163/164/158 164/165/159
f 139/140/134 165/166/160 164/165/159
f 164/165/159 136/137/131 139/140/134
f 166/167/148 158/159/153 157/158/152
f 157/158/152 167/168/149 166/167/148
f 137/138/132 140/141/135 143/144/138
f 143/144/138 138/139/133 137/138/132
f 141/142/136 144/145/139 147/148/142
f 147/148/142 142/143/137 141/142/136
f 168/169/161 169/170/162 170/171/163
f 170/171/163 169/170/162 171/172/164
f 171/172/164 172/173/165 170/171/163
f 172/173/165 173/174/166 174/175/167
f 174/175/167 175/176/168 172/173/165
f 176/177/169 177/178/170 178/179/171
f 178/179/171 177/178/170 179/180/172
f 179/180/172 180/181/173 178/179/171
f 180/181/173 179/180/172 181/182/174
f 181/182/174 182/183/175 180/181/173
f 182/183/175 181/182/174 183/184/176
f 172/173/165 171/172/164 173/174/166
f 175/176/168 174/175/167 176/177/169
f 176/177/169 178/179/171 175/176/168
