# Blender v2.93.5 OBJ File: ''
# www.blender.org
mtllib arbol_galleta.mtl
o LP_Plane.003
v 1.381873 -0.018820 -1.029191
v 1.356616 0.239996 1.005806
v 1.381873 -0.018820 1.029191
v -1.356616 0.239996 -1.005806
v -1.356616 0.239996 1.005806
v -1.381873 -0.018820 -1.029191
v 1.356616 0.239996 -1.005806
v -1.381873 -0.018820 1.029191
v 0.005166 2.676838 0.003938
v 0.518747 2.458637 0.003938
v 0.005166 2.567466 0.003938
v 0.005166 2.896614 0.148064
v 0.205608 3.463055 0.173659
v 0.005166 3.463055 0.173659
v 0.005166 1.420921 0.150586
v 0.720536 1.168756 0.167329
v 1.132945 1.422417 0.150586
v 0.005166 2.458094 0.003938
v 0.005166 0.408536 0.176205
v 0.686830 0.282637 0.191725
v 1.005588 0.408536 0.176205
v -0.212383 3.463055 0.173659
v -0.060066 3.679948 0.167331
v 0.576828 2.568253 0.182971
v 0.005166 2.676838 0.177068
v 0.005166 2.567466 0.182971
v 0.005166 0.408536 0.003938
v -0.702256 0.282637 -0.002664
v -1.021015 0.408536 0.003938
v 0.575005 0.187338 0.208028
v 0.005166 0.282637 0.191725
v 0.205608 3.463055 0.003939
v 0.005166 2.896614 0.003938
v 0.005166 3.463055 0.003939
v 0.005166 0.776107 0.003938
v -0.666524 0.993778 0.003938
v 0.005166 0.994166 0.003938
v 0.005166 1.420921 0.003938
v 0.720536 1.168756 0.003938
v 0.005166 1.168159 0.003938
v -0.664204 1.167562 0.003938
v 0.518747 2.458637 0.184099
v 0.005166 2.207012 0.168986
v 0.630925 2.207775 0.168986
v 0.575005 0.187338 -0.048117
v 0.686830 0.282637 -0.002664
v -0.212383 3.463055 0.003939
v -0.726224 2.895853 0.003938
v 1.005588 0.408536 0.003938
v -0.565354 2.566679 0.003938
v -0.060066 3.679948 0.003939
v -0.565354 2.566679 0.182971
v -0.719061 2.675833 0.177068
v -0.702256 0.282637 0.191725
v -1.021015 0.408536 0.176205
v -0.664204 1.167562 0.167329
v -1.083334 1.419425 0.150586
v -0.726224 2.895853 0.148064
v 0.005166 0.504420 0.003938
v 0.802060 0.776350 0.003938
v 0.976996 0.504465 0.003938
v 0.005166 0.994166 0.153717
v -0.666524 0.993778 0.153717
v -0.608442 2.206249 0.168986
v -0.506688 2.457551 0.003938
v -0.608442 2.206249 0.003938
v -0.985440 0.504375 0.003938
v -0.781608 0.775865 0.003938
v 1.132945 1.422417 0.003938
v 0.733306 2.897375 0.148064
v -1.083334 1.419425 0.003938
v 0.795361 2.798030 0.165810
v 0.729952 2.677842 0.003938
v 0.795361 2.798030 0.003938
v 0.005166 2.796838 0.003938
v 0.005166 1.168159 0.167329
v 0.704916 0.994554 0.153717
v 0.704916 0.994554 0.003938
v 0.005166 2.796838 0.165810
v 0.976996 0.504464 0.161876
v 0.047856 3.680224 0.167331
v 0.047856 3.680224 0.003939
v -0.590432 0.187338 0.208028
v 0.005166 2.207012 0.003938
v 0.630925 2.207775 0.003938
v 0.005166 0.282637 -0.002664
v 0.005166 0.187338 -0.048117
v -0.590432 0.187338 -0.048117
v 0.729952 2.677842 0.177068
v 0.576828 2.568253 0.003938
v -0.785111 2.795646 0.165810
v -0.719061 2.675833 0.003938
v -0.506688 2.457551 0.184099
v 0.005166 2.458094 0.184099
v -0.985440 0.504375 0.161876
v 0.005166 0.776107 0.169858
v 0.802060 0.776350 0.169858
v -0.785111 2.795646 0.003938
v 0.733306 2.897375 0.003938
v 0.005166 0.187338 0.208028
v -0.781608 0.775865 0.169858
v 0.005166 0.504419 0.161876
vt 0.949841 0.928108
vt 0.578191 0.975600
vt 0.573921 0.928108
vt 0.007977 0.007975
vt 0.375356 0.503489
vt 0.007977 0.503489
vt 0.777452 0.008263
vt 0.729961 0.379913
vt 0.729961 0.012534
vt 0.513021 0.885553
vt 0.012895 0.933011
vt 0.008282 0.885551
vt 0.571974 0.869190
vt 0.071847 0.821730
vt 0.576587 0.821730
vt 0.945570 0.975600
vt 0.375355 0.007975
vt 0.777452 0.384183
vt 0.508408 0.933013
vt 0.076460 0.869190
vt 0.713933 0.464547
vt 0.620120 0.424740
vt 0.713924 0.444573
vt 0.910436 0.412764
vt 0.873831 0.309209
vt 0.910437 0.309210
vt 0.910433 0.682802
vt 0.779786 0.728955
vt 0.704468 0.682528
vt 0.713914 0.424598
vt 0.910431 0.868216
vt 0.785940 0.891382
vt 0.727725 0.868214
vt 0.438501 0.048328
vt 0.398774 0.047812
vt 0.411201 0.008342
vt 0.806033 0.473142
vt 0.910435 0.453283
vt 0.910435 0.473287
vt 0.085660 0.805358
vt 0.061003 0.676464
vt 0.083290 0.617963
vt 0.806365 0.909036
vt 0.910435 0.891383
vt 0.677392 0.608150
vt 0.713951 0.504685
vt 0.713999 0.608133
vt 0.152783 0.804509
vt 0.190982 0.681346
vt 0.192604 0.804006
vt 0.713827 0.235180
vt 0.583159 0.189188
vt 0.713806 0.189019
vt 0.222723 0.681369
vt 0.270535 0.803020
vt 0.224378 0.803604
vt 0.816640 0.493163
vt 0.910434 0.539200
vt 0.796153 0.539060
vt 0.609880 0.008273
vt 0.713742 0.050290
vt 0.589240 0.027323
vt 0.642956 0.758577
vt 0.540018 0.799613
vt 0.538190 0.666052
vt 0.531036 0.050374
vt 0.478450 0.696189
vt 0.499884 0.800120
vt 0.479911 0.800373
vt 0.643458 0.798304
vt 0.682916 0.785891
vt 0.058162 0.951540
vt 0.007976 0.981683
vt 0.007976 0.948781
vt 0.500824 0.213372
vt 0.396901 0.191873
vt 0.529153 0.193774
vt 0.520396 0.631614
vt 0.391512 0.606771
vt 0.578906 0.609205
vt 0.515554 0.469328
vt 0.393920 0.421373
vt 0.592692 0.424228
vt 0.397428 0.151357
vt 0.530988 0.153231
vt 0.713750 0.067801
vt 0.568237 0.117530
vt 0.536266 0.067891
vt 0.953171 0.556864
vt 0.926388 0.467561
vt 0.956228 0.467561
vt 0.713773 0.117419
vt 0.392905 0.499502
vt 0.515564 0.501166
vt 0.956531 0.724705
vt 0.926388 0.774220
vt 0.926388 0.724705
vt 0.103169 0.805136
vt 0.100874 0.624238
vt 0.150922 0.660834
vt 0.228391 0.954901
vt 0.316815 0.981683
vt 0.228391 0.981683
vt 0.777457 0.412623
vt 0.926388 0.556864
vt 0.111409 0.550210
vt 0.252691 0.523888
vt 0.252691 0.554884
vt 0.090017 0.553451
vt 0.065027 0.523888
vt 0.090017 0.523888
vt 0.581566 0.464791
vt 0.713943 0.486462
vt 0.569631 0.486746
vt 0.910433 0.729065
vt 0.348757 0.954329
vt 0.392378 0.981683
vt 0.348757 0.981683
vt 0.397187 0.169863
vt 0.910435 0.431272
vt 0.732947 0.850501
vt 0.301712 0.553728
vt 0.301712 0.523888
vt 0.825030 0.065031
vt 0.793412 0.030602
vt 0.826109 0.030602
vt 0.499743 0.649001
vt 0.391207 0.629936
vt 0.521797 0.799843
vt 0.391494 0.008036
vt 0.713893 0.378743
vt 0.599612 0.378935
vt 0.316815 0.951843
vt 0.559127 0.944410
vt 0.532294 0.982889
vt 0.532294 0.947387
vt 0.062642 0.805910
vt 0.043360 0.806112
vt 0.042218 0.697345
vt 0.778068 0.453099
vt 0.030639 0.556585
vt 0.007983 0.523888
vt 0.030639 0.523888
vt 0.902642 0.269531
vt 0.822975 0.090017
vt 0.793412 0.065031
vt 0.957849 0.310144
vt 0.925183 0.247553
vt 0.960684 0.247553
vt 0.489852 0.233162
vt 0.395785 0.277783
vt 0.396382 0.231849
vt 0.819734 0.111244
vt 0.793412 0.251018
vt 0.793412 0.111244
vt 0.609522 0.444764
vt 0.955232 0.328813
vt 0.926388 0.390814
vt 0.926388 0.328813
vt 0.412531 0.689153
vt 0.267749 0.604248
vt 0.782638 0.760867
vt 0.910432 0.800871
vt 0.764896 0.800826
vt 0.953742 0.435820
vt 0.926388 0.435820
vt 0.451422 0.952839
vt 0.469703 0.981683
vt 0.451422 0.981683
vt 0.823252 0.299421
vt 0.824408 0.251018
vt 0.585997 0.157372
vt 0.713791 0.157243
vt 0.910433 0.760938
vt 0.793412 0.090017
vt 0.111409 0.523888
vt 0.683215 0.805599
vt 0.392378 0.951381
vt 0.580972 0.504885
vt 0.396642 0.211875
vt 0.065027 0.555507
vt 0.793412 0.007974
vt 0.826314 0.007974
vt 0.469703 0.950222
vt 0.910434 0.909040
vt 0.963661 0.220720
vt 0.916882 0.220720
vt 0.956690 0.390814
vt 0.507863 0.235548
vt 0.392387 0.539432
vt 0.536061 0.541342
vt 0.390979 0.647592
vt 0.458657 0.707155
vt 0.706221 0.647798
vt 0.058162 0.981683
vt 0.498028 0.667868
vt 0.572640 0.591425
vt 0.713949 0.007984
vt 0.714002 0.027266
vt 0.414087 0.801205
vt 0.391742 0.589067
vt 0.910432 0.850511
vt 0.541500 0.171955
vt 0.766123 0.431053
vt 0.393319 0.467632
vt 0.519755 0.655530
vt 0.507837 0.279377
vt 0.926388 0.310144
vt 0.793412 0.319130
vt 0.793412 0.299421
vt 0.910435 0.493262
vt 0.959291 0.774220
vt 0.559127 0.991190
vt 0.007983 0.556791
vt 0.459938 0.800625
vt 0.823252 0.319130
vn 0.7024 0.1317 -0.6995
vn 0.5499 0.6263 0.5526
vn 0.7024 0.1317 0.6995
vn -0.5499 0.6263 -0.5526
vn -0.5499 0.6263 0.5526
vn -0.7024 0.1317 -0.6995
vn 0.5499 0.6263 -0.5526
vn -0.7024 0.1317 0.6995
vn 0.0000 0.0000 -1.0000
vn 0.5716 -0.0191 -0.8203
vn -0.0001 0.0654 0.9979
vn 0.5338 0.4225 0.7325
vn -0.0000 -0.0080 1.0000
vn -0.0000 0.0214 0.9998
vn 0.4711 -0.2850 0.8348
vn 0.8009 -0.1828 0.5703
vn -0.0000 0.1373 0.9905
vn 0.3741 -0.5054 0.7775
vn 0.7265 -0.3179 0.6092
vn -0.5401 0.4143 0.7326
vn -0.3632 0.7077 0.6060
vn 0.4930 -0.3968 0.7743
vn -0.0001 0.0737 0.9973
vn -0.0000 0.0321 0.9995
vn -0.0003 0.0466 -0.9989
vn -0.4018 -0.5222 -0.7522
vn -0.7463 -0.3311 -0.5775
vn 0.3578 -0.2713 0.8935
vn -0.0001 0.1431 0.9897
vn 0.5346 0.4407 -0.7211
vn -0.6255 0.1595 -0.7638
vn 0.4827 -0.2989 -0.8232
vn -0.4766 -0.2655 -0.8381
vn 0.5636 -0.0430 0.8249
vn 0.0000 -0.0417 0.9991
vn 0.6164 0.3047 0.7261
vn 0.3840 -0.0535 -0.9218
vn 0.4022 -0.5221 -0.7521
vn -0.5411 0.4324 -0.7213
vn -0.5872 0.4315 -0.6848
vn 0.7327 -0.3543 -0.5811
vn -0.4853 -0.4284 -0.7622
vn -0.3639 0.6980 -0.6168
vn -0.4913 -0.3994 0.7740
vn -0.5687 -0.4581 0.6832
vn -0.3741 -0.5055 0.7776
vn -0.7394 -0.2973 0.6041
vn -0.4644 -0.2539 0.8484
vn -0.7969 -0.1972 0.5711
vn -0.5873 0.5002 0.6363
vn 0.6063 0.3275 -0.7247
vn 0.6689 0.3074 -0.6768
vn 0.0000 -0.0021 1.0000
vn -0.6423 0.1694 0.7475
vn -0.6250 0.2846 0.7269
vn -0.5767 -0.0313 -0.8164
vn -0.6156 0.3080 -0.7253
vn -0.6467 0.3531 -0.6761
vn -0.5814 0.3686 -0.7253
vn 0.7965 -0.1825 -0.5764
vn 0.5761 0.5125 0.6367
vn -0.7925 -0.1967 -0.5772
vn 0.7863 0.0716 0.6137
vn 0.5628 -0.4976 -0.6601
vn 0.7926 0.0238 -0.6093
vn 0.0000 -0.0060 1.0000
vn 0.6492 0.1109 0.7525
vn 0.6314 0.1050 -0.7683
vn -0.0002 0.1344 0.9909
vn 0.6757 0.3618 0.6423
vn 0.3554 0.7109 0.6068
vn 0.3562 0.7012 -0.6176
vn -0.3577 -0.2711 0.8936
vn 0.6070 0.3274 -0.7242
vn -0.0009 0.2251 -0.9743
vn 0.0000 0.4305 -0.9026
vn -0.3837 -0.0513 -0.9220
vn 0.5709 -0.4557 0.6829
vn 0.4871 -0.4259 -0.7625
vn -0.7856 0.0598 0.6159
vn -0.5604 -0.5001 -0.6602
vn -0.5684 -0.0546 0.8210
vn 0.0000 -0.0249 0.9997
vn -0.6508 0.4092 0.6395
vn -0.0000 0.0223 0.9998
vn 0.5957 0.3276 0.7333
vn -0.7917 0.0109 -0.6109
vn 0.5772 0.4429 -0.6861
vn 0.0000 0.1686 0.9857
vn -0.5718 0.3667 0.7339
vn 0.0000 0.0595 0.9982
usemtl None
s 1
f 1/1/1 2/2/2 3/3/3
f 2/4/2 4/5/4 5/6/5
f 6/7/6 5/8/5 4/9/4
f 6/10/6 7/11/7 1/12/1
f 2/13/2 8/14/8 3/15/3
f 1/1/1 7/16/7 2/2/2
f 2/4/2 7/17/7 4/5/4
f 6/7/6 8/18/8 5/8/5
f 6/10/6 4/19/4 7/11/7
f 2/13/2 5/20/5 8/14/8
s 2
f 9/21/9 10/22/10 11/23/9
f 12/24/11 13/25/12 14/26/13
f 15/27/14 16/28/15 17/29/16
f 11/23/9 10/22/10 18/30/9
f 19/31/17 20/32/18 21/33/19
f 22/34/20 14/35/13 23/36/21
f 24/37/22 25/38/23 26/39/24
f 27/40/25 28/41/26 29/42/27
f 30/43/28 19/31/17 31/44/29
f 32/45/30 33/46/9 34/47/9
f 35/48/9 36/49/31 37/50/9
f 38/51/9 39/52/32 40/53/9
f 41/54/33 38/55/9 40/56/9
f 42/57/34 43/58/35 44/59/36
f 45/60/37 27/61/25 46/62/38
f 47/63/39 33/64/9 48/65/40
f 46/62/38 27/61/25 49/66/41
f 50/67/42 9/68/9 11/69/9
f 34/70/9 47/63/39 51/71/43
f 44/72/36 10/73/10 42/74/34
f 52/75/44 25/76/23 53/77/45
f 54/78/46 19/79/17 55/80/47
f 56/81/48 15/82/14 57/83/49
f 12/84/11 22/34/20 58/85/50
f 59/86/9 60/87/51 61/88/52
f 57/89/49 41/90/33 56/91/48
f 35/92/9 60/87/51 59/86/9
f 62/93/53 56/81/48 63/94/54
f 64/95/55 65/96/56 66/97/57
f 59/98/9 67/99/58 68/100/59
f 17/101/16 39/102/32 69/103/60
f 15/27/14 44/59/36 43/58/35
f 12/24/11 70/104/61 13/25/12
f 57/89/49 66/97/57 71/105/62
f 70/106/61 32/107/30 13/108/12
f 72/109/63 73/110/64 74/111/65
f 73/112/64 75/113/9 74/114/65
f 15/27/14 76/115/66 16/28/15
f 26/39/24 42/57/34 24/37/22
f 77/116/67 60/117/51 78/118/68
f 79/119/69 53/77/45 25/76/23
f 79/120/69 70/104/61 12/24/11
f 80/121/70 19/31/17 21/33/19
f 81/122/71 32/107/30 82/123/72
f 53/124/45 50/125/42 52/126/44
f 19/79/17 83/127/73 31/128/29
f 75/129/9 48/65/40 33/64/9
f 14/35/13 81/130/71 23/36/21
f 84/131/9 10/22/10 85/132/74
f 77/116/67 39/102/32 16/133/15
f 41/54/33 37/50/9 36/49/31
f 30/134/28 46/135/38 20/136/18
f 86/137/75 87/138/76 88/139/77
f 24/37/22 89/140/78 25/38/23
f 24/141/22 10/142/10 90/143/79
f 14/26/13 13/25/12 81/144/71
f 91/145/80 92/146/81 53/124/45
f 55/147/47 28/148/26 54/149/46
f 93/150/82 43/151/35 94/152/83
f 61/88/52 27/61/25 59/86/9
f 58/153/50 47/154/39 48/155/40
f 9/21/9 73/112/64 90/156/79
f 95/157/84 68/158/59 67/159/58
f 66/160/57 38/55/9 71/161/62
f 77/162/67 96/163/85 97/164/86
f 63/165/54 41/90/33 36/166/31
f 80/167/70 49/168/41 61/169/52
f 23/170/21 47/154/39 22/171/20
f 40/53/9 78/172/68 37/173/9
f 77/162/67 76/115/66 62/174/53
f 58/153/50 98/175/87 91/145/80
f 70/106/61 74/111/65 99/176/88
f 82/177/72 34/70/9 51/71/43
f 80/167/70 60/117/51 97/178/86
f 32/45/30 99/179/88 33/46/9
f 26/180/24 93/150/82 94/152/83
f 89/181/78 90/143/79 73/110/64
f 52/126/44 65/182/56 93/183/82
f 21/184/19 46/135/38 49/168/41
f 31/44/29 100/185/89 30/43/28
f 83/186/73 28/148/26 88/187/77
f 63/165/54 68/158/59 101/188/90
f 38/51/9 69/189/60 39/52/32
f 41/54/33 71/161/62 38/55/9
f 35/92/9 37/173/9 78/172/68
f 96/190/85 63/94/54 101/191/90
f 83/127/73 100/192/89 31/128/29
f 11/69/9 65/193/56 50/67/42
f 47/63/39 34/70/9 33/64/9
f 82/194/72 32/45/30 34/47/9
f 27/40/25 88/139/77 28/41/26
f 17/101/16 85/195/74 44/72/36
f 38/51/9 85/132/74 69/189/60
f 50/67/42 92/196/81 9/68/9
f 67/99/58 27/40/25 29/42/27
f 19/79/17 95/197/84 55/80/47
f 52/75/44 26/180/24 25/76/23
f 45/60/37 87/198/76 86/199/75
f 65/193/56 84/200/9 66/160/57
f 101/191/90 102/201/91 96/190/85
f 99/179/88 75/113/9 33/46/9
f 102/202/91 97/164/86 96/163/85
f 79/119/69 58/85/50 91/203/80
f 79/120/69 89/140/78 72/204/63
f 56/81/48 76/205/66 15/82/14
f 75/129/9 92/196/81 98/206/87
f 12/84/11 14/35/13 22/34/20
f 64/207/55 15/82/14 43/151/35
f 95/157/84 29/208/27 55/147/47
f 68/100/59 35/48/9 59/98/9
f 23/170/21 82/209/72 51/210/43
f 9/21/9 90/156/79 10/22/10
f 30/43/28 20/32/18 19/31/17
f 42/57/34 94/211/83 43/58/35
f 45/60/37 86/199/75 27/61/25
f 44/72/36 85/195/74 10/73/10
f 57/89/49 71/105/62 41/90/33
f 35/92/9 78/172/68 60/87/51
f 62/93/53 76/205/66 56/81/48
f 64/95/55 93/212/82 65/96/56
f 17/101/16 16/133/15 39/102/32
f 15/27/14 17/29/16 44/59/36
f 57/89/49 64/95/55 66/97/57
f 70/106/61 99/176/88 32/107/30
f 72/109/63 89/181/78 73/110/64
f 73/112/64 9/21/9 75/113/9
f 26/39/24 94/211/83 42/57/34
f 77/116/67 97/178/86 60/117/51
f 79/119/69 91/203/80 53/77/45
f 79/120/69 72/204/63 70/104/61
f 80/121/70 102/202/91 19/31/17
f 81/122/71 13/108/12 32/107/30
f 53/124/45 92/146/81 50/125/42
f 19/79/17 54/78/46 83/127/73
f 75/129/9 98/206/87 48/65/40
f 84/131/9 18/30/9 10/22/10
f 77/116/67 78/118/68 39/102/32
f 41/54/33 40/56/9 37/50/9
f 30/134/28 45/213/37 46/135/38
f 24/141/22 42/214/34 10/142/10
f 91/145/80 98/175/87 92/146/81
f 55/147/47 29/208/27 28/148/26
f 93/150/82 64/207/55 43/151/35
f 61/88/52 49/66/41 27/61/25
f 58/153/50 22/171/20 47/154/39
f 95/157/84 101/188/90 68/158/59
f 66/160/57 84/200/9 38/55/9
f 77/162/67 62/174/53 96/163/85
f 63/165/54 56/91/48 41/90/33
f 80/167/70 21/184/19 49/168/41
f 23/170/21 51/210/43 47/154/39
f 40/53/9 39/52/32 78/172/68
f 77/162/67 16/28/15 76/115/66
f 58/153/50 48/155/40 98/175/87
f 70/106/61 72/109/63 74/111/65
f 80/167/70 61/169/52 60/117/51
f 26/180/24 52/75/44 93/150/82
f 89/181/78 24/141/22 90/143/79
f 52/126/44 50/125/42 65/182/56
f 21/184/19 20/136/18 46/135/38
f 83/186/73 54/149/46 28/148/26
f 63/165/54 36/166/31 68/158/59
f 96/190/85 62/93/53 63/94/54
f 11/69/9 18/215/9 65/193/56
f 27/40/25 86/137/75 88/139/77
f 17/101/16 69/103/60 85/195/74
f 38/51/9 84/131/9 85/132/74
f 67/99/58 59/98/9 27/40/25
f 19/79/17 102/201/91 95/197/84
f 65/193/56 18/215/9 84/200/9
f 101/191/90 95/197/84 102/201/91
f 99/179/88 74/114/65 75/113/9
f 102/202/91 80/121/70 97/164/86
f 79/119/69 12/84/11 58/85/50
f 79/120/69 25/38/23 89/140/78
f 75/129/9 9/68/9 92/196/81
f 64/207/55 57/83/49 15/82/14
f 95/157/84 67/159/58 29/208/27
f 68/100/59 36/49/31 35/48/9
f 23/170/21 81/216/71 82/209/72
