# Blender v2.93.5 OBJ File: 'HelicopterBack.blend'
# www.blender.org
mtllib Black Hawk uh-60-BBlade2.mtl
o Black_Hawk_uh-60.003_Black_Hawk_uh-60.002
v -0.003307 -0.043224 0.269666
v -0.040793 -0.022223 0.269160
v -0.032852 -0.016923 -0.098975
v 0.004633 -0.037925 -0.098469
v -0.032406 0.019897 0.269947
v -0.024464 0.025196 -0.098188
v 0.010268 0.024931 0.270939
v 0.018210 0.030230 -0.097196
v 0.028247 -0.014079 0.270766
v 0.036190 -0.008779 -0.097369
v -0.203630 -0.217104 -0.056350
v -0.189937 -0.229578 -0.074656
v 0.227459 0.206071 -0.059395
v 0.213757 0.218544 -0.041078
v -0.202839 -0.216574 -0.093183
v 0.214546 0.219074 -0.077920
v -0.216542 -0.204101 -0.074866
v 0.200855 0.231548 -0.059594
v -0.198462 0.164142 0.056215
v -0.228026 0.187458 0.055910
v -0.224700 0.189681 -0.098581
v -0.195126 0.166367 -0.098277
v -0.204713 0.217010 0.056841
v -0.201377 0.219235 -0.097651
v -0.175140 0.193696 0.057135
v -0.171814 0.195919 -0.097346
v 0.197777 -0.227345 0.059124
v 0.168213 -0.204030 0.058819
v 0.171540 -0.201807 -0.095672
v 0.201112 -0.225121 -0.095368
v 0.191527 -0.174477 0.059750
v 0.194862 -0.172253 -0.094742
v 0.221091 -0.197793 0.060055
v 0.224426 -0.195568 -0.094437
v -0.193714 -0.229958 0.050644
v -0.223279 -0.206642 0.050339
v -0.219943 -0.204418 -0.104152
v -0.190379 -0.227734 -0.103848
v -0.199966 -0.177090 0.051270
v -0.196630 -0.174866 -0.103222
v -0.170382 -0.200403 0.051573
v -0.167056 -0.198180 -0.102918
v 0.193756 0.170395 0.064763
v 0.164192 0.193710 0.064458
v 0.167517 0.195933 -0.090033
v 0.197092 0.172619 -0.089729
v 0.187504 0.223263 0.065389
v 0.190841 0.225487 -0.089103
v 0.217078 0.199949 0.065683
v 0.220404 0.202172 -0.088798
v 0.215425 -0.214542 -0.047275
v 0.228689 -0.201090 -0.065227
v -0.203531 0.220034 -0.068481
v -0.216785 0.206583 -0.050540
v 0.216225 -0.214011 -0.084118
v -0.215984 0.207114 -0.087373
v 0.202973 -0.227463 -0.066158
v -0.229238 0.193663 -0.069413
v -0.116371 0.227927 -0.010992
v 0.055083 0.248151 -0.007002
v 0.112368 -0.236351 -0.012741
v -0.059087 -0.256575 -0.016731
v -0.117640 0.227081 0.047767
v -0.060356 -0.257421 0.042028
v 0.111108 -0.237195 0.046007
v 0.053823 0.247306 0.051746
v -0.234185 -0.118497 -0.018526
v -0.254454 0.052917 -0.016496
v 0.230190 0.110084 -0.005218
v 0.250457 -0.061330 -0.007248
v -0.235455 -0.119343 0.040233
v 0.249188 -0.062176 0.051511
v 0.228921 0.109238 0.053542
v -0.255723 0.052071 0.042263
v -0.102693 0.266391 -0.010151
v 0.032819 0.282376 -0.006993
v 0.098697 -0.274804 -0.013592
v -0.036816 -0.290789 -0.016751
v -0.103962 0.265545 0.048608
v -0.038085 -0.291635 0.042008
v 0.097429 -0.275650 0.045167
v 0.031550 0.281530 0.051766
v -0.266006 -0.098831 -0.018927
v -0.281418 0.031522 -0.017383
v 0.261393 0.095551 -0.004755
v 0.276805 -0.034802 -0.006299
v -0.267275 -0.099677 0.039833
v 0.275536 -0.035648 0.052460
v 0.260123 0.094705 0.054004
v -0.282688 0.030676 0.041376
v 0.002314 0.463033 0.045991
v 0.026417 0.258500 0.047225
v 0.027490 0.259216 -0.002540
v 0.003243 0.463650 0.003166
v 0.041753 0.715073 0.046081
v 0.042494 0.715570 0.011535
v -0.033925 1.357381 0.042175
v -0.033646 1.357565 0.029423
v -0.220524 1.335370 0.037833
v -0.220255 1.335553 0.025082
v -0.091157 0.237350 0.044521
v -0.090079 0.238069 -0.005486
v 0.226813 0.192717 0.047351
v 0.189205 0.159766 0.046063
v -0.080682 0.467566 0.044678
v -0.043074 0.500517 0.045955
v 0.226139 0.192270 0.078383
v -0.043747 0.500069 0.076997
v -0.081356 0.467119 0.075709
v 0.188541 0.159320 0.077094
v -0.041976 0.345950 -0.018133
v -0.038941 0.320270 -0.018437
v -0.167380 0.305120 -0.021420
v -0.170417 0.330799 -0.021116
v -0.042639 0.345503 0.012907
v -0.171089 0.330352 0.009926
v -0.168053 0.304672 0.009622
v -0.039603 0.319824 0.012603
v 0.464229 -0.008516 0.049165
v 0.259613 -0.032695 0.048065
v 0.260685 -0.031979 -0.001700
v 0.465149 -0.007900 0.006340
v 0.716394 -0.047820 0.049652
v 0.717135 -0.047323 0.015107
v 1.358970 0.028114 0.053080
v 1.359250 0.028297 0.040328
v 1.336915 0.214652 0.055289
v 1.337194 0.214835 0.042538
v 0.238426 0.084842 0.049434
v 0.239505 0.085562 -0.000573
v 0.193863 -0.232895 0.040511
v 0.160897 -0.195291 0.040346
v 0.468742 0.074444 0.050864
v 0.501708 0.036849 0.051029
v 0.193200 -0.233341 0.071542
v 0.501045 0.036403 0.082069
v 0.468079 0.073998 0.081894
v 0.160232 -0.195737 0.071377
v 0.347540 0.038004 -0.014169
v 0.321852 0.034974 -0.014762
v 0.306670 0.163380 -0.013241
v 0.332358 0.166410 -0.012648
v 0.346867 0.037557 0.016882
v 0.331686 0.165963 0.018403
v 0.305997 0.162933 0.017801
v 0.321179 0.034526 0.016280
v -0.007378 -0.470173 0.032350
v -0.031638 -0.265745 0.038428
v -0.030565 -0.265029 -0.011337
v -0.006459 -0.469558 -0.010475
v -0.046628 -0.722087 0.023488
v -0.045878 -0.721589 -0.011049
v 0.029548 -1.364064 0.004370
v 0.029818 -1.363881 -0.008381
v 0.216147 -1.342053 0.008712
v 0.216426 -1.341869 -0.004040
v 0.085934 -0.244598 0.041404
v 0.087013 -0.243879 -0.008603
v -0.231886 -0.199868 0.031805
v -0.194277 -0.166917 0.033093
v 0.075600 -0.474728 0.034479
v 0.038003 -0.507677 0.033200
v -0.232560 -0.200315 0.062837
v 0.037339 -0.508123 0.064231
v 0.074937 -0.475174 0.065520
v -0.194951 -0.167364 0.064124
v 0.039572 -0.351320 -0.026413
v 0.036535 -0.325640 -0.026109
v 0.164977 -0.310490 -0.023116
v 0.168012 -0.336169 -0.023421
v 0.038899 -0.351767 0.004639
v 0.167349 -0.336615 0.007620
v 0.164314 -0.310936 0.007924
v 0.035864 -0.326088 0.004943
v -0.469282 0.001367 0.029175
v -0.264821 0.025441 0.037597
v -0.263749 0.026158 -0.012178
v -0.468364 0.001983 -0.013650
v -0.721268 0.040806 0.019926
v -0.720518 0.041304 -0.014621
v -1.363337 -0.034795 -0.006526
v -1.363067 -0.034612 -0.019277
v -1.341282 -0.221332 -0.008736
v -1.341012 -0.221149 -0.021486
v -0.243639 -0.092090 0.036490
v -0.242561 -0.091370 -0.013517
v -0.198935 0.225744 0.038645
v -0.165969 0.188140 0.038810
v -0.473825 -0.081606 0.028293
v -0.506792 -0.044001 0.028118
v -0.199610 0.225297 0.069676
v -0.507464 -0.044449 0.059160
v -0.474498 -0.082053 0.059325
v -0.166642 0.187693 0.069851
v -0.349944 -0.043374 -0.030377
v -0.324255 -0.040344 -0.029775
v -0.309073 -0.168751 -0.031295
v -0.334763 -0.171781 -0.031898
v -0.350607 -0.043820 0.000664
v -0.335425 -0.172227 -0.000857
v -0.309747 -0.169198 -0.000254
v -0.324929 -0.040791 0.001267
vt 0.316660 0.281540
vt 0.314890 0.281300
vt 0.314890 0.281300
vt 0.316660 0.281540
vt 0.314130 0.282910
vt 0.314130 0.282910
vt 0.315420 0.284140
vt 0.315420 0.284140
vt 0.316980 0.283290
vt 0.316980 0.283290
vt 0.314210 0.270480
vt 0.314970 0.270380
vt 0.318010 0.295190
vt 0.317250 0.295280
vt 0.314210 0.270480
vt 0.317250 0.295280
vt 0.313450 0.270570
vt 0.316500 0.295370
vt 0.304970 0.283370
vt 0.303410 0.283410
vt 0.303410 0.283410
vt 0.304970 0.283370
vt 0.303450 0.284970
vt 0.303450 0.284970
vt 0.305010 0.284930
vt 0.305010 0.284930
vt 0.327820 0.280200
vt 0.326260 0.280240
vt 0.326260 0.280240
vt 0.327820 0.280200
vt 0.326300 0.281800
vt 0.326300 0.281800
vt 0.327860 0.281760
vt 0.327860 0.281760
vt 0.314900 0.270400
vt 0.313340 0.270450
vt 0.313340 0.270450
vt 0.314900 0.270400
vt 0.313380 0.272000
vt 0.313380 0.272000
vt 0.314940 0.271960
vt 0.314940 0.271960
vt 0.317820 0.293300
vt 0.316260 0.293340
vt 0.316260 0.293340
vt 0.317820 0.293300
vt 0.316310 0.294900
vt 0.316310 0.294900
vt 0.317860 0.294850
vt 0.317860 0.294850
vt 0.328050 0.280950
vt 0.328150 0.281710
vt 0.303370 0.284970
vt 0.303270 0.284210
vt 0.328050 0.280950
vt 0.303270 0.284210
vt 0.327950 0.280190
vt 0.303170 0.283460
vt 0.306080 0.287450
vt 0.311270 0.292370
vt 0.325180 0.277710
vt 0.319990 0.272790
vt 0.306080 0.287450
vt 0.319990 0.272790
vt 0.325180 0.277710
vt 0.311270 0.292370
vt 0.310760 0.273030
vt 0.305840 0.278220
vt 0.320500 0.292130
vt 0.325420 0.286940
vt 0.310760 0.273030
vt 0.325420 0.286940
vt 0.320500 0.292130
vt 0.305840 0.278220
vt 0.305580 0.289060
vt 0.309680 0.292950
vt 0.325680 0.276090
vt 0.321580 0.272200
vt 0.305580 0.289060
vt 0.321580 0.272200
vt 0.325680 0.276090
vt 0.309680 0.292950
vt 0.309220 0.272890
vt 0.305480 0.276840
vt 0.321900 0.292420
vt 0.325640 0.288470
vt 0.309220 0.272890
vt 0.325640 0.288470
vt 0.321900 0.292420
vt 0.305480 0.276840
vt 0.304210 0.298240
vt 0.310080 0.292060
vt 0.310080 0.292060
vt 0.304210 0.298240
vt 0.299270 0.307580
vt 0.299270 0.307580
vt 0.865280 0.239060
vt 0.715190 0.239060
vt 0.715190 0.239060
vt 0.865280 0.239060
vt 0.608700 0.195460
vt 0.865280 0.195460
vt 0.865280 0.195460
vt 0.608700 0.195460
vt 0.658170 0.223130
vt 0.610380 0.223130
vt 0.610380 0.223130
vt 0.658170 0.223130
vt 0.318360 0.294840
vt 0.317930 0.292810
vt 0.301350 0.296340
vt 0.301780 0.298360
vt 0.318360 0.294840
vt 0.301780 0.298360
vt 0.301350 0.296340
vt 0.317930 0.292810
vt 0.305620 0.293200
vt 0.306360 0.292420
vt 0.302480 0.288730
vt 0.301740 0.289510
vt 0.305620 0.293200
vt 0.301740 0.289510
vt 0.302480 0.288730
vt 0.306360 0.292420
vt 0.331220 0.294040
vt 0.325040 0.288170
vt 0.325040 0.288170
vt 0.331220 0.294040
vt 0.340560 0.298990
vt 0.340560 0.298990
vt 0.865900 0.239140
vt 0.715810 0.239140
vt 0.715810 0.239140
vt 0.865900 0.239140
vt 0.865900 0.195540
vt 0.865900 0.195540
vt 0.609320 0.195540
vt 0.609320 0.195540
vt 0.658790 0.223210
vt 0.611000 0.223210
vt 0.611000 0.223210
vt 0.658790 0.223210
vt 0.327820 0.279900
vt 0.325790 0.280330
vt 0.329320 0.296910
vt 0.331340 0.296480
vt 0.327820 0.279900
vt 0.331340 0.296480
vt 0.329320 0.296910
vt 0.325790 0.280330
vt 0.326180 0.292630
vt 0.325400 0.291900
vt 0.321710 0.295780
vt 0.322490 0.296520
vt 0.326180 0.292630
vt 0.322490 0.296520
vt 0.321710 0.295780
vt 0.325400 0.291900
vt 0.327020 0.267030
vt 0.321150 0.273220
vt 0.321150 0.273220
vt 0.327020 0.267030
vt 0.331970 0.257690
vt 0.331970 0.257690
vt 0.865440 0.239070
vt 0.715350 0.239070
vt 0.715350 0.239070
vt 0.865440 0.239070
vt 0.865440 0.195470
vt 0.865440 0.195470
vt 0.608860 0.195470
vt 0.608860 0.195470
vt 0.658330 0.223140
vt 0.610540 0.223140
vt 0.610540 0.223140
vt 0.658330 0.223140
vt 0.312880 0.270440
vt 0.313310 0.272460
vt 0.329890 0.268940
vt 0.329460 0.266910
vt 0.312880 0.270440
vt 0.329460 0.266910
vt 0.329890 0.268940
vt 0.313310 0.272460
vt 0.325610 0.272080
vt 0.324870 0.272860
vt 0.328760 0.276540
vt 0.329500 0.275770
vt 0.325610 0.272080
vt 0.329500 0.275770
vt 0.328760 0.276540
vt 0.324870 0.272860
vt 0.300010 0.271230
vt 0.306200 0.277100
vt 0.306200 0.277100
vt 0.300010 0.271230
vt 0.290680 0.266290
vt 0.290680 0.266290
vt 0.865910 0.238990
vt 0.715820 0.238990
vt 0.715820 0.238990
vt 0.865910 0.238990
vt 0.865910 0.195390
vt 0.865910 0.195390
vt 0.609330 0.195390
vt 0.609330 0.195390
vt 0.658800 0.223060
vt 0.611000 0.223060
vt 0.611000 0.223060
vt 0.658800 0.223060
vt 0.303420 0.285380
vt 0.305440 0.284950
vt 0.301920 0.268370
vt 0.299890 0.268800
vt 0.303420 0.285380
vt 0.299890 0.268800
vt 0.301920 0.268370
vt 0.305440 0.284950
vt 0.305060 0.272640
vt 0.305840 0.273380
vt 0.309520 0.269500
vt 0.308740 0.268760
vt 0.305060 0.272640
vt 0.308740 0.268760
vt 0.309520 0.269500
vt 0.305840 0.273380
vn -0.4884 -0.8723 -0.0231
vn -0.9805 0.1956 -0.0183
vn -0.1174 0.9930 0.0118
vn 0.9079 0.4183 0.0256
vn 0.9079 0.4184 0.0256
vn 0.6784 -0.7347 0.0041
vn 0.0215 0.0144 -0.9997
vn 0.0216 0.0144 -0.9997
vn 0.4953 -0.4994 0.7108
vn 0.4954 -0.4995 0.7107
vn 0.5259 -0.4793 -0.7027
vn 0.5258 -0.4792 -0.7028
vn -0.4954 0.4995 -0.7107
vn -0.4956 0.4997 -0.7104
vn -0.5257 0.4790 0.7030
vn -0.5258 0.4791 0.7028
vn -0.6915 -0.7220 -0.0252
vn 0.6913 0.7221 0.0250
vn 0.6913 0.7221 0.0254
vn -0.6189 -0.7851 -0.0246
vn -0.6187 -0.7852 -0.0247
vn -0.7850 0.6195 -0.0080
vn -0.7849 0.6196 -0.0080
vn 0.6188 0.7852 0.0246
vn 0.6189 0.7851 0.0247
vn 0.7849 -0.6196 0.0080
vn 0.7850 -0.6195 0.0080
vn -0.6188 -0.7852 -0.0247
vn -0.6189 -0.7851 -0.0247
vn 0.6186 0.7853 0.0246
vn 0.6187 0.7852 0.0247
vn 0.7847 -0.6198 0.0080
vn -0.7848 0.6196 -0.0080
vn 0.4779 0.4961 0.7249
vn 0.4779 0.4961 0.7250
vn 0.5085 0.5166 -0.6888
vn 0.5087 0.5167 -0.6887
vn -0.4782 -0.4963 -0.7246
vn -0.4782 -0.4964 -0.7246
vn -0.5085 -0.5166 0.6889
vn -0.5084 -0.5165 0.6890
vn 0.7157 -0.6984 0.0055
vn 0.7160 -0.6981 0.0055
vn -0.7160 0.6981 -0.0055
vn -0.0215 -0.0144 0.9997
vn -0.9928 -0.1171 -0.0231
vn 0.1174 -0.9930 -0.0117
vn 0.1174 -0.9930 -0.0118
vn 0.9929 0.1171 0.0230
vn -0.0216 -0.0144 0.9997
vn 0.9928 0.1171 0.0231
vn 0.9928 0.1171 0.0232
vn 0.9878 -0.1546 0.0192
vn 0.9878 -0.1545 0.0190
vn 0.9928 0.1171 0.0234
vn -0.9929 -0.1171 -0.0227
vn 0.0197 0.0302 -0.9994
vn 0.0196 0.0301 -0.9994
vn 0.0201 0.0303 -0.9993
vn 0.0196 0.0302 -0.9994
vn -0.0236 0.0033 0.9997
vn -0.0241 0.0032 0.9997
vn -0.0237 0.0033 0.9997
vn 0.0215 0.0143 -0.9997
vn -0.7516 -0.6591 -0.0258
vn -0.7516 -0.6591 -0.0255
vn 0.6590 -0.7521 0.0033
vn 0.6589 -0.7522 0.0035
vn 0.7516 0.6591 0.0258
vn -0.6589 0.7522 -0.0034
vn -0.6589 0.7522 -0.0035
vn 0.9929 0.1171 0.0229
vn -0.9928 -0.1171 -0.0232
vn -0.1539 -0.9879 -0.0175
vn -0.1540 -0.9879 -0.0175
vn 0.9928 0.1171 0.0235
vn -0.1174 0.9930 0.0117
vn 0.0373 0.0162 -0.9992
vn 0.0373 0.0163 -0.9992
vn 0.0374 0.0159 -0.9992
vn -0.0039 -0.0123 0.9999
vn -0.0040 -0.0119 0.9999
vn -0.0039 -0.0124 0.9999
vn 0.0215 0.0145 -0.9997
vn -0.0216 -0.0143 0.9997
vn -0.0215 -0.0145 0.9997
vn -0.6589 0.7522 -0.0033
vn -0.7516 -0.6591 -0.0256
vn -0.7517 -0.6591 -0.0255
vn 0.6590 -0.7522 0.0033
vn 0.7516 0.6592 0.0255
vn 0.7516 0.6591 0.0255
vn 0.0214 0.0144 -0.9997
vn -0.0217 -0.0144 0.9997
vn -0.9929 -0.1171 -0.0230
vn -0.9878 0.1546 -0.0190
vn -0.9878 0.1545 -0.0192
vn -0.9928 -0.1171 -0.0233
vn 0.0234 -0.0014 -0.9997
vn 0.0230 -0.0015 -0.9997
vn 0.0235 -0.0014 -0.9997
vn -0.0195 -0.0321 0.9993
vn -0.0190 -0.0320 0.9993
vn -0.0196 -0.0321 0.9993
vn -0.9929 -0.1171 -0.0232
vn 0.1540 0.9879 0.0175
vn 0.1540 0.9879 0.0176
vn 0.0058 0.0125 -0.9999
vn 0.0057 0.0130 -0.9999
vn 0.0058 0.0124 -0.9999
vn -0.0392 -0.0165 0.9991
vn -0.0392 -0.0166 0.9991
vn -0.0392 -0.0164 0.9991
vn 0.0216 0.0143 -0.9997
vn 0.6589 -0.7522 0.0034
vn 0.0217 0.0144 -0.9997
vn -0.0218 -0.0144 0.9997
vn -0.9929 -0.1171 -0.0229
usemtl rear_rotor
s off
f 1/1/1 2/2/1 3/3/1
f 3/3/1 4/4/1 1/1/1
f 2/2/2 5/5/2 6/6/2
f 6/6/2 3/3/2 2/2/2
f 5/5/3 7/7/3 8/8/3
f 8/8/3 6/6/3 5/5/3
f 7/7/4 9/9/4 10/10/4
f 10/10/5 8/8/5 7/7/5
f 9/9/6 1/1/6 4/4/6
f 4/4/6 10/10/6 9/9/6
f 6/6/7 8/8/7 10/10/7
f 3/3/8 6/6/8 10/10/8
f 4/4/8 3/3/8 10/10/8
f 11/11/9 12/12/9 13/13/9
f 13/13/10 14/14/10 11/11/10
f 12/12/11 15/15/11 16/16/11
f 16/16/12 13/13/12 12/12/12
f 15/15/13 17/17/13 18/18/13
f 18/18/14 16/16/14 15/15/14
f 17/17/15 11/11/15 14/14/15
f 14/14/16 18/18/16 17/17/16
f 15/15/17 12/12/17 11/11/17
f 13/13/18 16/16/18 18/18/18
f 18/18/19 14/14/19 13/13/19
f 19/19/20 20/20/20 21/21/20
f 21/21/21 22/22/21 19/19/21
f 20/20/22 23/23/22 24/24/22
f 24/24/23 21/21/23 20/20/23
f 23/23/24 25/25/24 26/26/24
f 26/26/25 24/24/25 23/23/25
f 25/25/26 19/19/26 22/22/26
f 22/22/27 26/26/27 25/25/27
f 21/21/8 24/24/8 26/26/8
f 26/26/8 22/22/8 21/21/8
f 27/27/20 28/28/20 29/29/20
f 29/29/28 30/30/28 27/27/28
f 28/28/22 31/31/22 32/32/22
f 32/32/23 29/29/23 28/28/23
f 31/31/25 33/33/25 34/34/25
f 34/34/25 32/32/25 31/31/25
f 33/33/27 27/27/27 30/30/27
f 30/30/27 34/34/27 33/33/27
f 29/29/8 32/32/8 34/34/8
f 34/34/8 30/30/8 29/29/8
f 35/35/29 36/36/29 37/37/29
f 37/37/29 38/38/29 35/35/29
f 36/36/22 39/39/22 40/40/22
f 40/40/22 37/37/22 36/36/22
f 39/39/30 41/41/30 42/42/30
f 42/42/31 40/40/31 39/39/31
f 41/41/32 35/35/32 38/38/32
f 38/38/26 42/42/26 41/41/26
f 37/37/8 40/40/8 42/42/8
f 42/42/8 38/38/8 37/37/8
f 43/43/20 44/44/20 45/45/20
f 45/45/21 46/46/21 43/43/21
f 44/44/22 47/47/22 48/48/22
f 48/48/33 45/45/33 44/44/33
f 47/47/24 49/49/24 50/50/24
f 50/50/25 48/48/25 47/47/25
f 49/49/26 43/43/26 46/46/26
f 46/46/27 50/50/27 49/49/27
f 45/45/8 48/48/8 50/50/8
f 50/50/8 46/46/8 45/45/8
f 51/51/34 52/52/34 53/53/34
f 53/53/35 54/54/35 51/51/35
f 52/52/36 55/55/36 56/56/36
f 56/56/37 53/53/37 52/52/37
f 55/55/38 57/57/38 58/58/38
f 58/58/39 56/56/39 55/55/39
f 57/57/40 51/51/40 54/54/40
f 54/54/41 58/58/41 57/57/41
f 55/55/42 52/52/42 51/51/42
f 51/51/43 57/57/43 55/55/43
f 53/53/44 56/56/44 58/58/44
f 58/58/44 54/54/44 53/53/44
f 59/59/8 60/60/8 61/61/8
f 61/61/8 62/62/8 59/59/8
f 63/63/45 64/64/45 65/65/45
f 65/65/45 66/66/45 63/63/45
f 59/59/46 62/62/46 64/64/46
f 64/64/46 63/63/46 59/59/46
f 62/62/47 61/61/47 65/65/47
f 65/65/48 64/64/48 62/62/48
f 61/61/49 60/60/49 66/66/49
f 66/66/49 65/65/49 61/61/49
f 60/60/3 59/59/3 63/63/3
f 63/63/3 66/66/3 60/60/3
f 67/67/8 68/68/8 69/69/8
f 69/69/8 70/70/8 67/67/8
f 71/71/50 72/72/50 73/73/50
f 73/73/50 74/74/50 71/71/50
f 67/67/48 70/70/48 72/72/48
f 72/72/48 71/71/48 67/67/48
f 70/70/51 69/69/51 73/73/51
f 73/73/51 72/72/51 70/70/51
f 69/69/3 68/68/3 74/74/3
f 74/74/3 73/73/3 69/69/3
f 68/68/46 67/67/46 71/71/46
f 71/71/46 74/74/46 68/68/46
f 75/75/8 76/76/8 77/77/8
f 77/77/8 78/78/8 75/75/8
f 79/79/50 80/80/50 81/81/50
f 81/81/50 82/82/50 79/79/50
f 75/75/46 78/78/46 80/80/46
f 80/80/46 79/79/46 75/75/46
f 78/78/48 77/77/48 81/81/48
f 81/81/48 80/80/48 78/78/48
f 77/77/51 76/76/51 82/82/51
f 82/82/51 81/81/51 77/77/51
f 76/76/3 75/75/3 79/79/3
f 79/79/3 82/82/3 76/76/3
f 83/83/8 84/84/8 85/85/8
f 85/85/8 86/86/8 83/83/8
f 87/87/50 88/88/50 89/89/50
f 89/89/50 90/90/50 87/87/50
f 83/83/48 86/86/48 88/88/48
f 88/88/48 87/87/48 83/83/48
f 86/86/51 85/85/51 89/89/51
f 89/89/51 88/88/51 86/86/51
f 85/85/3 84/84/3 90/90/3
f 90/90/3 89/89/3 85/85/3
f 84/84/46 83/83/46 87/87/46
f 87/87/46 90/90/46 84/84/46
f 91/91/51 92/92/51 93/93/51
f 93/93/52 94/94/52 91/91/52
f 95/95/53 91/91/53 94/94/53
f 94/94/54 96/96/54 95/95/54
f 97/97/49 95/98/49 96/99/49
f 96/99/55 98/100/55 97/97/55
f 101/101/56 99/102/56 100/103/56
f 100/103/46 102/104/46 101/101/46
f 100/103/57 98/100/57 96/99/57
f 100/103/58 96/99/58 94/105/58
f 100/103/59 94/105/59 93/106/59
f 100/103/60 93/106/60 102/104/60
f 99/102/61 101/101/61 92/107/61
f 99/102/62 92/107/62 91/108/62
f 99/102/61 91/108/61 95/98/61
f 99/102/63 95/98/63 97/97/63
f 103/109/8 104/110/8 105/111/8
f 105/111/64 106/112/64 103/109/64
f 107/113/50 108/114/50 109/115/50
f 109/115/50 110/116/50 107/113/50
f 110/116/65 109/115/65 105/111/65
f 105/111/66 104/110/66 110/116/66
f 107/113/67 110/116/67 104/110/67
f 104/110/68 103/109/68 107/113/68
f 108/114/69 107/113/69 103/109/69
f 103/109/69 106/112/69 108/114/69
f 109/115/70 108/114/70 106/112/70
f 106/112/71 105/111/71 109/115/71
f 111/117/7 112/118/7 113/119/7
f 113/119/7 114/120/7 111/117/7
f 115/121/45 116/122/45 117/123/45
f 117/123/45 118/124/45 115/121/45
f 118/124/48 117/123/48 113/119/48
f 113/119/48 112/118/48 118/124/48
f 115/121/72 118/124/72 112/118/72
f 112/118/72 111/117/72 115/121/72
f 116/122/3 115/121/3 111/117/3
f 111/117/3 114/120/3 116/122/3
f 117/123/73 116/122/73 114/120/73
f 114/120/73 113/119/73 117/123/73
f 119/125/48 120/126/48 121/127/48
f 121/127/48 122/128/48 119/125/48
f 123/129/74 119/125/74 122/128/74
f 122/128/75 124/130/75 123/129/75
f 125/131/48 123/132/48 124/133/48
f 124/133/47 126/134/47 125/131/47
f 127/135/76 125/131/76 126/134/76
f 126/134/55 128/136/55 127/135/55
f 129/137/77 127/135/77 128/136/77
f 128/136/3 130/138/3 129/137/3
f 128/136/78 126/134/78 124/133/78
f 128/136/79 124/133/79 122/139/79
f 128/136/80 122/139/80 121/140/80
f 128/136/79 121/140/79 130/138/79
f 127/135/81 129/137/81 120/141/81
f 127/135/82 120/141/82 119/142/82
f 127/135/83 119/142/83 123/132/83
f 127/135/81 123/132/81 125/131/81
f 131/143/84 132/144/84 133/145/84
f 133/145/84 134/146/84 131/143/84
f 135/147/85 136/148/85 137/149/85
f 137/149/86 138/150/86 135/147/86
f 138/150/87 137/149/87 133/145/87
f 133/145/87 132/144/87 138/150/87
f 135/147/88 138/150/88 132/144/88
f 132/144/89 131/143/89 135/147/89
f 136/148/90 135/147/90 131/143/90
f 131/143/90 134/146/90 136/148/90
f 137/149/91 136/148/91 134/146/91
f 134/146/92 133/145/92 137/149/92
f 139/151/93 140/152/93 141/153/93
f 141/153/93 142/154/93 139/151/93
f 143/155/94 144/156/94 145/157/94
f 145/157/94 146/158/94 143/155/94
f 146/158/73 145/157/73 141/153/73
f 141/153/73 140/152/73 146/158/73
f 143/155/48 146/158/48 140/152/48
f 140/152/48 139/151/48 143/155/48
f 144/156/52 143/155/52 139/151/52
f 139/151/52 142/154/52 144/156/52
f 145/157/3 144/156/3 142/154/3
f 142/154/3 141/153/3 145/157/3
f 147/159/46 148/160/46 149/161/46
f 149/161/95 150/162/95 147/159/95
f 151/163/96 147/159/96 150/162/96
f 150/162/97 152/164/97 151/163/97
f 153/165/98 151/166/98 152/167/98
f 152/167/56 154/168/56 153/165/56
f 155/169/48 153/165/48 154/168/48
f 154/168/47 156/170/47 155/169/47
f 157/171/55 155/169/55 156/170/55
f 156/170/51 158/172/51 157/171/51
f 156/170/99 154/168/99 152/167/99
f 156/170/99 152/167/99 150/173/99
f 156/170/100 150/173/100 149/174/100
f 156/170/101 149/174/101 158/172/101
f 155/169/102 157/171/102 148/175/102
f 155/169/103 148/175/103 147/176/103
f 155/169/104 147/176/104 151/166/104
f 155/169/102 151/166/102 153/165/102
f 159/177/8 160/178/8 161/179/8
f 161/179/64 162/180/64 159/177/64
f 163/181/50 164/182/50 165/183/50
f 165/183/50 166/184/50 163/181/50
f 166/184/92 165/183/92 161/179/92
f 161/179/69 160/178/69 166/184/69
f 163/181/71 166/184/71 160/178/71
f 160/178/71 159/177/71 163/181/71
f 164/182/65 163/181/65 159/177/65
f 159/177/88 162/180/88 164/182/88
f 165/183/67 164/182/67 162/180/67
f 162/180/67 161/179/67 165/183/67
f 167/185/8 168/186/8 169/187/8
f 169/187/8 170/188/8 167/185/8
f 171/189/45 172/190/45 173/191/45
f 173/191/45 174/192/45 171/189/45
f 174/192/3 173/191/3 169/187/3
f 169/187/3 168/186/3 174/192/3
f 171/189/105 174/192/105 168/186/105
f 168/186/73 167/185/73 171/189/73
f 172/190/48 171/189/48 167/185/48
f 167/185/48 170/188/48 172/190/48
f 173/191/72 172/190/72 170/188/72
f 170/188/72 169/187/72 173/191/72
f 175/193/3 176/194/3 177/195/3
f 177/195/3 178/196/3 175/193/3
f 179/197/106 175/193/106 178/196/106
f 178/196/107 180/198/107 179/197/107
f 181/199/3 179/200/3 180/201/3
f 180/201/3 182/202/3 181/199/3
f 183/203/56 181/199/56 182/202/56
f 182/202/56 184/204/56 183/203/56
f 185/205/48 183/203/48 184/204/48
f 184/204/48 186/206/48 185/205/48
f 184/204/108 182/202/108 180/201/108
f 184/204/108 180/201/108 178/207/108
f 184/204/109 178/207/109 177/208/109
f 184/204/110 177/208/110 186/206/110
f 183/203/111 185/205/111 176/209/111
f 183/203/112 176/209/112 175/210/112
f 183/203/113 175/210/113 179/200/113
f 183/203/111 179/200/111 181/199/111
f 187/211/84 188/212/84 189/213/84
f 189/213/114 190/214/114 187/211/114
f 191/215/86 192/216/86 193/217/86
f 193/217/85 194/218/85 191/215/85
f 194/218/68 193/217/68 189/213/68
f 189/213/115 188/212/115 194/218/115
f 191/215/69 194/218/69 188/212/69
f 188/212/69 187/211/69 191/215/69
f 192/216/71 191/215/71 187/211/71
f 187/211/70 190/214/70 192/216/70
f 193/217/65 192/216/65 190/214/65
f 190/214/65 189/213/65 193/217/65
f 195/219/116 196/220/116 197/221/116
f 197/221/116 198/222/116 195/219/116
f 199/223/117 200/224/117 201/225/117
f 201/225/117 202/226/117 199/223/117
f 202/226/52 201/225/52 197/221/52
f 197/221/52 196/220/52 202/226/52
f 196/220/3 195/219/3 199/223/3
f 200/224/118 199/223/118 195/219/118
f 195/219/118 198/222/118 200/224/118
f 201/225/48 200/224/48 198/222/48
f 198/222/48 197/221/48 201/225/48
