# Blender v2.93.5 OBJ File: ''
# www.blender.org
mtllib candy_cane_2.mtl
o Christmas_Tree_Candy007_Mesh.034
v -0.012790 -0.244103 0.533415
v 0.048100 -0.284977 0.550736
v 0.047946 -0.261965 0.605577
v 0.009218 -0.157749 0.563877
v -0.002445 -0.214900 0.521189
v 0.085968 -0.178071 0.505983
v 0.010614 -0.178032 0.505755
v 0.087034 -0.157789 0.564112
v 0.098895 -0.214953 0.521495
v 0.109135 -0.244167 0.533782
v 0.047748 -0.232214 0.676478
v 0.047777 -0.178824 0.676253
v 0.007784 -0.212875 0.647169
v -0.013065 -0.202786 0.631878
v -0.013002 -0.085230 0.631383
v 0.010488 -0.106716 0.559877
v 0.085842 -0.106755 0.560105
v 0.108923 -0.085293 0.631751
v 0.108860 -0.202850 0.632246
v -0.012739 -0.024219 0.554501
v -0.012990 -0.062005 0.631285
v 0.010596 -0.080475 0.506883
v 0.109186 -0.024283 0.554868
v 0.086080 -0.080515 0.507110
v 0.108935 -0.062068 0.631653
v 0.048153 0.010554 0.584271
v 0.047857 -0.034905 0.674586
v 0.048474 0.035226 0.482124
v -0.012637 -0.008973 0.523518
v 0.048317 0.035303 0.533979
v -0.012398 -0.009091 0.444241
v 0.109288 -0.009036 0.523886
v 0.023414 -0.202657 0.492559
v 0.073222 -0.202683 0.492709
v 0.048262 -0.233750 0.505675
v 0.088536 -0.246372 0.511084
v 0.048192 -0.273348 0.522291
v 0.007944 -0.246330 0.510841
v 0.050029 0.012721 -0.037499
v 0.090310 -0.016577 -0.037334
v 0.050007 -0.029649 -0.037436
v 0.074893 -0.063939 -0.037310
v 0.025085 -0.063913 -0.037460
v 0.009718 -0.016535 -0.037577
v -0.011011 -0.009776 -0.015919
v 0.049975 0.034484 -0.015801
v 0.012237 -0.081454 -0.015742
v 0.087591 -0.081494 -0.015515
v 0.110914 -0.009840 -0.015551
v -0.011267 -0.009650 0.069045
v 0.049605 0.034667 0.106929
v 0.012165 -0.081419 0.008117
v 0.087519 -0.081458 0.008344
v 0.110658 -0.009713 0.069413
v -0.011675 -0.009448 0.204446
v 0.049197 0.034868 0.242329
v 0.011757 -0.081217 0.143517
v 0.087111 -0.081256 0.143744
v 0.110250 -0.009512 0.204814
v -0.012035 -0.009270 0.323700
v 0.048837 0.035046 0.361583
v 0.011397 -0.081039 0.262772
v 0.086751 -0.081079 0.262999
v 0.109890 -0.009334 0.324068
v 0.011034 -0.080860 0.383312
v 0.086388 -0.080899 0.383540
v 0.109527 -0.009154 0.444609
v 0.087909 -0.212917 0.647411
vt 0.455281 0.903349
vt 0.463148 0.926446
vt 0.451330 0.929922
vt 0.739374 0.984724
vt 0.747225 0.972839
vt 0.794132 0.992823
vt 0.427058 0.927572
vt 0.425040 0.921906
vt 0.417709 0.887552
vt 0.453169 0.889752
vt 0.901374 0.906163
vt 0.883781 0.940154
vt 0.856336 0.937919
vt 0.909824 0.959131
vt 0.938393 0.944998
vt 0.915780 0.978830
vt 0.446893 0.983093
vt 0.468953 0.950002
vt 0.474590 0.961899
vt 0.433880 0.950922
vt 0.710439 0.937534
vt 0.432441 0.945097
vt 0.761251 0.951607
vt 0.771606 0.747844
vt 0.809738 0.734302
vt 0.817685 0.743210
vt 0.413004 0.941405
vt 0.354985 0.959003
vt 0.376584 0.918939
vt 0.861715 0.719412
vt 0.878988 0.747313
vt 0.917947 0.730118
vt 0.907864 0.705484
vt 0.693974 0.714513
vt 0.726819 0.739312
vt 0.673876 0.732428
vt 0.395413 0.980232
vt 0.735490 0.731434
vt 0.814856 0.690849
vt 0.451310 0.859467
vt 0.444996 0.847802
vt 0.472545 0.838179
vt 0.856605 0.681532
vt 0.900016 0.671466
vt 0.732641 0.688162
vt 0.690906 0.682436
vt 0.367802 0.873299
vt 0.395583 0.864370
vt 0.397578 0.877484
vt 0.773647 0.693741
vt 0.420505 0.856729
vt 0.426732 0.875299
vt 0.414481 0.838762
vt 0.401287 0.675597
vt 0.429675 0.707825
vt 0.401129 0.722010
vt 0.797228 0.888797
vt 0.844718 0.938172
vt 0.805383 0.963565
vt 0.408327 0.763111
vt 0.440106 0.790532
vt 0.413394 0.807925
vt 0.790106 0.815654
vt 0.836851 0.856654
vt 0.797608 0.882190
vt 0.440070 0.818599
vt 0.429784 0.675694
vt 0.836564 0.863405
vt 0.435039 0.745718
vt 0.829349 0.790119
vt 0.458250 0.684813
vt 0.882648 0.899892
vt 0.465826 0.764368
vt 0.874641 0.818236
vt 0.465414 0.790757
vt 0.458281 0.675790
vt 0.874493 0.825124
vt 0.460759 0.719554
vt 0.867139 0.751701
vt 0.372681 0.707631
vt 0.761498 0.947249
vt 0.383473 0.796936
vt 0.753664 0.866034
vt 0.381909 0.838100
vt 0.372790 0.675500
vt 0.753344 0.872482
vt 0.378406 0.752122
vt 0.746162 0.799499
vt 0.879192 0.953353
vt 0.898555 0.966512
vt 0.878388 0.978430
vt 0.901920 0.991504
vt 0.480942 0.943678
vt 0.470872 0.924698
vt 0.489039 0.919613
vt 0.469766 0.901569
vt 0.848906 0.964508
vt 0.506214 0.677554
vt 0.512810 0.681356
vt 0.506406 0.684790
vt 0.512576 0.689841
vt 0.508612 0.692685
vt 0.500573 0.689345
vt 0.499823 0.681632
vt 0.495159 0.678968
vt 0.506408 0.672283
vt 0.495857 0.692358
vt 0.508574 0.698608
vt 0.517433 0.692064
vt 0.517441 0.678968
vt 0.486778 0.675887
vt 0.924258 0.895354
vt 0.494143 0.761166
vt 0.916234 0.813546
vt 0.494330 0.786393
vt 0.486747 0.684910
vt 0.916103 0.820586
vt 0.489076 0.716352
vt 0.908732 0.747011
vt 0.501511 0.833807
vt 0.344262 0.684426
vt 0.716208 0.918045
vt 0.352560 0.777175
vt 0.708268 0.836996
vt 0.344293 0.675403
vt 0.708053 0.843278
vt 0.347492 0.732361
vt 0.700766 0.770460
vt 0.344905 0.831164
vn -0.5891 -0.7457 0.3113
vn -0.9505 0.2854 -0.1224
vn -0.9505 0.2854 -0.1225
vn 0.0015 0.9442 -0.3295
vn 0.9516 0.2844 -0.1167
vn 0.5864 -0.7463 0.3148
vn 0.5865 -0.7463 0.3148
vn -0.5902 0.0037 0.8072
vn -0.5862 0.0075 0.8101
vn -0.5816 0.0050 0.8134
vn -0.5809 0.0037 0.8140
vn -0.5876 0.0024 0.8092
vn -0.9501 -0.0008 -0.3119
vn 0.0030 -0.0782 -0.9969
vn 0.9520 -0.0018 -0.3061
vn 0.5813 0.0068 0.8137
vn 0.5853 0.0031 0.8108
vn 0.5827 0.0018 0.8127
vn 0.5760 0.0032 0.8174
vn 0.5768 0.0044 0.8169
vn -0.9508 -0.2767 -0.1392
vn -0.9508 -0.2768 -0.1391
vn -0.9508 -0.2768 -0.1393
vn -0.9509 -0.2766 -0.1392
vn -0.9508 -0.2767 -0.1390
vn 0.0009 -0.8962 -0.4437
vn 0.9514 -0.2777 -0.1335
vn 0.9513 -0.2778 -0.1334
vn 0.9514 -0.2777 -0.1333
vn 0.9514 -0.2776 -0.1335
vn 0.9513 -0.2778 -0.1336
vn 0.5867 0.7255 0.3597
vn 0.5828 0.7259 0.3651
vn 0.5812 0.7261 0.3674
vn 0.5871 0.7256 0.3590
vn -0.5874 0.8093 -0.0030
vn -0.9512 -0.3085 -0.0024
vn 0.5882 0.8087 0.0006
vn 0.0026 -0.3869 -0.9221
vn 0.0030 -0.0015 -1.0000
vn -0.4564 -0.8231 -0.3380
vn -0.7374 -0.0215 -0.6752
vn -0.7374 -0.0214 -0.6752
vn 0.0029 0.4735 -0.8808
vn 0.7414 -0.0222 -0.6707
vn 0.4576 -0.8236 -0.3352
vn 0.4575 -0.8236 -0.3352
vn -0.4547 0.6283 -0.6313
vn -0.4547 0.6282 -0.6313
vn -0.7376 -0.2408 -0.6308
vn 0.0015 -0.7784 -0.6278
vn 0.7412 -0.2416 -0.6264
vn 0.7412 -0.2416 -0.6263
vn 0.7411 -0.2416 -0.6264
vn 0.4592 0.6278 -0.6285
vn -0.0005 -1.0000 0.0015
vn -0.0005 -1.0000 0.0023
vn -0.0005 -1.0000 0.0031
vn 0.9509 -0.3095 0.0033
vn -0.5885 0.7262 0.3554
vn -0.5842 0.7266 0.3616
vn -0.5880 0.7262 0.3561
vn -0.5826 0.7267 0.3639
usemtl Christmas_Tree
s 1
f 1/1/1 2/2/1 3/3/1
f 3/4/1 11/5/1 13/6/1
f 13/7/1 14/8/1 3/3/1
f 14/8/1 1/1/1 3/3/1
s 2
f 1/1/2 4/9/2 5/10/3
f 4/11/2 7/12/2 5/13/3
f 1/1/2 14/8/2 4/9/2
s 3
f 4/11/4 6/14/4 7/12/4
f 4/11/4 8/15/4 6/14/4
s 4
f 6/14/5 8/15/5 9/16/5
f 8/17/5 10/18/5 9/19/5
f 8/17/5 19/20/5 10/18/5
s 5
f 3/3/6 2/2/6 10/18/6
f 68/21/6 11/5/6 3/4/6
f 10/18/6 19/20/7 3/3/6
f 19/20/7 68/22/6 3/3/6
s 6
f 11/5/8 12/23/9 13/6/8
f 27/24/10 21/25/11 15/26/12
f 14/8/8 13/7/8 12/27/9
f 12/27/9 27/28/10 15/29/12
f 15/29/12 14/8/8 12/27/9
s 7
f 14/8/13 15/29/13 4/9/13
f 16/30/13 15/26/13 21/25/13
f 16/30/13 4/31/13 15/26/13
s 8
f 16/30/14 8/32/14 4/31/14
f 16/30/14 17/33/14 8/32/14
s 9
f 17/34/15 18/35/15 8/36/15
f 18/37/15 19/20/15 8/17/15
f 17/34/15 25/38/15 18/35/15
s 10
f 12/27/16 19/20/17 18/37/18
f 18/35/18 25/38/19 27/24/20
f 12/23/16 11/5/17 68/21/17
f 18/37/18 27/28/20 12/27/16
f 12/27/16 68/22/17 19/20/17
s 11
f 20/39/21 16/30/22 21/25/23
f 20/40/21 29/41/24 22/42/25
f 20/39/21 22/43/25 16/30/22
s 12
f 22/43/26 17/33/26 16/30/26
f 22/43/26 24/44/26 17/33/26
s 13
f 23/45/27 17/34/28 24/46/29
f 24/47/29 32/48/30 23/49/27
f 23/45/27 25/38/31 17/34/28
s 14
f 25/38/32 26/50/33 27/24/34
f 30/51/35 23/49/35 32/48/35
f 25/38/32 23/45/35 26/50/33
f 30/51/35 26/52/33 23/49/35
s 15
f 28/53/36 29/41/36 30/51/36
f 46/54/36 50/55/36 51/56/36
f 51/57/36 55/58/36 56/59/36
f 56/60/36 60/61/36 61/62/36
f 61/63/36 31/64/36 28/65/36
f 28/53/36 31/66/36 29/41/36
f 46/54/36 45/67/36 50/55/36
f 51/57/36 50/68/36 55/58/36
f 56/60/36 55/69/36 60/61/36
f 61/63/36 60/70/36 31/64/36
s 16
f 31/66/37 22/42/37 29/41/37
f 45/67/37 52/71/37 50/55/37
f 50/68/37 57/72/37 55/58/37
f 55/69/37 62/73/37 60/61/37
f 60/70/37 65/74/37 31/64/37
f 31/66/37 65/75/37 22/42/37
f 45/67/37 47/76/37 52/71/37
f 50/68/37 52/77/37 57/72/37
f 55/69/37 57/78/37 62/73/37
f 60/70/37 62/79/37 65/74/37
s 17
f 32/48/38 28/53/38 30/51/38
f 54/80/38 46/54/38 51/56/38
f 59/81/38 51/57/38 56/59/38
f 64/82/38 56/60/38 61/62/38
f 67/83/38 61/63/38 28/65/38
f 32/48/38 67/84/38 28/53/38
f 54/80/38 49/85/38 46/54/38
f 59/81/38 54/86/38 51/57/38
f 64/82/38 59/87/38 56/60/38
f 67/83/38 64/88/38 61/63/38
s 18
f 33/89/39 34/90/39 35/91/39
f 34/90/39 36/92/39 35/91/39
f 36/93/39 37/94/39 35/95/39
f 37/94/39 38/96/39 35/95/39
f 38/97/39 33/89/39 35/91/39
s 19
f 39/98/40 40/99/40 41/100/40
f 40/99/40 42/101/40 41/100/40
f 42/102/40 43/103/40 41/100/40
f 43/103/40 44/104/40 41/100/40
f 44/104/40 39/98/40 41/100/40
s 20
f 1/1/41 37/94/41 2/2/41
f 1/1/41 38/96/41 37/94/41
s 21
f 33/89/42 5/13/43 7/12/42
f 38/96/43 1/1/43 5/10/43
f 33/89/42 38/97/43 5/13/43
s 22
f 34/90/44 7/12/44 6/14/44
f 34/90/44 33/89/44 7/12/44
s 23
f 10/18/45 36/93/45 9/19/45
f 34/90/45 9/16/45 36/92/45
f 34/90/45 6/14/45 9/16/45
s 24
f 2/2/46 36/93/46 10/18/47
f 2/2/46 37/94/46 36/93/46
s 25
f 39/98/48 45/105/48 46/106/48
f 39/98/48 44/104/49 45/105/48
s 26
f 44/104/50 47/107/50 45/105/50
f 44/104/50 43/103/50 47/107/50
s 27
f 47/107/51 42/102/51 48/108/51
f 47/107/51 43/103/51 42/102/51
s 28
f 48/109/52 40/99/52 49/110/53
f 48/109/52 42/101/54 40/99/52
s 29
f 40/99/55 46/106/55 49/110/55
f 40/99/55 39/98/55 46/106/55
s 30
f 48/111/56 52/71/56 47/76/56
f 52/77/56 58/112/56 57/72/56
f 57/78/56 63/113/56 62/73/56
f 62/79/56 66/114/57 65/74/57
f 66/115/57 22/42/58 65/75/57
f 48/111/56 53/116/56 52/71/56
f 52/77/56 53/117/56 58/112/56
f 57/78/56 58/118/56 63/113/56
f 62/79/56 63/119/56 66/114/57
f 66/115/57 24/120/58 22/42/58
s 31
f 53/121/59 49/85/59 54/80/59
f 58/122/59 54/86/59 59/81/59
f 63/123/59 59/87/59 64/82/59
f 66/124/59 64/88/59 67/83/59
f 24/47/59 67/84/59 32/48/59
f 53/121/59 48/125/59 49/85/59
f 58/122/59 53/126/59 54/86/59
f 63/123/59 58/127/59 59/87/59
f 66/124/59 63/128/59 64/88/59
f 24/47/59 66/129/59 67/84/59
s 32
f 30/51/60 20/40/60 26/52/61
f 26/50/61 21/25/62 27/24/63
f 30/51/60 29/41/60 20/40/60
f 26/50/61 20/39/60 21/25/62
