# Blender v2.93.5 OBJ File: 'Cubemodel.blend'
# www.blender.org
mtllib dado_personajes1.mtl
o Cube
v 1.000000 1.000000 1.000000
v 1.000000 1.000000 -1.000000
v 1.000000 -1.000000 1.000000
v 1.000000 -1.000000 -1.000000
v -1.000000 1.000000 1.000000
v -1.000000 1.000000 -1.000000
v -1.000000 -1.000000 1.000000
v -1.000000 -1.000000 -1.000000
vt 0.253432 0.652461
vt 0.496568 0.347539
vt 0.496855 0.652102
vt 0.491175 0.987884
vt 0.258825 0.676178
vt 0.491395 0.676647
vt 0.243105 0.346155
vt 0.006895 0.649938
vt 0.006895 0.346155
vt 0.506839 0.652852
vt 0.743161 0.343241
vt 0.743228 0.652801
vt 0.257029 0.320216
vt 0.496877 0.007909
vt 0.493684 0.324488
vt 0.759479 0.340413
vt 0.986615 0.651774
vt 0.758365 0.649245
vt 0.253145 0.347898
vt 0.258605 0.987415
vt 0.243105 0.649938
vt 0.506772 0.343293
vt 0.260223 0.003637
vt 0.987729 0.342942
vn 0.0000 0.0000 1.0000
vn 0.0000 -1.0000 0.0000
vn -1.0000 0.0000 0.0000
vn 0.0000 0.0000 -1.0000
vn 1.0000 0.0000 0.0000
vn 0.0000 1.0000 0.0000
usemtl Material
s off
f 5/1/1 3/2/1 1/3/1
f 3/4/2 8/5/2 4/6/2
f 7/7/3 6/8/3 8/9/3
f 2/10/4 8/11/4 6/12/4
f 1/13/5 4/14/5 2/15/5
f 5/16/6 2/17/6 6/18/6
f 5/1/1 7/19/1 3/2/1
f 3/4/2 7/20/2 8/5/2
f 7/7/3 5/21/3 6/8/3
f 2/10/4 4/22/4 8/11/4
f 1/13/5 3/23/5 4/14/5
f 5/16/6 1/24/6 2/17/6
