# Blender v2.93.5 OBJ File: ''
# www.blender.org
mtllib iceberg1.mtl
o Cylinder
v 16.674393 43.530796 -3.692280
v -1.260437 42.439816 -5.066085
v 2.290482 48.077251 -5.140015
v 21.022476 43.530796 6.983170
v 5.841408 53.714684 2.713193
v -1.260441 42.439816 11.451318
v -16.106857 36.726921 6.005246
v -8.123539 42.439816 -0.936733
v -4.230450 35.244331 -11.046162
v -2.424919 47.040703 5.441283
v 20.721024 34.899357 11.155359
v -5.797401 31.168095 20.159142
v -5.345543 35.801792 18.428442
v 4.345505 35.801796 -11.574047
v 19.584854 34.899357 -1.811048
v -21.630676 16.950119 13.362798
v -6.161755 17.030853 35.837769
v -8.823078 25.831825 15.569160
v 22.981415 28.702318 -8.003102
v -18.148201 31.734875 -2.043332
v 14.218330 29.014877 22.398727
v -0.019196 31.745159 -8.859296
v -13.145020 31.104687 -13.326669
v -1.818554 25.831831 -17.935913
v 24.772995 17.030855 27.013283
v 19.100922 25.831825 11.314119
v -23.059769 26.843401 -0.819361
v -23.414192 17.030863 -19.492516
v 9.880722 16.778070 -26.194904
v 25.592209 17.030861 -7.397892
v 9.398575 15.252373 -29.748732
v -28.650658 15.252373 -28.355639
v -33.658340 9.357091 -23.737211
v -17.052116 8.900809 35.837765
v -35.957806 -12.183490 18.868057
v 24.661026 10.768284 -9.212900
v 25.782242 11.226686 22.398867
v 23.800125 2.645442 -9.460690
v 16.247032 5.403230 -27.617840
v 25.719528 2.927366 39.928143
v 33.151291 -10.242378 48.334347
v 27.851898 -24.482620 -5.849728
v 29.199661 -10.822806 -4.990463
v 0.127384 3.683046 -38.247829
v 2.538086 -2.103067 -39.061565
v -38.159683 -9.910230 -16.926592
v 13.170395 -2.331923 -29.304150
v -18.848434 -16.583235 30.618759
v 23.902451 -5.145092 -24.245245
v -1.198578 -17.952021 -37.314484
v 32.073982 -23.862465 51.124496
v -23.484474 -30.637274 32.196503
v -4.626705 -32.099747 -40.385918
v -44.117332 -23.507587 -18.602734
v 22.192177 -18.416340 -26.422258
v -33.679958 -49.970627 46.002346
v 51.894150 -39.535702 75.156250
v 45.391068 -40.490902 -12.598487
v 36.673660 -31.147293 -44.285393
v -4.634216 -52.223209 -65.792984
v -65.459793 -38.989109 -32.241352
v -61.836239 -42.730137 26.664627
v -41.764763 -25.936428 19.641605
v 36.673660 -47.648582 -44.285397
v -4.634216 -68.724503 -65.792984
v -65.459793 -55.490398 -32.241352
v -61.836239 -59.231426 26.664625
v -33.679958 -66.471924 46.002342
v 51.894150 -56.036991 75.156250
v 45.391068 -56.992191 -12.598490
v -5.251129 -79.764771 60.231789
vt 0.741741 0.294631
vt 0.755341 0.287904
vt 0.751835 0.294095
vt 0.740602 0.307243
vt 0.750770 0.300950
vt 0.759858 0.312797
vt 0.774902 0.298366
vt 0.762893 0.292526
vt 0.759103 0.272069
vt 0.757892 0.302398
vt 0.734221 0.320074
vt 0.775558 0.335655
vt 0.769223 0.326783
vt 0.748002 0.276235
vt 0.729395 0.293775
vt 0.818092 0.314599
vt 0.791378 0.388614
vt 0.786286 0.327560
vt 0.717353 0.278085
vt 0.783040 0.283397
vt 0.740320 0.350816
vt 0.751999 0.265264
vt 0.770510 0.264740
vt 0.757369 0.236348
vt 0.710249 0.388614
vt 0.720411 0.329663
vt 0.795604 0.277913
vt 0.774827 0.446528
vt 0.766649 0.521515
vt 0.707986 0.521515
vt 0.806862 0.219315
vt 0.687790 0.275425
vt 0.725633 0.201017
vt 0.250319 0.307834
vt 0.352104 0.264839
vt 0.253992 0.309930
vt 0.246525 0.467715
vt 0.256343 0.325538
vt 0.282055 0.541645
vt 0.277951 0.575759
vt 0.293642 0.450941
vt 0.359774 0.258581
vt 0.418400 0.375688
vt 0.446513 0.382109
vt 0.378004 0.592786
vt 0.393698 0.381039
vt 0.356167 0.296902
vt 0.380001 0.623389
vt 0.373788 0.617680
vt 0.383373 0.677859
vt 0.357935 0.402158
vt 0.369316 0.404336
vt 0.334168 0.292785
vt 0.330545 0.280786
vt 0.273681 0.336903
vt 0.344168 0.303953
vt 0.312249 0.503951
vt 0.358042 0.335449
vt 0.317911 0.267870
vt 0.394158 0.736510
vt 0.315714 0.490632
vt 0.305530 0.228458
vt 0.279118 0.326337
vt 0.342616 0.324658
vt 0.322871 0.467325
vt 0.446513 1.004657
vt 0.337142 0.377308
vt 0.315786 0.304907
vt 0.279617 0.121081
vt 0.277638 0.292874
vt 0.308588 0.419398
vt 0.299854 0.436684
vt 0.314005 0.284734
vt 0.252120 0.004799
vt 0.256424 0.270543
vt 0.307639 0.416817
vt 0.309297 0.477718
vt 0.419008 0.850161
vt 0.360435 0.375739
vt 0.293173 0.621170
vt 0.687790 0.471934
vt 0.700908 0.394618
vt 0.756296 0.388756
vn 0.0801 -0.0635 -0.9948
vn 0.1381 0.5509 0.8231
vn -0.7462 0.3719 -0.5521
vn -0.3666 0.7031 0.6093
vn -0.6282 0.7781 0.0000
vn -0.4919 0.2991 -0.8176
vn 0.1579 0.4253 0.8912
vn -0.7080 0.3066 0.6361
vn 0.0114 0.7049 -0.7092
vn -0.6025 0.7973 -0.0368
vn -0.4603 0.7620 0.4555
vn 0.9025 0.2242 -0.3676
vn -0.3785 0.6790 -0.6290
vn -0.5693 0.7242 0.3892
vn 0.3882 0.7491 -0.5368
vn -0.4518 0.8049 -0.3847
vn 0.1779 0.8258 0.5351
vn 0.3247 -0.1885 -0.9269
vn 0.1510 0.8143 -0.5604
vn -0.8706 0.0754 0.4862
vn 0.7211 0.6820 0.1218
vn -0.7039 0.6200 -0.3467
vn -0.0080 -1.0000 -0.0020
vn -0.3122 0.8434 -0.4373
vn 0.0050 0.7426 0.6697
vn 0.9486 0.2238 0.2238
vn 0.1587 0.7695 -0.6187
vn -0.5458 0.6610 0.5150
vn -0.5465 0.6600 0.5155
vn -0.5410 0.6679 0.5112
vn -0.0071 0.9812 -0.1927
vn -0.3540 0.9350 0.0215
vn -0.9430 0.2019 0.2644
vn -0.5537 0.7417 0.3785
vn -0.8092 0.5407 0.2297
vn 0.6789 0.6368 -0.3655
vn 0.9899 -0.1376 -0.0331
vn 0.9940 -0.1043 -0.0337
vn 0.7670 0.4303 -0.4761
vn 0.2742 -0.5688 0.7754
vn 0.2575 -0.3449 0.9026
vn 0.0850 0.9004 0.4266
vn -0.0292 -0.6009 -0.7988
vn 0.9930 -0.0934 -0.0726
vn -0.4662 -0.0702 -0.8819
vn -0.0982 -0.3112 -0.9453
vn 0.5530 -0.0385 -0.8323
vn -0.9648 0.2520 0.0754
vn -0.1199 -0.1911 0.9742
vn 0.4316 0.0249 -0.9017
vn 0.9318 0.3609 -0.0383
vn 0.8188 0.5101 -0.2631
vn -0.3399 0.3622 0.8679
vn 0.6547 -0.2336 -0.7189
vn -0.4802 0.0165 -0.8770
vn -0.3383 0.2145 0.9163
vn -0.5010 0.2580 0.8261
vn -0.4138 0.2878 -0.8637
vn 0.9554 -0.0763 -0.2853
vn 0.4218 0.0936 -0.9018
vn 0.2892 0.7109 -0.6411
vn 0.8879 -0.1510 0.4345
vn 0.9805 -0.1767 -0.0859
vn 0.9317 0.2818 0.2290
vn -0.0381 -0.5271 -0.8489
vn 0.4379 0.0572 -0.8972
vn 0.6349 0.3606 -0.6833
vn -0.3139 0.6558 0.6866
vn -0.3137 0.6556 0.6869
vn 0.6799 0.7327 0.0290
vn -0.0765 0.7816 -0.6191
vn -0.1694 0.7726 -0.6119
vn -0.6210 0.7789 0.0877
vn -0.3062 0.6549 0.6910
vn -0.3065 0.6546 0.6911
vn -0.9166 0.3916 0.0812
vn 0.4618 0.0000 -0.8870
vn -0.4830 0.0000 -0.8756
vn -0.9981 -0.0000 0.0614
vn -0.5661 -0.0000 0.8243
vn 0.9973 0.0000 -0.0739
vn -0.3225 -0.0000 0.9466
vn 0.6610 0.7482 -0.0571
vn -0.2174 -0.9749 -0.0485
vn -0.3393 0.2462 0.9079
vn -0.3880 -0.9180 -0.0823
vn 0.5683 -0.7336 -0.3727
vn 0.3876 -0.9217 -0.0187
vn 0.3089 -0.9476 -0.0815
vn 0.9642 0.0000 -0.2653
vn 0.5864 0.7740 -0.2388
vn -0.5465 0.7776 -0.3111
vn 0.2279 0.6353 0.7379
vn -0.8122 -0.3807 0.4421
vn 0.5394 -0.0017 -0.8421
vn -0.4693 0.6549 0.5923
vn 0.9932 -0.0768 -0.0870
vn -0.0888 0.6581 -0.7477
vn -0.3662 0.9059 -0.2130
vn -0.0662 0.3548 0.9326
vn -0.0163 -0.5439 -0.8390
vn 0.1292 0.8189 -0.5591
vn -0.5397 0.6696 0.5102
vn 0.2340 0.5219 0.8203
vn -0.5244 -0.5879 -0.6160
vn 0.0056 -0.9999 0.0088
vn 0.0019 -1.0000 0.0002
vn 0.0046 -1.0000 0.0070
vn 0.0010 -1.0000 0.0025
vn 0.0009 -1.0000 0.0030
vn -0.1618 0.5428 -0.8242
vn -0.9187 0.3037 0.2525
vn 0.8241 0.5661 0.0196
vn 0.7591 0.1368 -0.6364
vn -0.9963 -0.0666 0.0539
vn -0.0706 0.9200 -0.3854
vn -0.7215 0.6861 0.0935
vn 0.7648 0.0718 -0.6402
vn 0.9879 0.1531 0.0235
vn 0.9954 -0.0882 -0.0382
vn 0.9153 -0.0850 -0.3937
vn -0.0961 -0.2739 -0.9570
vn -0.2301 0.9535 0.1947
vn -0.5832 -0.1233 0.8029
vn 0.8874 0.4556 -0.0707
vn 0.9333 0.3203 -0.1623
vn -0.2341 -0.9713 -0.0412
usemtl Material.012
s 1
f 1/1/1 2/2/1 3/3/1
f 4/4/2 5/5/2 6/6/2
f 7/7/3 8/8/3 9/9/3
f 6/6/4 5/5/4 10/10/4
f 10/10/5 5/5/5 8/8/5
f 8/8/6 3/3/6 2/2/6
f 6/6/7 11/11/7 4/4/7
f 7/7/8 12/12/8 13/13/8
f 1/1/9 14/14/9 2/2/9
f 10/10/10 8/8/10 7/7/10
f 6/6/11 7/7/11 13/13/11
f 4/4/12 15/15/12 1/1/12
f 2/2/13 9/9/13 8/8/13
f 16/16/14 17/17/14 18/18/14
f 15/15/15 19/19/15 14/14/15
f 9/9/16 20/20/16 7/7/16
f 13/13/17 21/21/17 11/11/17
f 9/9/18 22/22/18 23/23/18
f 22/22/19 24/24/19 23/23/19
f 20/20/20 18/18/20 12/12/20
f 21/21/21 25/25/21 26/26/21
f 23/23/22 27/27/22 20/20/22
f 16/28/23 28/29/23 29/30/23
f 24/24/24 28/31/24 27/27/24
f 12/12/25 17/17/25 21/21/25
f 26/26/26 30/32/26 19/19/26
f 19/19/27 29/33/27 24/24/27
f 27/27/28 16/16/29 18/18/30
f 28/34/31 31/35/31 32/36/31
f 16/37/32 28/34/32 32/36/32
f 16/37/33 33/38/33 34/39/33
f 16/37/34 34/39/34 17/40/34
f 33/38/35 35/41/35 34/39/35
f 29/42/36 36/43/36 31/35/36
f 30/44/37 37/45/37 36/43/37
f 37/45/38 38/46/38 36/43/38
f 36/43/39 39/47/39 31/35/39
f 25/48/40 34/39/40 37/45/40
f 34/39/41 25/48/41 17/40/41
f 37/45/42 34/39/42 40/49/42
f 31/35/43 33/38/43 32/36/43
f 41/50/44 42/51/44 43/52/44
f 44/53/45 45/54/45 46/55/45
f 39/47/46 46/55/46 33/38/46
f 44/53/47 39/47/47 47/56/47
f 35/41/48 33/38/48 46/55/48
f 34/39/49 48/57/49 40/49/49
f 47/56/50 39/47/50 49/58/50
f 40/49/51 43/52/51 38/46/51
f 38/46/52 49/58/52 39/47/52
f 48/57/53 41/50/53 40/49/53
f 47/56/54 50/59/54 45/54/54
f 45/54/55 50/59/55 46/55/55
f 48/57/56 51/60/56 41/50/56
f 35/41/57 52/61/57 48/57/57
f 46/55/58 53/62/58 54/63/58
f 43/52/59 55/64/59 49/58/59
f 50/59/60 55/64/60 53/62/60
f 3/3/61 5/5/61 1/1/61
f 21/21/62 26/26/62 11/11/62
f 11/11/63 26/26/63 15/15/63
f 15/15/64 26/26/64 19/19/64
f 22/22/65 14/14/65 19/19/65
f 49/58/66 50/59/66 47/56/66
f 47/56/67 45/54/67 44/53/67
f 51/60/68 56/65/69 57/66/68
f 55/64/70 58/67/70 59/68/70
f 53/62/71 59/68/71 60/69/71
f 53/62/72 61/70/72 54/63/72
f 54/63/73 62/71/73 63/72/73
f 63/72/74 56/65/69 52/61/75
f 35/41/76 54/63/76 63/72/76
f 60/69/77 64/73/77 65/74/77
f 60/69/78 66/75/78 61/70/78
f 62/71/79 66/75/79 67/76/79
f 56/65/80 67/76/80 68/77/80
f 58/67/81 69/78/81 70/79/81
f 56/65/82 69/78/82 57/66/82
f 51/60/83 58/67/83 42/51/83
f 67/76/84 66/75/84 68/77/84
f 69/78/85 68/77/85 71/80/85
f 68/77/86 65/74/86 71/80/86
f 70/79/87 65/74/87 64/73/87
f 69/78/88 71/80/88 70/79/88
f 65/74/89 70/79/89 71/80/89
f 58/67/90 64/73/90 59/68/90
f 4/4/91 1/1/91 5/5/91
f 8/8/92 5/5/92 3/3/92
f 6/6/93 13/13/93 11/11/93
f 7/7/94 20/20/94 12/12/94
f 1/1/95 15/15/95 14/14/95
f 6/6/96 10/10/96 7/7/96
f 4/4/97 11/11/97 15/15/97
f 2/2/98 14/14/98 9/9/98
f 9/9/99 23/23/99 20/20/99
f 13/13/100 12/12/100 21/21/100
f 9/9/101 14/14/101 22/22/101
f 22/22/102 19/19/102 24/24/102
f 20/20/103 27/27/28 18/18/30
f 21/21/104 17/17/104 25/25/104
f 23/23/105 24/24/105 27/27/105
f 29/30/106 30/81/107 16/28/108
f 30/81/107 25/82/109 16/28/108
f 25/82/109 17/83/110 16/28/108
f 24/24/111 29/33/111 28/31/111
f 12/12/112 18/18/112 17/17/112
f 26/26/113 25/25/113 30/32/113
f 19/19/114 30/32/114 29/33/114
f 27/27/115 28/31/115 16/16/115
f 28/34/116 29/42/116 31/35/116
f 16/37/117 32/36/117 33/38/117
f 29/42/118 30/44/118 36/43/118
f 30/44/119 25/48/119 37/45/119
f 37/45/120 40/49/120 38/46/120
f 36/43/121 38/46/121 39/47/121
f 31/35/122 39/47/122 33/38/122
f 41/50/44 51/60/44 42/51/44
f 39/47/123 44/53/123 46/55/123
f 34/39/124 35/41/124 48/57/124
f 40/49/125 41/50/125 43/52/125
f 38/46/126 43/52/126 49/58/126
f 48/57/56 52/61/56 51/60/56
f 35/41/57 63/72/57 52/61/57
f 46/55/58 50/59/58 53/62/58
f 43/52/59 42/51/59 55/64/59
f 50/59/60 49/58/60 55/64/60
f 51/60/68 52/61/75 56/65/69
f 55/64/70 42/51/70 58/67/70
f 53/62/71 55/64/71 59/68/71
f 53/62/72 60/69/72 61/70/72
f 54/63/73 61/70/73 62/71/73
f 63/72/74 62/71/74 56/65/69
f 35/41/76 46/55/76 54/63/76
f 60/69/77 59/68/77 64/73/77
f 60/69/78 65/74/78 66/75/78
f 62/71/79 61/70/79 66/75/79
f 56/65/80 62/71/80 67/76/80
f 58/67/81 57/66/81 69/78/81
f 56/65/82 68/77/82 69/78/82
f 51/60/83 57/66/83 58/67/83
f 68/77/127 66/75/127 65/74/127
f 58/67/90 70/79/90 64/73/90
