# Blender v2.93.5 OBJ File: 'octadado.blend'
# www.blender.org
mtllib octadado.mtl
o Cube
v 1.000000 -0.000308 0.000000
v -1.000000 -0.000308 0.000000
v 0.000000 -0.000308 -1.000000
v 0.000000 1.000000 0.000000
v 0.000000 -1.000000 0.000000
v 0.000000 -0.000308 1.000000
vt 0.295137 0.335320
vt 0.430087 0.651141
vt 0.560829 0.335626
vt 0.301386 0.323219
vt 0.431852 0.015502
vt 0.566719 0.327098
vt 0.421754 0.657333
vt 0.288384 0.348221
vt 0.155324 0.657308
vt 0.014187 0.336305
vt 0.280776 0.336437
vt 0.146643 0.651355
vt 0.585360 0.335991
vt 0.720284 0.654773
vt 0.854988 0.336810
vt 0.725594 0.657373
vt 0.985979 0.656840
vt 0.860488 0.351403
vt 0.575060 0.983436
vt 0.710778 0.669811
vt 0.440190 0.671696
vt 0.573786 0.339415
vt 0.437167 0.658249
vt 0.710159 0.657550
vn 0.5773 0.5775 -0.5773
vn 0.5773 0.5775 0.5773
vn -0.5773 0.5775 -0.5773
vn -0.5773 0.5775 0.5773
vn 0.5774 -0.5772 -0.5774
vn 0.5774 -0.5772 0.5774
vn -0.5774 -0.5772 0.5774
vn -0.5774 -0.5772 -0.5774
usemtl Material
s off
f 5/1/1 2/2/1 6/3/1
f 5/4/2 3/5/2 2/6/2
f 1/7/3 5/8/3 6/9/3
f 3/10/4 5/11/4 1/12/4
f 2/13/5 4/14/5 6/15/5
f 4/16/6 2/17/6 3/18/6
f 1/19/7 4/20/7 3/21/7
f 1/22/8 6/23/8 4/24/8
