# Blender v2.93.5 OBJ File: 'padoru2.blend'
# www.blender.org
mtllib pierna_izq.mtl
o Body_jinsters_padoru.001
v -0.013676 0.082696 0.025841
v -0.009505 0.075905 -0.000000
v -0.007091 0.078123 -0.000000
v -0.023102 0.073207 0.021773
v -0.019313 0.079894 0.023912
v -0.036587 0.005286 0.005339
v -0.040521 0.006533 0.007006
v -0.044117 0.005380 0.005341
v -0.059637 0.077971 0.022467
v -0.043655 0.086648 0.034218
v -0.063087 0.096893 0.025658
v -0.017738 0.081532 -0.025720
v -0.041339 0.075135 -0.031941
v -0.042693 0.094751 -0.038536
v -0.020729 0.091910 0.039517
v -0.047238 0.002880 0.000381
v -0.034500 0.001108 -0.005481
v -0.033901 0.002880 0.000381
v -0.068000 0.079626 -0.000000
v -0.072180 0.104254 -0.000047
v -0.040664 0.056398 0.024838
v -0.025716 0.055830 0.017838
v -0.019891 0.072998 -0.023233
v -0.041936 0.075313 0.030571
v -0.063627 0.102283 -0.025255
v -0.060106 0.077933 -0.021251
v -0.045831 0.010256 0.006638
v -0.048152 0.008406 -0.007294
v -0.046755 0.001019 -0.005481
v -0.049866 0.008987 0.000380
v -0.040598 0.009331 -0.012082
v -0.043846 0.000000 -0.010138
v -0.040520 0.000000 -0.011470
v -0.037321 0.000000 -0.010138
v -0.035253 0.010140 0.006343
v -0.040413 0.011162 0.009225
v -0.033143 0.008418 -0.007142
v -0.031441 0.008981 0.000361
v -0.040463 0.046177 0.021516
v -0.027146 0.047843 0.015786
v -0.062241 0.055180 -0.000000
v -0.056099 0.055612 -0.016636
v -0.055679 0.053051 -0.016126
v -0.055333 0.055917 0.018094
v -0.053750 0.047663 0.016174
v -0.040879 0.053075 -0.025372
v -0.016716 0.055185 -0.000000
v -0.023707 0.055583 -0.019015
v -0.040864 0.056020 -0.026277
v -0.010856 0.072410 -0.000000
v -0.024274 0.053056 -0.018415
vt 0.979731 0.380178
vt 0.987560 0.368869
vt 0.991045 0.374238
vt 0.965067 0.360135
vt 0.970610 0.374669
vt 0.865106 0.281404
vt 0.874234 0.276919
vt 0.882672 0.281088
vt 0.910669 0.360135
vt 0.938029 0.380672
vt 0.910669 0.394925
vt 0.772683 0.378125
vt 0.807441 0.360025
vt 0.807441 0.396540
vt 0.890103 0.292689
vt 0.860550 0.305962
vt 0.858988 0.293086
vt 0.885025 0.360135
vt 0.880553 0.404803
vt 0.756812 0.371440
vt 0.759688 0.368869
vt 0.965067 0.356442
vt 0.935367 0.328815
vt 0.960864 0.328815
vt 0.778757 0.360025
vt 0.970415 0.389267
vt 0.937418 0.360135
vt 0.869975 0.360025
vt 0.841497 0.404309
vt 0.841497 0.360025
vt 0.897133 0.259704
vt 0.890391 0.267394
vt 0.889448 0.259108
vt 0.878391 0.256903
vt 0.866243 0.267394
vt 0.867998 0.254737
vt 0.878741 0.267394
vt 0.850836 0.267394
vt 0.858752 0.252924
vt 0.874753 0.318673
vt 0.867254 0.315961
vt 0.882478 0.315774
vt 0.890391 0.267394
vt 0.899652 0.267394
vt 0.878391 0.256903
vt 0.866243 0.267394
vt 0.878741 0.267394
vt 0.954745 0.325202
vt 0.933836 0.310362
vt 0.953218 0.313783
vt 0.889448 0.259108
vt 0.857050 0.325202
vt 0.837499 0.325202
vt 0.837111 0.321731
vt 0.912885 0.325202
vt 0.891337 0.325202
vt 0.914630 0.313737
vt 0.933577 0.325202
vt 0.815299 0.321731
vt 0.977516 0.325202
vt 0.791929 0.325202
vt 0.815354 0.325202
vt 0.841497 0.356332
vt 0.857096 0.328815
vt 0.869975 0.356332
vt 0.885221 0.356442
vt 0.911123 0.328815
vt 0.910669 0.356442
vt 0.761995 0.356332
vt 0.784326 0.328815
vt 0.778757 0.356332
vt 0.937418 0.356442
vt 0.769711 0.325202
vt 0.792214 0.321731
vt 0.807274 0.328815
vt 0.807441 0.356332
vt 0.933726 0.257263
vt 0.911835 0.252342
vt 0.923094 0.255583
vt 0.838827 0.252005
vt 0.814042 0.256062
vt 0.827544 0.253643
vt 0.944131 0.255289
vt 0.954863 0.252187
vt 0.788910 0.252505
vt 0.800249 0.253969
vt 0.985043 0.356442
vt 0.977568 0.328815
vt 0.835922 0.328815
vt 0.867998 0.254737
vt 0.858752 0.252924
vt 0.852544 0.252360
vt 0.985043 0.360135
vt 0.889140 0.305653
vt 0.761995 0.360025
vt 0.875884 0.404941
vt 0.891425 0.328815
vt 0.769756 0.328815
vn 0.3719 -0.8813 0.2916
vn 0.8058 -0.5920 0.0127
vn 0.6765 -0.7363 -0.0178
vn 0.5972 -0.3942 0.6985
vn 0.4152 -0.7060 0.5738
vn 0.3721 -0.6214 0.6895
vn 0.0019 -0.5570 0.8305
vn -0.3490 -0.6443 0.6805
vn -0.7322 -0.2635 0.6280
vn -0.1559 -0.4163 0.8958
vn -0.8142 -0.2190 0.5377
vn 0.5835 -0.3611 -0.7274
vn -0.0940 -0.3095 -0.9463
vn -0.2654 -0.2926 -0.9187
vn -0.6023 -0.7209 0.3428
vn 0.6549 -0.7554 -0.0222
vn 0.6109 -0.7247 0.3189
vn -0.9776 -0.2103 -0.0006
vn -0.9854 -0.1673 -0.0315
vn 0.0092 -0.2996 0.9540
vn 0.6588 -0.2810 0.6979
vn 0.6628 -0.3323 -0.6710
vn 0.0399 -0.7899 0.6119
vn -0.0315 -0.3074 0.9511
vn -0.8089 -0.1999 -0.5529
vn -0.7621 -0.2435 -0.5999
vn -0.5756 -0.3559 0.7362
vn -0.8312 -0.2223 -0.5095
vn -0.6503 -0.7595 -0.0169
vn -0.9246 -0.3333 0.1844
vn -0.0039 -0.1800 -0.9837
vn -0.4534 -0.7412 -0.4951
vn 0.0068 -0.6555 -0.7552
vn 0.4678 -0.7390 -0.4849
vn 0.5996 -0.3301 0.7290
vn 0.0261 -0.3715 0.9281
vn 0.8330 -0.2405 -0.4982
vn 0.9266 -0.3305 0.1791
vn 0.0133 -0.3215 0.9468
vn 0.6642 -0.2983 0.6855
vn -0.9691 -0.2466 0.0110
vn -0.7487 -0.2527 -0.6129
vn -0.7521 -0.2530 -0.6086
vn -0.7015 -0.2775 0.6565
vn -0.6863 -0.2908 0.6666
vn -0.0810 -0.2918 -0.9531
vn 0.9483 -0.3125 0.0565
vn 0.6825 -0.3124 -0.6608
vn -0.0809 -0.2934 -0.9525
vn 0.9401 -0.3344 0.0668
vn 0.6895 -0.3058 -0.6565
usemtl Padoru_Tex
s 1
f 1/1/1 2/2/2 3/3/3
f 4/4/4 2/2/2 5/5/5
f 6/6/6 7/7/7 8/8/8
f 9/9/9 10/10/10 11/11/11
f 12/12/12 13/13/13 14/14/14
f 16/15/15 17/16/16 18/17/17
f 8/8/8 18/17/17 6/6/6
f 19/18/18 11/11/11 20/19/19
f 12/12/12 3/20/3 2/21/2
f 4/22/4 21/23/20 22/24/21
f 2/21/2 23/25/22 12/12/12
f 5/5/5 15/26/23 10/10/10
f 5/5/5 24/27/24 4/4/4
f 19/28/18 25/29/25 26/30/26
f 7/31/7 27/32/27 8/33/8
f 16/34/15 28/35/28 29/36/29
f 8/33/8 30/37/30 16/34/15
f 31/38/31 32/39/32 28/35/28
f 33/40/33 34/41/34 32/42/32
f 7/31/7 35/43/35 36/44/36
f 18/45/17 37/46/37 38/47/38
f 22/48/21 39/49/39 40/50/40
f 6/51/6 38/47/38 35/43/35
f 41/52/41 42/53/42 43/54/43
f 44/55/44 41/56/41 45/57/45
f 14/14/14 26/30/26 25/29/25
f 21/58/20 45/57/45 39/49/39
f 42/53/42 46/59/46 43/54/43
f 47/60/47 22/48/21 40/50/40
f 48/61/48 46/59/46 49/62/49
f 26/63/26 41/64/41 19/65/18
f 19/66/18 44/67/44 9/68/9
f 50/69/50 48/70/48 23/71/22
f 44/67/44 24/72/24 9/68/9
f 48/61/48 47/73/47 51/74/51
f 23/71/22 49/75/49 13/76/13
f 17/16/16 32/42/32 34/41/34
f 45/57/45 36/77/36 39/49/39
f 45/57/45 30/78/30 27/79/27
f 43/54/43 30/80/30 41/52/41
f 43/54/43 31/81/31 28/82/28
f 40/50/40 36/77/36 35/83/35
f 40/50/40 38/84/38 47/60/47
f 51/74/51 38/85/38 37/86/37
f 51/74/51 31/81/31 46/59/46
f 50/87/50 22/24/21 47/88/47
f 42/89/42 13/76/13 49/75/49
f 37/46/37 17/90/16 34/91/34
f 29/36/29 28/35/28 32/39/32
f 31/38/31 34/91/34 33/92/33
f 1/1/1 5/5/5 2/2/2
f 4/4/4 50/93/50 2/2/2
f 9/9/9 24/27/24 10/10/10
f 12/12/12 23/25/22 13/13/13
f 16/15/15 29/94/29 17/16/16
f 8/8/8 16/15/15 18/17/17
f 19/18/18 9/9/9 11/11/11
f 4/22/4 24/72/24 21/23/20
f 2/21/2 50/95/50 23/25/22
f 5/5/5 10/10/10 24/27/24
f 19/28/18 20/96/19 25/29/25
f 7/31/7 36/44/36 27/32/27
f 16/34/15 30/37/30 28/35/28
f 8/33/8 27/32/27 30/37/30
f 31/38/31 33/92/33 32/39/32
f 7/31/7 6/51/6 35/43/35
f 18/45/17 17/90/16 37/46/37
f 22/48/21 21/58/20 39/49/39
f 6/51/6 18/45/17 38/47/38
f 14/14/14 13/13/13 26/30/26
f 21/58/20 44/55/44 45/57/45
f 42/53/42 49/62/49 46/59/46
f 48/61/48 51/74/51 46/59/46
f 26/63/26 42/89/42 41/64/41
f 19/66/18 41/97/41 44/67/44
f 50/69/50 47/98/47 48/70/48
f 44/67/44 21/23/20 24/72/24
f 23/71/22 48/70/48 49/75/49
f 17/16/16 29/94/29 32/42/32
f 45/57/45 27/79/27 36/77/36
f 45/57/45 41/56/41 30/78/30
f 43/54/43 28/82/28 30/80/30
f 43/54/43 46/59/46 31/81/31
f 40/50/40 39/49/39 36/77/36
f 40/50/40 35/83/35 38/84/38
f 51/74/51 47/73/47 38/85/38
f 51/74/51 37/86/37 31/81/31
f 50/87/50 4/22/4 22/24/21
f 42/89/42 26/63/26 13/76/13
f 31/38/31 37/46/37 34/91/34
